<svg width="300" height="240" viewBox="0 0 300 240" fill="none" xmlns="http://www.w3.org/2000/svg">
<path d="M223.296 123.558C221.709 119.304 221.615 114.628 223.031 110.314C223.925 111.156 224.643 112.17 225.142 113.298C225.641 114.426 225.911 115.644 225.935 116.879C225.96 118.114 225.739 119.342 225.286 120.489C224.832 121.636 224.156 122.68 223.296 123.558ZM204.635 83.1749C201.758 93.6247 201.38 111.692 204.332 119.271C212.357 103.424 205.695 86.0457 204.635 83.1749ZM184.271 113.797C184.914 97.9883 184.914 86.7348 181.546 80.3807C178.669 88.9548 180.107 97.9117 184.309 113.797H184.271ZM190.403 128.916C195.664 135.921 198.617 132.17 199.374 128.916C192.636 102.926 197.14 89.108 201.72 73.3377C201.455 73.3377 188.51 78.4668 187.148 79.0027C197.557 95.9213 185.104 115.06 190.441 128.993L190.403 128.916ZM253.35 126.696C262.623 119.615 261.829 104.84 263.04 97.1079L246.915 103.424C254.485 107.251 256.794 115.519 253.388 126.735L253.35 126.696ZM171.136 124.4C174.051 131.098 179.275 128.227 181.432 125.586C179.329 121.367 177.618 116.959 176.322 112.419C171.515 113.146 167.881 116.974 171.174 124.4H171.136ZM232.191 128.993C238.853 122.256 242.411 108.591 242.638 101.433L227.762 107.213C233.326 113.184 232.153 120.113 227.157 128.687C227.809 129.371 228.689 129.784 229.627 129.848C230.564 129.912 231.492 129.621 232.229 129.031L232.191 128.993ZM267.468 107.366C268.05 112.506 267.059 117.703 264.63 122.256C270.383 122.945 274.092 113.338 267.468 107.366ZM246.007 111.998C245.723 115.806 244.788 119.536 243.243 123.022C249.035 126.849 251.684 119.615 246.007 111.998ZM219.7 128.227C217.557 124.216 216.527 119.692 216.72 115.137C216.914 110.581 218.322 106.163 220.798 102.352L214.628 104.687C214.16 112.536 211.947 120.176 208.155 127.041C209.291 130.601 218.11 132.323 219.7 128.227ZM261.147 128.802C254.372 135.347 247.483 135.692 240.405 129.759C236.619 135.079 231.812 137.414 223.296 134.275C220.359 136.281 216.865 137.285 213.324 137.141C209.783 136.996 206.38 135.71 203.613 133.471C198.352 141.51 190.1 140.438 184.877 132.285C181.47 138.792 175.149 139.022 170.077 134.428C165.421 140.132 159.138 140.706 155.428 135.003C153.8 140.515 146.76 143.845 138.736 139.404C136.617 142.395 133.518 144.528 129.991 145.426C126.463 146.323 122.735 145.925 119.469 144.304C107.887 155.481 98.4616 153.529 98.6509 128.151L93.9195 126.964C93.9195 126.964 94.4872 143.079 94.298 144.916C94.2803 146.677 93.6413 148.373 92.4962 149.7C91.3511 151.026 89.7752 151.895 88.0525 152.151C87.1353 152.386 86.1813 152.436 85.2451 152.297C84.3089 152.159 83.4089 151.835 82.5966 151.345C81.7844 150.854 81.0758 150.206 80.5116 149.438C79.9474 148.67 79.5387 147.797 79.3088 146.869C78.1429 138.614 76.5637 130.425 74.5774 122.333C71.625 121.376 68.9374 149.548 61.2157 155.825C52.8127 162.639 47.2107 157.395 41.2681 153.567L36.1581 158.849C34.0384 147.366 32.373 136.227 35.4011 125.625C31.6159 126.582 26.2032 124.897 25.4083 122.218C26.5369 120.837 28.0235 119.801 29.7016 119.226C31.3796 118.652 33.1828 118.561 34.909 118.964C36.3752 113.807 36.5572 108.363 35.4389 103.117C36.4888 103.022 37.547 103.148 38.5456 103.49C39.5442 103.831 40.4613 104.38 41.2381 105.101C42.0149 105.821 42.6342 106.698 43.0566 107.675C43.4789 108.652 43.6948 109.707 43.6906 110.773C43.711 113.181 43.327 115.576 42.555 117.854C43.7854 117.174 45.1651 116.818 46.5672 116.818C47.9694 116.818 49.3491 117.174 50.5795 117.854C51.3509 118.263 52.0063 118.864 52.4833 119.601C52.9602 120.338 53.243 121.186 53.3048 122.065C50.0597 123.615 46.4764 124.3 42.8956 124.055C41.6765 126.538 41.0053 129.26 40.9286 132.031C40.8519 134.802 41.3715 137.557 42.4514 140.105C43.5314 142.654 45.1459 144.934 47.1832 146.789C49.2206 148.644 51.6321 150.03 54.2511 150.849C58.2633 124.515 55.9923 93.7778 62.427 79.462L36.9151 89.6438C34.9828 94.1815 33.708 98.9772 33.13 103.883C32.4108 104.189 9.6999 112.84 9.77561 113.376C10.6842 117.872 10.6842 122.507 9.77561 127.003C6.43073 127.98 3.28873 129.562 0.502006 131.672C-1.54197 133.625 3.22732 135.5 4.58997 135.768C5.7694 136.036 6.97764 136.152 8.18585 136.113C8.74743 136.095 9.30565 136.018 9.85133 135.883L9.28358 138.218C8.65686 141.396 8.3148 144.624 8.26157 147.864C8.32314 155.008 9.1095 162.126 10.6083 169.108L17.7244 166.313L19.0114 165.816C20.7948 167.046 22.7288 168.037 24.7648 168.763C29.2313 170.218 34.0006 167.538 38.0507 165.969C43.6905 163.749 49.4061 161.529 54.9324 159.194C55.674 160.342 56.7066 161.267 57.9227 161.873C62.2378 164.208 69.9594 159.538 73.5175 158.046L76.3185 156.974C77.0416 158.235 78.0708 159.289 79.3088 160.036C80.596 160.728 82.0774 160.957 83.5103 160.687C84.3276 160.565 85.1278 160.346 85.8949 160.036C89.9829 158.696 93.9951 156.974 97.9696 155.366C104.366 156.285 109.968 153.529 116.29 151.041L116.933 150.773C119.679 151.389 122.536 151.271 125.223 150.428C127.737 149.665 130.202 148.744 132.604 147.672C136.162 150.734 145.17 146.256 146.419 145.797C150.999 149.203 159.97 145.223 161.106 144.572C162.442 146.397 164.314 147.75 166.455 148.437C168.596 149.124 170.896 149.111 173.029 148.4C175.679 147.481 178.253 146.524 180.826 145.491C184.711 147.448 189.178 147.871 193.355 146.677C195.21 146.18 197.14 145.529 198.957 144.84C201.147 145.54 203.437 145.864 205.733 145.797C209.861 145.18 213.863 143.887 217.58 141.969C222.349 145.797 232.418 142.811 238.02 140.285C243.549 142.654 249.653 143.294 255.545 142.122C257.248 141.816 276.628 134.467 285.826 130.639C281.854 132.111 277.62 132.718 273.4 132.422C269.179 132.125 265.069 130.93 261.336 128.916L261.147 128.802ZM64.8117 92.3232L62.162 130.601C66.1364 124.285 68.0291 101.089 64.8117 92.3232ZM161.257 132.055C161.674 133.701 165.951 133.28 166.443 130.715C161.636 123.672 158.116 107.749 174.77 105.452C173.396 99.6297 173.169 93.5901 174.105 87.679C175.04 81.7678 177.118 76.1011 180.221 71.0028C180.032 70.8114 155.012 80.6486 154.709 81.1462C150.947 87.436 148.752 94.5554 148.312 101.893C154.671 101.548 157.434 118.275 161.257 132.208V132.055ZM85.0244 144.763C85.0244 144.763 87.2954 148.285 89.1123 145.95C90.9292 143.615 87.674 120.687 87.6361 120.342C86.3233 120.661 85.0527 121.136 83.851 121.759L83.0939 122.027C83.9164 124.085 84.4514 126.249 84.6837 128.457C85.1392 133.88 85.253 139.326 85.0244 144.763ZM100.96 118.888C103.494 121.815 105.225 125.363 105.982 129.177C106.74 132.991 106.496 136.94 105.275 140.629C108.454 145.146 110.877 144.457 114.586 140.936C107.016 135.845 107.622 116.859 120.075 109.816H119.621C111.208 112.646 102.957 115.943 94.9036 119.692L93.9573 120.266C95.4498 120.47 96.9199 120.816 98.3481 121.299L100.96 118.888ZM144.262 133.892C145.141 134.189 146.075 134.284 146.995 134.17C147.915 134.056 148.799 133.736 149.581 133.234C150.364 132.732 151.027 132.06 151.521 131.267C152.015 130.474 152.328 129.579 152.438 128.648C150.654 122.899 149.164 117.06 147.971 111.156C142.294 112.227 139.266 130.945 144.186 133.892H144.262ZM124.579 138.448C126.775 139.787 134.269 140.4 135.178 135.538C132.604 115.06 141.385 103.96 146.949 102.161H146.533L145.208 102.62L122.194 110.735C131.771 116.438 132.187 131.366 124.579 138.333V138.448ZM119.583 134.505C127.153 126.505 123.974 117.893 120.529 117.433C114.473 122.907 115.608 131.711 119.545 134.505H119.583ZM283.025 106.792H283.442C283.472 106.733 283.487 106.667 283.487 106.601C283.487 106.534 283.472 106.469 283.442 106.409C283.442 106.218 283.442 106.103 283.252 106.065C283.094 106.003 282.919 106.003 282.76 106.065H282.079V106.945H282.798L283.025 106.792ZM299.945 99.1366L286.129 104.419C286.724 105.056 287.085 105.88 287.151 106.754C287.208 107.308 287.155 107.868 286.995 108.402C286.834 108.935 286.57 109.43 286.217 109.858C285.864 110.286 285.43 110.639 284.941 110.895C284.451 111.15 283.916 111.304 283.366 111.347C282.368 111.438 281.372 111.158 280.563 110.56C279.754 109.963 279.188 109.088 278.97 108.099C278.752 107.11 278.898 106.075 279.379 105.186C279.861 104.298 280.645 103.617 281.587 103.271L274.66 105.912C275.08 106.716 275.447 107.547 275.758 108.4C277.571 113.993 277.192 120.076 274.698 125.395C292.98 124.553 300.967 111.003 299.907 99.2132L299.945 99.1366ZM282.609 103.768C283.287 103.696 283.97 103.829 284.573 104.15C285.176 104.471 285.671 104.965 285.996 105.571C286.321 106.176 286.461 106.866 286.399 107.552C286.336 108.238 286.074 108.889 285.645 109.425C285.217 109.96 284.64 110.355 283.99 110.559C283.339 110.763 282.643 110.768 281.99 110.572C281.337 110.376 280.756 109.989 280.32 109.459C279.885 108.93 279.614 108.281 279.543 107.596C279.458 106.679 279.731 105.765 280.304 105.05C280.877 104.334 281.705 103.874 282.609 103.768ZM281.473 105.414L281.89 109.242H282.571L282.382 107.596H282.912C282.912 107.596 282.912 107.596 283.101 107.787L284.047 109.05H284.842L283.631 107.481C283.631 107.481 283.82 107.481 283.858 107.481C284.009 107.378 284.125 107.232 284.193 107.061C284.26 106.891 284.275 106.704 284.237 106.524C284.316 106.3 284.321 106.057 284.253 105.83C284.185 105.602 284.047 105.403 283.858 105.261C283.57 105.213 283.276 105.213 282.987 105.261L281.473 105.414Z" fill="#10100F"/>
</svg>
