<svg width="300" height="300" viewBox="0 0 300 300" fill="none" xmlns="http://www.w3.org/2000/svg">
<path d="M223.296 153.558C221.709 149.304 221.615 144.628 223.031 140.314C223.925 141.156 224.643 142.17 225.142 143.298C225.641 144.426 225.911 145.644 225.935 146.879C225.96 148.114 225.739 149.342 225.286 150.489C224.832 151.636 224.156 152.68 223.296 153.558ZM204.635 113.175C201.758 123.625 201.38 141.692 204.332 149.271C212.357 133.424 205.695 116.046 204.635 113.175ZM184.271 143.797C184.914 127.988 184.914 116.735 181.546 110.381C178.669 118.955 180.107 127.912 184.309 143.797H184.271ZM190.403 158.916C195.664 165.921 198.617 162.17 199.374 158.916C192.636 132.926 197.14 119.108 201.72 103.338C201.455 103.338 188.51 108.467 187.148 109.003C197.557 125.921 185.104 145.06 190.441 158.993L190.403 158.916ZM253.35 156.696C262.623 149.615 261.829 134.84 263.04 127.108L246.915 133.424C254.485 137.251 256.794 145.519 253.388 156.735L253.35 156.696ZM171.136 154.4C174.051 161.098 179.275 158.227 181.432 155.586C179.329 151.367 177.618 146.959 176.322 142.419C171.515 143.146 167.881 146.974 171.174 154.4H171.136ZM232.191 158.993C238.853 152.256 242.411 138.591 242.638 131.433L227.762 137.213C233.326 143.184 232.153 150.113 227.157 158.687C227.809 159.371 228.689 159.784 229.627 159.848C230.564 159.912 231.492 159.621 232.229 159.031L232.191 158.993ZM267.468 137.366C268.05 142.506 267.059 147.703 264.63 152.256C270.383 152.945 274.092 143.338 267.468 137.366ZM246.007 141.998C245.723 145.806 244.788 149.536 243.243 153.022C249.035 156.849 251.684 149.615 246.007 141.998ZM219.7 158.227C217.557 154.216 216.527 149.692 216.72 145.137C216.914 140.581 218.322 136.163 220.798 132.352L214.628 134.687C214.16 142.536 211.947 150.176 208.155 157.041C209.291 160.601 218.11 162.323 219.7 158.227ZM261.147 158.802C254.372 165.347 247.483 165.692 240.405 159.759C236.619 165.079 231.812 167.414 223.296 164.275C220.359 166.281 216.865 167.285 213.324 167.141C209.783 166.996 206.38 165.71 203.613 163.471C198.352 171.51 190.1 170.438 184.877 162.285C181.47 168.792 175.149 169.022 170.077 164.428C165.421 170.132 159.138 170.706 155.428 165.003C153.8 170.515 146.76 173.845 138.736 169.404C136.617 172.395 133.518 174.528 129.991 175.426C126.463 176.323 122.735 175.925 119.469 174.304C107.887 185.481 98.4616 183.529 98.6509 158.151L93.9195 156.964C93.9195 156.964 94.4872 173.079 94.298 174.916C94.2803 176.677 93.6413 178.373 92.4962 179.7C91.3511 181.026 89.7752 181.895 88.0525 182.151C87.1353 182.386 86.1813 182.436 85.2451 182.297C84.3089 182.159 83.4089 181.835 82.5966 181.345C81.7844 180.854 81.0758 180.206 80.5116 179.438C79.9474 178.67 79.5387 177.797 79.3088 176.869C78.1429 168.614 76.5637 160.425 74.5774 152.333C71.625 151.376 68.9374 179.548 61.2157 185.825C52.8127 192.639 47.2107 187.395 41.2681 183.567L36.1581 188.849C34.0384 177.366 32.373 166.227 35.4011 155.625C31.6159 156.582 26.2032 154.897 25.4083 152.218C26.5369 150.837 28.0235 149.801 29.7016 149.226C31.3796 148.652 33.1828 148.561 34.909 148.964C36.3752 143.807 36.5572 138.363 35.4389 133.117C36.4888 133.022 37.547 133.148 38.5456 133.49C39.5442 133.831 40.4613 134.38 41.2381 135.101C42.0149 135.821 42.6342 136.698 43.0566 137.675C43.4789 138.652 43.6948 139.707 43.6906 140.773C43.711 143.181 43.327 145.576 42.555 147.854C43.7854 147.174 45.1651 146.818 46.5672 146.818C47.9694 146.818 49.3491 147.174 50.5795 147.854C51.3509 148.263 52.0063 148.864 52.4833 149.601C52.9602 150.338 53.243 151.186 53.3048 152.065C50.0597 153.615 46.4764 154.3 42.8956 154.055C41.6765 156.538 41.0053 159.26 40.9286 162.031C40.8519 164.802 41.3715 167.557 42.4514 170.105C43.5314 172.654 45.1459 174.934 47.1832 176.789C49.2206 178.644 51.6321 180.03 54.2511 180.849C58.2633 154.515 55.9923 123.778 62.427 109.462L36.9151 119.644C34.9828 124.181 33.708 128.977 33.13 133.883C32.4108 134.189 9.6999 142.84 9.77561 143.376C10.6842 147.872 10.6842 152.507 9.77561 157.003C6.43073 157.98 3.28873 159.562 0.502006 161.672C-1.54197 163.625 3.22732 165.5 4.58997 165.768C5.7694 166.036 6.97764 166.152 8.18585 166.113C8.74743 166.095 9.30565 166.018 9.85133 165.883L9.28358 168.218C8.65686 171.396 8.3148 174.624 8.26157 177.864C8.32314 185.008 9.1095 192.126 10.6083 199.108L17.7244 196.313L19.0114 195.816C20.7948 197.046 22.7288 198.037 24.7648 198.763C29.2313 200.218 34.0006 197.538 38.0507 195.969C43.6905 193.749 49.4061 191.529 54.9324 189.194C55.674 190.342 56.7066 191.267 57.9227 191.873C62.2378 194.208 69.9594 189.538 73.5175 188.046L76.3185 186.974C77.0416 188.235 78.0708 189.289 79.3088 190.036C80.596 190.728 82.0774 190.957 83.5103 190.687C84.3276 190.565 85.1278 190.346 85.8949 190.036C89.9829 188.696 93.9951 186.974 97.9696 185.366C104.366 186.285 109.968 183.529 116.29 181.041L116.933 180.773C119.679 181.389 122.536 181.271 125.223 180.428C127.737 179.665 130.202 178.744 132.604 177.672C136.162 180.734 145.17 176.256 146.419 175.797C150.999 179.203 159.97 175.223 161.106 174.572C162.442 176.397 164.314 177.75 166.455 178.437C168.596 179.124 170.896 179.111 173.029 178.4C175.679 177.481 178.253 176.524 180.826 175.491C184.711 177.448 189.178 177.871 193.355 176.677C195.21 176.18 197.14 175.529 198.957 174.84C201.147 175.54 203.437 175.864 205.733 175.797C209.861 175.18 213.863 173.887 217.58 171.969C222.349 175.797 232.418 172.811 238.02 170.285C243.549 172.654 249.653 173.294 255.545 172.122C257.248 171.816 276.628 164.467 285.826 160.639C281.854 162.111 277.62 162.718 273.4 162.422C269.179 162.125 265.069 160.93 261.336 158.916L261.147 158.802ZM64.8117 122.323L62.162 160.601C66.1364 154.285 68.0291 131.089 64.8117 122.323ZM161.257 162.055C161.674 163.701 165.951 163.28 166.443 160.715C161.636 153.672 158.116 137.749 174.77 135.452C173.396 129.63 173.169 123.59 174.105 117.679C175.04 111.768 177.118 106.101 180.221 101.003C180.032 100.811 155.012 110.649 154.709 111.146C150.947 117.436 148.752 124.555 148.312 131.893C154.671 131.548 157.434 148.275 161.257 162.208V162.055ZM85.0244 174.763C85.0244 174.763 87.2954 178.285 89.1123 175.95C90.9292 173.615 87.674 150.687 87.6361 150.342C86.3233 150.661 85.0527 151.136 83.851 151.759L83.0939 152.027C83.9164 154.085 84.4514 156.249 84.6837 158.457C85.1392 163.88 85.253 169.326 85.0244 174.763ZM100.96 148.888C103.494 151.815 105.225 155.363 105.982 159.177C106.74 162.991 106.496 166.94 105.275 170.629C108.454 175.146 110.877 174.457 114.586 170.936C107.016 165.845 107.622 146.859 120.075 139.816H119.621C111.208 142.646 102.957 145.943 94.9036 149.692L93.9573 150.266C95.4498 150.47 96.9199 150.816 98.3481 151.299L100.96 148.888ZM144.262 163.892C145.141 164.189 146.075 164.284 146.995 164.17C147.915 164.056 148.799 163.736 149.581 163.234C150.364 162.732 151.027 162.06 151.521 161.267C152.015 160.474 152.328 159.579 152.438 158.648C150.654 152.899 149.164 147.06 147.971 141.156C142.294 142.227 139.266 160.945 144.186 163.892H144.262ZM124.579 168.448C126.775 169.787 134.269 170.4 135.178 165.538C132.604 145.06 141.385 133.96 146.949 132.161H146.533L145.208 132.62L122.194 140.735C131.771 146.438 132.187 161.366 124.579 168.333V168.448ZM119.583 164.505C127.153 156.505 123.974 147.893 120.529 147.433C114.473 152.907 115.608 161.711 119.545 164.505H119.583ZM283.025 136.792H283.442C283.472 136.733 283.487 136.667 283.487 136.601C283.487 136.534 283.472 136.469 283.442 136.409C283.442 136.218 283.442 136.103 283.252 136.065C283.094 136.003 282.919 136.003 282.76 136.065H282.079V136.945H282.798L283.025 136.792ZM299.945 129.137L286.129 134.419C286.724 135.056 287.085 135.88 287.151 136.754C287.208 137.308 287.155 137.868 286.995 138.402C286.834 138.935 286.57 139.43 286.217 139.858C285.864 140.286 285.43 140.639 284.941 140.895C284.451 141.15 283.916 141.304 283.366 141.347C282.368 141.438 281.372 141.158 280.563 140.56C279.754 139.963 279.188 139.088 278.97 138.099C278.752 137.11 278.898 136.075 279.379 135.186C279.861 134.298 280.645 133.617 281.587 133.271L274.66 135.912C275.08 136.716 275.447 137.547 275.758 138.4C277.571 143.993 277.192 150.076 274.698 155.395C292.98 154.553 300.967 141.003 299.907 129.213L299.945 129.137ZM282.609 133.768C283.287 133.696 283.97 133.829 284.573 134.15C285.176 134.471 285.671 134.965 285.996 135.571C286.321 136.176 286.461 136.866 286.399 137.552C286.336 138.238 286.074 138.889 285.645 139.425C285.217 139.96 284.64 140.355 283.99 140.559C283.339 140.763 282.643 140.768 281.99 140.572C281.337 140.376 280.756 139.989 280.32 139.459C279.885 138.93 279.614 138.281 279.543 137.596C279.458 136.679 279.731 135.765 280.304 135.05C280.877 134.334 281.705 133.874 282.609 133.768ZM281.473 135.414L281.89 139.242H282.571L282.382 137.596H282.912C282.912 137.596 282.912 137.596 283.101 137.787L284.047 139.05H284.842L283.631 137.481C283.631 137.481 283.82 137.481 283.858 137.481C284.009 137.378 284.125 137.232 284.193 137.061C284.26 136.891 284.275 136.704 284.237 136.524C284.316 136.3 284.321 136.057 284.253 135.83C284.185 135.602 284.047 135.403 283.858 135.261C283.57 135.213 283.276 135.213 282.987 135.261L281.473 135.414Z" fill="#10100F"/>
</svg>
