<svg width="327" height="73" viewBox="0 0 327 73" fill="none" xmlns="http://www.w3.org/2000/svg">
<g clip-path="url(#clip0_1268_2515)">
<path d="M36.724 61.2217C37.3303 60.9004 37.2715 60.2805 37.3348 59.7466C38.5339 49.5294 39.1946 39.3032 38.6923 29C38.3394 22.009 37.6878 15.0769 36.0588 8.25791C35.7738 7.06334 35.3394 5.90496 35.009 4.71944C34.4525 2.71039 35.0905 1.0724 36.6968 0.321268C38.3032 -0.429863 40.0407 0.144797 41.2217 1.79186C42.1267 3.09502 42.4977 4.62443 42.8642 6.14479C45.4163 16.6833 45.9864 27.4117 45.914 38.2036C45.9037 46.7541 45.2183 55.2904 43.8642 63.733C43.5868 65.8544 42.9647 67.9162 42.0226 69.8371C39.8688 73.8823 35.9095 74.104 33.5746 70.1674C25.1086 55.8914 16.9638 41.4344 10.0995 26.276C9.71039 25.4163 9.46605 24.466 8.6742 23.7194C8.15384 24.4117 8.34841 25.0769 8.34389 25.6923C8.30317 30.5385 8.21719 35.3891 8.29864 40.2353C8.43891 48.9638 7.57013 57.638 7.00904 66.3303C6.98572 66.9868 6.89319 67.6389 6.73302 68.276C6.16288 70.3031 4.47058 71.276 2.59275 70.7058C0.619899 70.1086 -0.380091 68.4932 0.199094 66.5339C0.9638 63.9592 0.787321 61.3212 0.855194 58.7149C1.07239 50.828 1.27148 42.9366 1.08144 35.0452C0.963792 30.1086 1.38914 25.19 1.41176 20.2579C1.41176 16.5611 1.45249 12.8642 1.15837 9.17194C1.06492 8.10678 1.03922 7.03674 1.08144 5.96832C1.17194 3.97284 2.11312 2.70588 3.74207 2.24434C4.55005 2.05392 5.39816 2.13354 6.15655 2.47106C6.91495 2.80858 7.54182 3.38539 7.94117 4.11312C8.7129 5.46814 9.38146 6.87936 9.94117 8.33482C17.1897 25.7911 25.6382 42.7245 35.2262 59.0135C35.5973 59.647 35.9774 60.285 36.3756 60.9049C36.4163 61.0543 36.5837 61.1221 36.724 61.2217Z" fill="#10100F"/>
<path d="M126.887 9.85081C135.937 9.22185 144.959 9.63813 153.991 9.24899C154.812 9.21049 155.634 9.24684 156.448 9.35758C158.258 9.60645 159.407 10.7874 159.434 12.3802C159.462 14.0951 158.281 15.3304 156.29 15.4843C152.277 15.7859 148.262 16.0514 144.244 16.2807C140.471 16.4797 136.692 16.6064 132.932 16.7331C130.914 16.801 131.158 16.9549 131.081 18.7105C130.376 34.4752 130.629 50.249 130.493 66.0227C130.517 67.1702 130.443 68.3177 130.271 69.4526C129.9 71.4797 128.525 72.62 126.733 72.5566C124.941 72.4933 123.484 71.077 123.326 69.0001C123.253 68.0227 123.357 67.0318 123.357 66.0454C123.357 55.7784 123.403 45.5069 123.656 35.2399C123.777 30.3923 124.078 25.5657 124.561 20.7603C124.615 20.1856 124.674 19.611 124.679 19.0408C124.679 17.1992 124.593 17.1042 122.728 17.1721C114.842 17.4481 106.955 17.2264 99.0679 17.2852C98.2468 17.3396 97.423 17.2336 96.6425 16.973C95.9265 16.7516 95.3031 16.3009 94.8684 15.6903C94.4337 15.0798 94.2119 14.3432 94.2371 13.5942C94.2623 12.8451 94.5332 12.1251 95.0079 11.5452C95.4826 10.9652 96.1349 10.5575 96.8642 10.3847C97.9034 10.1553 98.9698 10.0746 100.032 10.1449C108.982 10.1087 117.937 10.3712 126.887 9.85081Z" fill="#10100F"/>
<path d="M295.371 37.3981C296.43 38.4253 297.837 38.6515 299.154 39.0316C302.149 39.9004 305.19 40.6198 308.172 41.5384C312.76 42.9547 317.045 45.0135 320.774 48.0995C322.842 49.7357 324.539 51.7934 325.751 54.1357C328.014 58.6606 327.109 63.2986 323.299 66.647C320.667 68.9348 317.357 70.2955 313.878 70.5203C308.21 71.0204 302.498 70.3804 297.081 68.6379C295.502 68.1702 294.011 67.4439 292.67 66.4886C291.51 65.6877 290.63 64.5436 290.154 63.2171C289.897 62.5608 289.854 61.8399 290.032 61.1578C290.21 60.4757 290.6 59.8676 291.145 59.4207C291.683 58.9568 292.368 58.6972 293.078 58.6873C293.789 58.6773 294.48 58.9178 295.032 59.3664C300.136 63.6244 306.285 63.4388 312.348 63.561C314.342 63.602 316.297 63.0095 317.932 61.8687C320.041 60.4026 320.43 58.7511 319.032 56.5927C317.873 54.8878 316.382 53.4349 314.647 52.3212C311.136 49.923 307.195 48.5248 303.145 47.4026C300.688 46.7239 298.222 46.0904 295.769 45.4117C294.419 45.0417 293.122 44.5004 291.909 43.8008C287.891 41.4524 286.837 37.4343 289.285 33.4795C291.248 30.3102 294.041 27.739 297.362 26.0452C302.399 23.3372 308.177 22.3323 313.833 23.1809C314.568 23.2634 315.283 23.4747 315.946 23.8053C317.588 24.7103 318.38 26.6062 317.787 28.1899C317.647 28.6046 317.422 28.9857 317.127 29.3091C316.832 29.6326 316.473 29.8913 316.073 30.069C315.673 30.2468 315.24 30.3396 314.802 30.3417C314.365 30.3438 313.931 30.2552 313.529 30.0813C310.081 28.7239 306.873 29.7737 303.697 30.7918C300.468 31.8666 297.655 33.9231 295.652 36.6741C295.529 36.9033 295.435 37.1464 295.371 37.3981V37.3981Z" fill="#10100F"/>
<path d="M249.489 53.6017C249.553 49.8203 250.215 46.0728 251.448 42.4976C253.182 37.3521 255.738 32.5217 259.018 28.1945C260.175 26.5912 261.602 25.201 263.235 24.0859C266.344 22.0135 269.606 21.3393 272.91 23.5248C276.213 25.7103 277.624 29.0497 276.842 32.923C274.932 42.389 268.697 49.7329 258.633 51.6741C256.475 52.0949 256.421 52.5791 256.484 54.389C256.728 61.2533 261.837 65.2804 268.511 63.6469C272.258 62.742 275.887 61.4479 278.52 58.2623C279.855 56.656 281.529 56.5022 282.928 57.4117C284.326 58.3212 284.697 59.923 284.063 61.8008C283.588 63.2165 282.686 64.4498 281.48 65.3302C276.955 68.6651 271.919 70.8596 266.267 71.0406C256.891 71.3393 249.796 64.475 249.489 55.0859C249.471 54.5881 249.489 54.0949 249.489 53.6017ZM258.366 44.846C258.608 44.883 258.854 44.883 259.095 44.846C264.923 42.7103 268.023 38.2035 269.747 32.5248C269.888 31.9688 269.913 31.3894 269.819 30.8234C269.647 29.57 268.864 29.1492 267.71 29.6696C266.824 30.1062 266.05 30.741 265.448 31.5248C262.381 35.2697 259.989 39.5202 258.38 44.0859C258.339 44.3373 258.335 44.5933 258.366 44.846V44.846Z" fill="#10100F"/>
<path d="M50.5294 56.8326C50.7421 50.8009 52.7285 45.095 55.4615 39.6109C57.4208 35.6833 59.8642 32.0996 63.1855 29.1765C65.374 27.1646 68.0509 25.7607 70.9502 25.1041C77.5294 23.7149 82.3891 28.5385 80.9864 35.1312C80.1041 39.2625 78 42.7693 75.1041 45.7964C71.1538 49.9548 66.181 52.1312 60.5566 52.8869C57.8054 53.2625 57.7918 53.2263 57.6018 56.0091C57.493 57.0744 57.5342 58.1497 57.724 59.2037C58.3122 61.9955 59.7692 63.1403 62.6109 62.9005C65.9366 62.6199 68.9864 61.3846 71.9864 60.0317C73.8105 59.2582 75.4373 58.0844 76.7466 56.5973C77.0189 56.2867 77.3221 56.0047 77.6516 55.7557C79.0498 54.6968 80.5023 54.6335 81.7466 55.5566C82.3355 56.0102 82.7587 56.645 82.9509 57.363C83.1431 58.081 83.0935 58.8424 82.8099 59.5294C82.1975 61.1602 81.102 62.5652 79.6697 63.5566C74.6949 67.2614 68.7794 69.4941 62.5973 70C56.2624 70.4978 51.3891 66.1131 50.6787 59.7195C50.5882 58.8235 50.5882 57.9186 50.5294 56.8326ZM60.733 46.2353C63.3498 45.7569 65.8084 44.641 67.8914 42.9864C70.696 40.8098 72.7753 37.8345 73.8552 34.4525C74.0724 33.7783 74.4072 32.9457 73.8054 32.3439C73.1312 31.6652 72.2443 32.0091 71.4932 32.267C69.7952 32.8955 68.2674 33.9119 67.0317 35.2353C64.4317 37.9748 62.3484 41.1618 60.8823 44.6425C60.6833 45.0769 60.3575 45.4978 60.733 46.2353V46.2353Z" fill="#10100F"/>
<path d="M172.38 48.9592C172.484 45.543 173.76 40.6515 175.855 35.9457C176.38 34.7647 176.946 33.6334 176.787 32.2036C176.647 30.9276 177.452 29.8461 178.421 29.0362C183.235 24.923 188.62 22.742 195.027 24.3936C201.548 26.0724 204.742 30.7782 206.054 36.9864C207.615 44.3846 205.896 51.3348 202.824 58.0497C201.893 60.155 200.675 62.1209 199.204 63.8914C194.059 69.9321 185.575 70.8823 179.294 66.0497C174.267 62.1809 172.222 56.9185 172.38 48.9592ZM179.344 52.3936C179.244 54.5429 180.348 58.009 183.679 60.5022C185.047 61.5828 186.761 62.1279 188.502 62.0355C190.243 61.943 191.89 61.2194 193.136 59.9999C194.078 59.0817 194.872 58.0223 195.489 56.8597C197.827 52.787 199.212 48.237 199.538 43.552C199.823 40.5936 199.271 37.6147 197.946 34.9547C196.452 32.0859 193.977 30.9095 190.851 31.009C187.724 31.1086 185.014 31.9819 183.466 34.9728C180.937 39.8416 179.557 45.0316 179.344 52.3936V52.3936Z" fill="#10100F"/>
<path d="M209.692 52.3982C209.937 47.4751 210.181 42.5566 211.077 37.6923C212.24 31.3575 215.701 26.905 221.71 24.5701C226.864 22.5566 231.919 23.8914 235.498 28.1177C237.583 30.6704 239.145 33.6086 240.095 36.7647C242.267 43.4163 242.855 50.2443 242.33 57.1991C242.122 59.9819 241.914 62.7692 241.878 65.5566C241.878 68.1041 240.833 69.5973 238.71 69.6742C238.196 69.688 237.683 69.5997 237.203 69.4144C236.723 69.229 236.284 68.9503 235.912 68.5943C235.54 68.2384 235.242 67.8122 235.036 67.3405C234.83 66.8688 234.719 66.3609 234.71 65.8462C234.692 64.1218 234.775 62.3978 234.959 60.6833C235.331 56.7566 235.425 52.8086 235.24 48.8688C235.033 44.4282 233.989 40.0666 232.163 36.0136C231.579 34.6506 230.758 33.402 229.738 32.3258C228.281 30.8597 226.57 30.3348 224.566 31.0407C221.398 32.1493 219.262 34.2082 218.366 37.5068C217.561 40.4525 217.29 43.4887 217.081 46.5158C216.747 51.4299 216.231 56.3394 216.421 61.276C216.428 62.7527 216.527 64.2276 216.715 65.6923C217.063 67.8642 216.163 69.3122 214.452 69.7195C212.588 70.1358 211.1 69.1222 210.548 66.8914C209.805 63.9231 209.887 60.8597 209.697 57.8416C209.602 56.0181 209.692 54.2081 209.692 52.3982Z" fill="#10100F"/>
<path d="M116.086 36.6516C115.955 43.5792 115.371 50.4389 112.688 56.9412C111.258 60.4118 109.294 63.5068 106.425 65.991C103.923 68.1403 101.077 69.6109 97.7104 69.4932C93.4072 69.3349 90.2081 67.2308 88.2489 63.3937C85.2637 57.6659 84.0926 51.1651 84.8914 44.7557C85.4881 40.2753 86.4583 35.8527 87.7918 31.534C87.9978 30.5615 88.3929 29.639 88.9547 28.819C90.0362 27.4616 91.4706 26.9819 92.8507 27.5792C94.3891 28.2489 95.086 29.6516 94.5204 31.4661C93.559 34.6932 92.8227 37.9832 92.3167 41.3122C91.4615 46.4751 91.362 51.6154 93.0498 56.6652C93.4061 57.8455 93.887 58.9847 94.4842 60.0634C95.8869 62.4344 97.9321 63.0227 100.33 61.6652C102.394 60.4978 103.837 58.7195 104.982 56.6878C106.905 53.267 107.824 49.5339 108.394 45.6923C109.158 40.5475 109.059 35.371 108.964 30.1901C108.919 29.4517 108.919 28.7113 108.964 27.9729C109.163 26.1222 110.407 24.8598 112.095 24.715C113.946 24.5566 115.394 25.6199 115.824 27.5611C115.997 28.3656 116.085 29.1861 116.086 30.0091C116.122 32.2036 116.086 34.4254 116.086 36.6516Z" fill="#10100F"/>
<path d="M148.905 47.8416C148.94 53.7584 148.576 59.6708 147.814 65.5385C147.711 66.6004 147.495 67.6485 147.172 68.6652C146.48 70.6335 144.593 71.5838 142.882 70.9684C142.037 70.6243 141.358 69.9653 140.989 69.1304C140.62 68.2955 140.59 67.35 140.905 66.4932C141.398 65.1358 141.443 63.7783 141.556 62.3892C142.235 54.181 141.701 45.9593 141.851 37.7466C141.932 33.4616 143.742 30.7466 147.67 29.3123C154.661 26.7512 161.67 25.7421 168.71 29.1539C169.774 29.6075 170.764 30.2175 171.647 30.9638C173.104 32.3213 173.357 34.1312 172.326 35.6244C171.357 37.0317 169.683 37.4615 167.946 36.7511C167.715 36.6646 167.494 36.5554 167.285 36.4254C161.887 32.9864 156.317 33.8371 150.692 35.7104C149.443 36.1267 148.855 36.8688 148.882 38.2534C148.955 41.4299 148.905 44.638 148.905 47.8416Z" fill="#10100F"/>
</g>
<defs>
<clipPath id="clip0_1268_2515">
<rect width="326.977" height="73" fill="white"/>
</clipPath>
</defs>
</svg>
