<svg width="335" height="80" viewBox="0 0 335 80" fill="none" xmlns="http://www.w3.org/2000/svg">
<g clip-path="url(#clip0_1268_2504)">
<path d="M11.5671 44.0685C14.4852 43.8764 17.5359 43.1537 20.614 42.6186C22.7454 42.2664 24.8539 41.8136 26.9807 41.4294C27.631 41.2934 28.2925 41.2184 28.9566 41.2053C29.6697 41.1624 30.3743 41.3784 30.9407 41.8138C31.5072 42.2491 31.8973 42.8744 32.0393 43.5745C32.2066 44.269 32.1242 45.0002 31.8064 45.6399C31.4886 46.2797 30.9558 46.7872 30.3013 47.0735C29.6249 47.391 28.9122 47.6245 28.1791 47.7687C22.7546 48.9716 17.3301 50.2065 11.8827 51.3042C10.4099 51.5969 9.79704 52.251 9.59579 53.6963C8.95546 58.636 8.22366 63.5573 7.53759 68.497C7.29061 70.3265 7.33634 70.3769 9.10639 70.3906C16.5845 70.4363 24.0535 70.1939 31.5179 69.549C33.9192 69.3386 36.3158 69.1465 38.7171 68.959C40.3545 68.8309 41.9187 68.7989 43.3777 67.6555C44.6858 66.6401 46.2592 67.3261 47.4941 68.2912C49.0035 69.4484 49.7216 70.9806 49.3237 72.865C49.1839 73.5696 48.8204 74.2102 48.2872 74.6915C47.754 75.1728 47.0796 75.469 46.3644 75.5361C44.5669 75.8105 42.7283 75.8562 40.9079 75.9935C31.1383 76.7664 21.3641 77.4662 11.5579 77.6263C9.57176 77.7213 7.58103 77.6294 5.61203 77.3519C1.35384 76.6246 -0.425357 74.3606 0.123496 70.0338C0.580874 66.2467 1.21205 62.4779 1.7609 58.6954C1.91184 57.6297 1.94843 56.5366 2.21828 55.4938C2.59333 53.9433 2.511 52.7952 1.09771 51.5923C0.701126 51.2452 0.399253 50.8031 0.220421 50.3073C0.0415894 49.8116 -0.00833367 49.2785 0.0753409 48.7582C0.159016 48.2378 0.373539 47.7473 0.698778 47.3326C1.02402 46.9179 1.4493 46.5927 1.93471 46.3874C3.51266 45.6419 3.80996 44.5579 4.02035 43.1171C5.35132 33.997 6.72345 24.8906 8.07729 15.7751C8.45692 13.1954 9.87937 11.526 12.4132 10.904C17.1654 9.74225 21.9313 8.6171 26.6972 7.5011C29.5238 6.8379 32.3641 6.22958 35.1952 5.57553C35.9217 5.38939 36.6794 5.35977 37.4181 5.48862C38.0724 5.60572 38.6728 5.92669 39.1337 6.40561C39.5945 6.88453 39.8921 7.49688 39.984 8.15515C40.102 8.81679 39.9955 9.4989 39.6815 10.0931C39.3674 10.6873 38.8637 11.1594 38.2505 11.4345C37.7243 11.6745 37.1738 11.8569 36.6085 11.9788C30.0223 13.6848 23.4406 15.4137 16.8407 17.0603C15.5326 17.385 14.9608 17.9293 14.7596 19.3472C13.6299 27.3193 12.3721 35.2731 11.1646 43.2315C11.1254 43.396 11.144 43.569 11.2173 43.7214C11.2906 43.8738 11.4141 43.9964 11.5671 44.0685V44.0685Z" fill="#10100F"/>
<path d="M321.121 75.9843C318.037 75.9394 314.989 75.319 312.133 74.1548C308.118 72.547 304.353 70.3722 300.955 67.6966C299.484 66.5997 298.25 65.2166 297.328 63.6305C296.581 62.4189 296.24 61.0012 296.354 59.5827C296.403 58.8708 296.673 58.1919 297.126 57.6409C297.579 57.0899 298.194 56.6942 298.883 56.5091C299.574 56.3137 300.312 56.3637 300.97 56.6505C301.629 56.9373 302.168 57.4433 302.496 58.0825C305.945 64.4309 312.101 66.6355 318.427 68.529C320.123 68.9856 321.905 69.0201 323.618 68.6297C326.669 68.0122 328.013 66.2056 327.734 63.1183C327.639 61.577 327.184 60.0796 326.405 58.7465C325.625 57.4135 324.544 56.2821 323.247 55.4435C320.503 53.5728 317.352 52.8501 314.127 52.3653C311.654 52.0487 309.239 51.385 306.951 50.394C305.429 49.7293 304.072 48.7377 302.976 47.4896C300.625 44.7454 299.958 41.6215 301.261 38.2003C302.441 35.0392 304.81 32.4641 307.861 31.024C313.853 28.0922 320.146 27.8224 326.577 29.2402C327.398 29.3977 328.156 29.7865 328.763 30.3608C329.925 31.486 330.277 32.9267 329.678 34.2074C329.382 34.9075 328.835 35.4718 328.145 35.7899C327.455 36.108 326.67 36.1569 325.946 35.9271C324.434 35.4938 322.875 35.2421 321.304 35.177C318.029 35.1084 314.836 35.5155 311.845 36.9517C310.542 37.5138 309.411 38.41 308.566 39.5496C307.353 41.2968 307.651 42.6049 309.48 43.666C310.574 44.2662 311.762 44.6775 312.993 44.8826C314.79 45.221 316.588 45.5275 318.381 45.8751C321.738 46.5115 324.918 47.8675 327.702 49.8497C332.111 52.9873 334.421 57.3736 334.906 62.6563C335.528 69.4301 331.128 74.7722 324.318 75.7236C323.284 75.8837 322.186 75.9065 321.121 75.9843Z" fill="#10100F"/>
<path d="M141.17 53.3715C141.17 42.7923 141.805 33.2469 142.501 23.738C142.501 23.4864 142.533 23.2394 142.574 22.9925C142.761 21.785 142.254 21.3413 141.046 21.4419C137.982 21.7026 134.913 21.8993 131.853 22.128C127.714 22.4619 123.574 22.8278 119.44 23.1983C118.526 23.2819 117.605 23.1713 116.737 22.8735C116.017 22.6469 115.39 22.1925 114.95 21.5788C114.51 20.9652 114.282 20.2253 114.299 19.4706C114.317 18.7168 114.582 17.9897 115.053 17.4007C115.524 16.8118 116.175 16.3933 116.906 16.2095C117.388 16.0902 117.882 16.0212 118.379 16.0037C126.579 15.4 134.776 14.7734 142.981 14.2199C151.099 13.6711 159.222 13.1497 167.364 12.9393C167.778 12.9118 168.194 12.9118 168.608 12.9393C170.291 13.1314 171.448 14.2565 171.567 15.7888C171.686 17.2386 170.858 18.4095 169.335 18.9904C168.46 19.2548 167.551 19.3889 166.637 19.3883C161.258 19.8731 155.888 20.4083 150.505 20.8245C149.21 20.9251 149.064 21.57 149.041 22.5945C148.954 26.5006 148.813 30.402 148.707 34.3034C148.366 46.9209 148.032 59.5415 147.706 72.1652C147.729 73.2529 147.364 74.3135 146.677 75.1564C146.261 75.6841 145.696 76.0739 145.056 76.2747C144.415 76.4755 143.728 76.4779 143.086 76.2816C142.474 76.1397 141.916 75.8244 141.479 75.3733C141.042 74.9222 140.744 74.3547 140.621 73.7386C140.452 72.8337 140.42 71.9087 140.525 70.9943C140.758 64.806 140.982 58.581 141.17 53.3715Z" fill="#10100F"/>
<path d="M222.935 50.3618C222.652 56.4266 221.197 62.4 217.406 67.6232C214.016 72.2885 209.369 74.9413 203.721 75.8881C200.194 76.4827 197.057 75.545 194.642 72.9425C189.016 66.8823 186.189 59.9256 188.275 51.5235C189.135 48.0566 190.365 44.7086 191.344 41.2828C192.483 37.2808 195.031 34.5136 198.383 32.3182C200.33 31.0447 202.483 30.1164 204.745 29.574C210.344 28.2293 215.142 30.0542 218.43 34.8109C221.623 39.3893 222.821 44.5805 222.935 50.3618ZM215.658 51.8528C215.75 46.314 214.972 42.536 212.763 39.1606C210.984 36.4163 209.026 35.6982 205.934 36.677C201.393 38.1223 198.159 40.9535 196.924 45.724C196.325 48.0475 195.689 50.3663 195.172 52.7127C193.992 58.0229 195.36 62.6881 198.722 66.8914C200.162 68.6935 201.846 69.2241 203.981 68.5883C207.531 67.5363 210.412 65.5879 212.361 62.3634C214.31 59.1844 215.449 55.5751 215.677 51.8528H215.658Z" fill="#10100F"/>
<path d="M227.413 59.6878C227.5 53.4949 227.203 47.924 227.948 42.3806C228.335 39.1605 229.22 36.0203 230.573 33.0729C233.043 27.8863 237.384 25.2015 242.881 24.4742C247.634 23.8431 251.238 26.0614 253.859 29.9171C256.264 33.4297 257.252 37.4501 257.861 41.5939C258.908 48.7427 258.318 55.8412 257.184 62.9214C256.754 65.6291 256.315 68.3337 255.866 71.0353C255.788 71.6106 255.667 72.1793 255.505 72.7368C254.846 74.8087 253.246 75.8332 251.389 75.4307C250.483 75.242 249.687 74.7046 249.174 73.9345C248.66 73.1644 248.47 72.2233 248.644 71.3143C249.102 68.0258 249.674 64.7555 250.195 61.4761C251.311 54.4691 251.851 47.4529 250.442 40.4367C250.067 38.2194 249.282 36.0913 248.128 34.1615C246.554 31.6825 244.72 31.0376 241.958 31.9707C240.797 32.3116 239.73 32.9115 238.835 33.7252C237.941 34.5389 237.243 35.5451 236.794 36.668C235.789 39.1302 235.162 41.7299 234.932 44.3793C234.576 48.354 234.548 52.3423 234.447 56.3306C234.31 61.7277 234.036 67.1202 233.812 72.5127C233.802 73.0104 233.739 73.5057 233.624 73.99C233.488 74.6472 233.131 75.238 232.613 75.6641C232.095 76.0902 231.446 76.3258 230.775 76.3318C230.104 76.3662 229.44 76.1807 228.885 75.8034C228.329 75.4261 227.912 74.8777 227.697 74.2415C227.354 73.368 227.427 72.4441 227.427 71.5339C227.408 67.3626 227.413 63.2096 227.413 59.6878Z" fill="#10100F"/>
<path d="M69.8874 57.6113C70.5048 50.6683 72.3801 42.9203 77.5256 36.3112C79.9916 33.0397 83.3278 30.5276 87.1534 29.0618C89.0262 28.3401 91.0466 28.0858 93.0398 28.3208C97.2386 28.8148 100.157 32.085 99.9005 36.3478C99.5987 41.4384 97.0602 45.4588 93.3326 48.7747C91.1143 50.7506 88.3929 51.8163 85.6212 52.7036C83.5079 53.4526 81.3265 53.9934 79.1081 54.3182C77.9327 54.4554 77.3518 54.867 77.2466 56.1477C77.0225 58.8233 76.9493 61.467 77.8961 64.0237C79.0898 67.2254 81.0977 68.4374 84.4594 67.8886C88.2282 67.2711 91.6814 66.0042 94.165 62.8574C94.5868 62.345 95.0851 61.9007 95.6423 61.5402C96.1432 61.158 96.7518 60.9434 97.3816 60.927C98.0114 60.9106 98.6303 61.0931 99.1504 61.4487C99.7099 61.8145 100.142 62.3448 100.388 62.9665C100.634 63.5882 100.681 64.2707 100.523 64.9202C100.122 66.544 99.2595 68.0168 98.039 69.1601C94.8831 72.3617 90.881 73.8665 86.6045 74.795C84.6424 75.2204 82.6665 75.4673 80.6586 75.0603C76.2175 74.1455 73.3177 71.3601 71.5385 67.3352C70.3493 64.6275 69.8645 61.7689 69.8874 57.6113ZM79.8079 47.2059C83.1651 46.4284 86.4445 45.6143 88.992 43.1764C90.6287 41.6241 91.8424 39.6799 92.5184 37.5278C93.113 35.6754 92.5184 35.0717 90.5563 35.4696C90.4001 35.5059 90.2471 35.5548 90.0989 35.616C84.6287 37.6604 81.642 41.8866 79.8079 47.2059Z" fill="#10100F"/>
<path d="M262.27 57.7393C262.296 55.4946 262.604 53.262 263.184 51.0936C264.845 45.0425 267.132 39.2704 271.157 34.3582C273.572 31.4081 276.499 29.1395 280.359 28.3665C287.156 26.9944 291.986 32.0255 290.385 38.7947C289.733 41.2933 288.626 43.6502 287.119 45.7469C284.301 49.9815 280.465 53.4413 275.964 55.8092C274.497 56.5905 272.914 57.131 271.275 57.41C269.446 57.6982 269.446 57.7485 269.565 59.6603C269.858 65.0025 271.518 66.6308 276.883 66.3655C280.871 66.1688 284.791 65.4965 288.29 63.3193C289.795 62.4046 291.35 62.5143 292.434 63.516C293.518 64.5177 293.774 66.0773 293.074 67.6324C292.803 68.2897 292.404 68.8864 291.9 69.3874C291.396 69.8885 290.797 70.2839 290.138 70.5505C284.512 72.7093 278.786 74.3376 272.657 73.2582C267.671 72.38 264.424 69.5991 263.18 64.6046C262.599 62.3615 262.293 60.0562 262.27 57.7393V57.7393ZM270.631 50.6911C271.408 50.4945 271.651 50.4579 271.875 50.371C272.192 50.2565 272.498 50.1142 272.789 49.9456C277.276 47.2244 280.838 43.2142 283.012 38.438C283.224 37.9867 283.378 37.5103 283.469 37.0201C283.725 35.648 283.259 35.1494 281.873 35.3552C280.149 35.6068 278.859 36.6496 277.67 37.8251C274.116 41.324 272.51 45.8201 270.631 50.6911Z" fill="#10100F"/>
<path d="M54.0895 46.8401C54.5469 38.3695 54.2862 29.8851 54.8534 21.4191C55.2467 15.5326 55.7269 9.65532 56.8292 3.85119C56.9232 3.27735 57.0765 2.71478 57.2866 2.17259C57.9589 0.585491 59.3585 -0.228644 60.8267 0.0549307C62.3955 0.379669 63.4292 1.75181 63.3103 3.58133C63.2325 4.82082 62.9718 6.04658 62.8529 7.28608C61.8009 17.2981 61.7049 27.365 61.4808 37.4136C61.2567 48.3906 60.5111 59.3311 60.2733 70.2991C60.2367 72.0417 60.2733 73.7889 60.2093 75.536C60.2131 76.1975 60.1332 76.8568 59.9714 77.4982C59.7743 78.2274 59.341 78.8707 58.7393 79.3275C58.1377 79.7843 57.4017 80.0289 56.6463 80.0229C55.934 80.0148 55.2414 79.7886 54.6616 79.3748C54.0818 78.961 53.6427 78.3795 53.4035 77.7086C53.0549 76.6795 52.9226 75.5895 53.0147 74.5069C53.2114 68.6113 53.3989 62.7112 53.623 56.8156C53.7557 53.4767 53.934 50.1561 54.0895 46.8401Z" fill="#10100F"/>
<path d="M102.38 56.2026C103.13 47.1373 106.423 39.0829 113.064 32.5835C116.266 29.4551 120.313 28.0098 124.709 27.4609C125.369 27.3756 126.036 27.3633 126.698 27.4243C127.321 27.4812 127.909 27.7327 128.381 28.1433C128.852 28.5538 129.182 29.1024 129.324 29.7112C129.5 30.3587 129.454 31.0463 129.193 31.6647C128.933 32.283 128.473 32.7965 127.887 33.1233C127.079 33.5469 126.194 33.805 125.285 33.8825C122.422 34.3124 119.737 35.3278 117.821 37.5415C112.789 43.3365 109.487 49.8907 109.716 57.8262C109.757 59.0688 109.968 60.2998 110.342 61.4853C111.376 64.815 114.646 66.3701 117.875 64.9568C120.92 63.6021 123.661 61.6484 125.934 59.2121C126.568 58.4418 127.321 57.7792 128.166 57.25C129.456 56.5593 130.737 56.5319 131.899 57.4695C132.435 57.8743 132.827 58.4414 133.016 59.0866C133.205 59.7317 133.18 60.4206 132.946 61.0508C132.562 62.2417 131.898 63.3237 131.011 64.2067C128 67.4398 124.336 69.9965 120.263 71.7077C118.726 72.3465 117.076 72.6695 115.411 72.6574C113.747 72.6453 112.101 72.2985 110.574 71.6374C109.046 70.9764 107.667 70.0147 106.518 68.8096C105.37 67.6045 104.476 66.1807 103.889 64.6229C103.464 63.5411 103.148 62.4195 102.947 61.2749C102.677 59.6558 102.572 58.0092 102.38 56.2026Z" fill="#10100F"/>
<path d="M163.997 56.5869C163.824 60.5935 163.664 64.9112 163.435 69.2288C163.366 70.5415 163.321 71.8953 162.589 73.0799C161.674 74.5207 160.22 75.1381 158.756 74.6716C158.071 74.4615 157.485 74.0124 157.104 73.4063C156.723 72.8002 156.572 72.0773 156.679 71.3693C157.503 62.7295 156.716 54.0942 156.679 45.4589C156.679 43.3824 156.57 41.3104 157.219 39.2843C157.89 37.0389 159.188 35.0317 160.96 33.4984C165.868 29.3363 174.375 27.0951 181.744 31.0743C183.166 31.7779 184.392 32.8229 185.311 34.1159C186.647 36.1192 186.619 38.1271 185.252 39.3346C183.884 40.542 181.954 40.4689 180.106 38.7446C177.403 36.2198 174.243 35.8539 170.822 36.4577C170.01 36.6322 169.218 36.8865 168.457 37.2169C164.917 38.6302 163.654 40.4872 163.824 44.2926C163.979 48.2992 164.043 52.2875 163.997 56.5869Z" fill="#10100F"/>
</g>
<defs>
<clipPath id="clip0_1268_2504">
<rect width="334.997" height="80" fill="white"/>
</clipPath>
</defs>
</svg>
