<svg width="258" height="88" viewBox="0 0 258 88" fill="none" xmlns="http://www.w3.org/2000/svg">
<g clip-path="url(#clip0_1268_2534)">
<path d="M17.5866 62.9099C16.0379 63.7489 14.6187 64.5352 13.1803 65.3072C11.5069 66.2484 9.68911 66.9062 7.80081 67.2538C6.85182 67.4231 5.87409 67.3132 4.98639 66.9373C4.47813 66.7321 4.0331 66.3963 3.69632 65.9638C3.35954 65.5314 3.14297 65.0176 3.06852 64.4746C2.99407 63.9315 3.06438 63.3785 3.27235 62.8713C3.48031 62.3642 3.81854 61.921 4.25282 61.5866C4.73225 61.2119 5.27679 60.9291 5.85901 60.7523C9.82414 59.5201 13.2331 57.257 16.6804 55.0419C17.8455 54.2892 18.2338 53.407 18.2578 52.0405C18.3681 46.287 17.8119 40.5335 17.6489 34.8039C17.5913 34.1099 17.5913 33.4123 17.6489 32.7183C17.7236 32.0202 18.0253 31.3658 18.5078 30.8557C18.9902 30.3456 19.6266 30.0078 20.3195 29.8943C21.0528 29.7502 21.8132 29.8549 22.4802 30.1919C23.1472 30.5289 23.6827 31.0788 24.0018 31.7546C24.3678 32.5492 24.5497 33.4162 24.5339 34.2909C24.7305 38.0307 24.9127 41.7705 25.1285 45.5103C25.1764 46.3589 25.0422 47.2459 25.4449 48.0274C26.2408 48.3391 26.6244 47.7302 27.0607 47.3898C33.2742 42.5985 39.2339 37.4869 44.9158 32.0758C47.7542 29.3525 50.4583 26.5237 52.5871 23.1675C56.044 17.6824 55.2146 13.957 49.8063 10.3611C46.0281 7.85353 41.7609 7.15352 37.3403 7.00489C33.6786 6.95419 30.0202 7.24794 26.4134 7.88229C20.7366 8.7597 15.0598 9.67547 9.49331 11.1234C8.09328 11.4878 6.70286 11.8091 5.59051 13.0413C4.24803 14.518 2.59867 14.3934 1.20345 13.0988C-0.191779 11.8043 -0.421919 9.92959 0.82947 8.42408C2.16716 6.81789 4.07542 6.1083 5.96449 5.44664C9.76691 4.16586 13.6493 3.136 17.5866 2.36371C24.8456 0.848614 32.143 -0.388383 39.6082 0.110255C45.1939 0.479439 50.3912 2.0281 54.9509 5.43226C55.368 5.74391 55.7755 6.07473 56.1735 6.41515C62.0277 11.4639 63.2695 17.8598 59.7454 24.7353C57.6886 28.7388 54.783 32.095 51.6474 35.2834C44.0336 42.9835 35.6622 49.811 26.9696 56.2406C25.5312 57.3146 25.0518 58.4173 25.0134 60.129C24.9271 63.8736 24.6538 67.6134 24.3901 71.3484C24.1648 74.4792 23.973 77.6053 24.0401 80.7458C24.1133 81.5289 24.0252 82.3186 23.7812 83.0663C23.5816 83.6511 23.2036 84.1586 22.7004 84.5172C22.1973 84.8759 21.5943 85.0677 20.9764 85.0657C20.3578 85.0957 19.746 84.9253 19.232 84.5797C18.718 84.2342 18.3293 83.732 18.1236 83.1479C17.8376 82.3242 17.7107 81.4537 17.7496 80.5827C17.6058 75.9656 17.6825 71.3483 17.8119 66.7312C17.8167 65.5325 18.0325 64.3195 17.5866 62.9099Z" fill="#10100F"/>
<path d="M128.821 24.5338C138.482 23.9585 148.143 24.2557 157.805 24.1646C157.979 24.1551 158.153 24.1551 158.327 24.1646C160.207 24.3708 161.376 25.4496 161.472 27.0414C161.568 28.6332 160.379 30.1627 158.437 30.3113C154.794 30.5798 151.14 30.7093 147.487 30.8387C143.833 30.9682 140.175 31.0065 136.521 31.1312C134.349 31.2031 134.378 31.2463 134.306 33.2744C133.98 42.5807 133.827 51.8918 133.659 61.2029C133.586 67.9919 133.127 74.7713 132.283 81.508C132.212 82.1974 132.063 82.8763 131.837 83.5313C131.175 85.2286 129.679 86.0485 128.131 85.6554C126.438 85.2286 125.029 83.3396 125.537 81.6854C126.587 78.2765 126.376 74.7956 126.457 71.3339C126.755 58.633 126.783 45.9225 127.34 33.2264C127.416 31.4812 127.402 31.4237 125.714 31.4668C117.084 31.6938 108.47 31.9351 99.8714 32.1908C99.3537 32.2426 98.8334 32.2634 98.3132 32.2531C96.5296 32.0853 95.283 30.9682 95.0624 29.3764C94.8419 27.7846 95.6378 26.3894 97.3063 25.675C98.4552 25.2623 99.6729 25.0751 100.893 25.1236C109.334 24.9158 117.774 24.7016 126.213 24.4811C127.076 24.5147 127.944 24.5338 128.821 24.5338Z" fill="#10100F"/>
<path d="M212.568 66.7982C212.242 71.027 211.849 76.1429 211.437 81.2587C211.375 82.0402 211.178 82.8121 211.403 83.5889C212.07 85.8663 209.888 87.9711 207.798 88.0143C205.429 88.067 204.015 86.4512 204.207 83.6608C204.48 79.7532 204.868 75.8552 205.165 71.9524C205.75 64.3769 205.952 56.8254 203.765 49.4178C203.392 47.8943 202.852 46.4167 202.154 45.0116C201.138 43.1608 200.184 42.8588 198.319 43.8704C195.538 45.3657 193.271 47.6627 191.813 50.463C190.385 53.2565 189.509 56.299 189.233 59.4241C188.498 65.9982 188.165 72.6111 188.236 79.2258C188.282 80.0061 188.229 80.7891 188.078 81.556C187.656 83.2389 186.073 84.1163 184.208 83.819C182.506 83.5553 181.332 82.2272 181.552 80.5395C182.209 75.8552 181.672 71.1613 181.792 66.4769C181.931 61.1454 182.362 55.8761 184.041 50.7795C186.145 44.3691 190.379 39.867 196.564 37.2347C202.428 34.7415 207.313 36.7553 209.644 42.7197C211.667 47.8883 212.228 53.3541 212.549 58.8392C212.683 61.1789 212.568 63.5331 212.568 66.7982Z" fill="#10100F"/>
<path d="M86.7342 65.2064C86.5869 63.0317 86.7287 60.8471 87.1562 58.7097C87.487 57.1994 87.8514 55.7179 87.3336 54.1069C86.9596 52.9322 87.4582 51.6665 87.9904 50.5733C90.9535 44.5177 95.7625 40.8307 102.441 39.8142C106.498 39.1957 109.753 40.869 112.342 43.9424C114.998 47.0876 116.379 50.8178 117.305 54.759C119.222 62.9098 117.856 70.49 113.469 77.5669C112.293 79.5674 110.681 81.2766 108.753 82.5667C106.824 83.8569 104.629 84.6947 102.331 85.0177C97.0906 85.8519 92.3775 83.6992 89.7117 79.0915C87.837 75.8552 87.0842 72.288 86.7486 68.6201C86.6288 67.479 86.7342 66.3187 86.7342 65.2064ZM111.239 61.692C111.067 60.3159 110.957 58.657 110.626 57.046C110.27 55.4374 109.81 53.8535 109.25 52.3041C108.694 50.7371 107.815 49.3045 106.67 48.0993C106.341 47.691 105.929 47.3559 105.463 47.1157C104.997 46.8754 104.485 46.7352 103.961 46.7041C101.492 46.7041 99.4447 47.8308 97.5988 49.3411C96.2659 50.4343 94.8227 51.4987 95.2782 53.6179C95.2829 54.0555 95.1649 54.4856 94.9378 54.8597C92.8761 59.4049 93.0535 64.166 93.6864 68.9366C93.9485 71.0189 94.5341 73.0474 95.422 74.949C96.5152 77.2792 98.2988 78.3052 100.854 78.0847C102.073 78.0159 103.26 77.6696 104.324 77.0721C105.389 76.4747 106.303 75.6419 106.996 74.6374C109.71 70.8401 111.009 66.5825 111.239 61.692Z" fill="#10100F"/>
<path d="M175.415 60.431C175.353 65.7626 174.015 70.4996 171.143 74.6901C167.255 80.3765 161.746 82.8409 154.952 82.0786C149.591 81.4841 146.096 78.3388 144.269 73.3285C142.831 69.3537 142.994 65.2975 143.867 61.2413C144.14 59.9659 144.48 58.7049 144.854 57.4583C145.621 54.8884 146.537 52.3617 147.376 49.8158C149.145 44.4506 153.019 40.9122 158.327 39.0759C161.583 37.9539 164.68 38.5293 167.437 40.6725C169.28 42.1434 170.778 44.0011 171.824 46.1143C174.071 50.5601 175.297 55.4511 175.415 60.431ZM168.348 60.9632C168.361 57.3164 167.611 53.7071 166.147 50.3671C165.543 48.9185 164.643 47.612 163.505 46.5315C163.058 46.0512 162.464 45.7317 161.817 45.6225C161.169 45.5133 160.504 45.6204 159.924 45.9273C157.747 46.8394 155.92 48.4259 154.712 50.4534C152.037 55.1467 150.448 60.3795 150.061 65.7674C149.987 67.3358 150.203 68.9044 150.699 70.3942C151.744 73.9518 154.309 75.6299 158.006 75.1888C159.574 75.0623 161.088 74.5574 162.419 73.7173C163.749 72.8773 164.855 71.7271 165.644 70.3654C167.442 67.34 168.492 64.0701 168.348 60.9632V60.9632Z" fill="#10100F"/>
<path d="M70.7107 37.2109C74.6193 37.3922 78.3915 38.7029 81.5705 40.9843C82.9569 41.9076 84.0684 43.1881 84.7876 44.6905C85.9144 47.1501 85.1952 49.931 83.1431 51.1728C80.9759 52.4865 78.3485 51.4413 78.3005 48.9385C78.243 47.0207 77.1882 46.3159 75.8505 45.683C72.758 44.2446 69.5552 43.7028 66.223 44.8583C62.3873 46.1864 60.1194 49.231 60.0907 53.3352C60.0475 59.3428 60.0907 65.3552 59.5345 71.3484C59.3379 73.5156 59.1461 75.6875 58.9064 77.8499C58.8334 78.4551 58.6819 79.0483 58.4557 79.6143C57.7749 81.3404 56.3844 82.1027 54.7495 81.7143C53.2536 81.3595 52.3234 80.1225 52.5056 78.3581C53.3399 70.1066 53.3255 61.8216 53.0858 53.5605C52.846 45.3809 59.4578 37.3212 70.7107 37.2109Z" fill="#10100F"/>
<path d="M224.262 49.9884C225.384 51.0768 226.875 51.3117 228.266 51.7145C231.445 52.635 234.667 53.4022 237.821 54.3755C242.69 55.7838 247.231 58.1453 251.179 61.3228C253.37 63.0579 255.167 65.2379 256.453 67.7188C258.851 72.5134 257.892 77.4279 253.855 80.9759C251.07 83.3949 247.572 84.8377 243.891 85.0849C237.884 85.619 231.831 84.9441 226.089 83.0999C224.415 82.605 222.834 81.8371 221.41 80.8272C220.181 79.9768 219.251 78.7628 218.749 77.356C218.473 76.6617 218.427 75.8977 218.616 75.1751C218.804 74.4525 219.219 73.8089 219.799 73.3381C220.368 72.845 221.093 72.5684 221.846 72.557C222.6 72.5456 223.333 72.8001 223.917 73.2758C229.321 77.7923 235.841 77.5909 242.261 77.7203C244.386 77.7656 246.469 77.1306 248.207 75.908C250.441 74.3545 250.848 72.6045 249.372 70.3223C248.142 68.5141 246.56 66.973 244.721 65.7914C241 63.2503 236.829 61.7687 232.533 60.5797C229.934 59.8605 227.321 59.194 224.723 58.47C223.292 58.0789 221.917 57.5052 220.633 56.7632C216.37 54.2748 215.253 50.022 217.852 45.8267C219.93 42.4688 222.888 39.7443 226.406 37.9492C231.743 35.0798 237.865 34.0151 243.858 34.9142C244.64 35.001 245.399 35.2267 246.102 35.5806C247.837 36.5396 248.676 38.5437 248.053 40.2218C247.901 40.6597 247.661 41.0617 247.348 41.4029C247.034 41.7442 246.654 42.0175 246.231 42.2058C245.807 42.3942 245.35 42.4936 244.886 42.4979C244.423 42.5021 243.963 42.4112 243.537 42.2308C239.888 40.7924 236.489 41.9047 233.123 42.9835C229.701 44.1218 226.72 46.301 224.598 49.2165C224.453 49.4582 224.34 49.7177 224.262 49.9884V49.9884Z" fill="#10100F"/>
</g>
<defs>
<clipPath id="clip0_1268_2534">
<rect width="257.753" height="88" fill="white"/>
</clipPath>
</defs>
</svg>
