<svg width="298" height="88" viewBox="0 0 298 88" fill="none" xmlns="http://www.w3.org/2000/svg">
<g clip-path="url(#clip0_1268_2542)">
<path d="M17.7667 62.8011C15.6356 63.9313 13.9068 64.8891 12.1398 65.7654C10.3727 66.6418 8.63431 67.3026 6.65172 67.2404C6.08453 67.2607 5.52063 67.1463 5.0062 66.9065C4.49176 66.6668 4.04146 66.3086 3.69221 65.8612C2.34655 64.075 3.10799 61.8146 5.50721 60.8712C7.77233 59.9757 10.0614 59.1472 12.1445 57.859C14.1415 56.6283 16.6748 55.7711 17.8481 53.8603C19.0213 51.9496 18.2408 49.445 18.1833 47.199C18.0827 43.2003 17.8433 39.2064 17.6565 35.2269C17.6565 34.7911 17.6086 34.3553 17.6086 33.9243C17.6086 31.5299 18.7532 29.9831 20.6974 29.8059C22.6417 29.6287 24.2699 31.1468 24.4758 33.6083C24.7344 36.6444 24.8542 39.6901 25.0218 42.731C25.1223 44.5316 25.2085 46.3322 25.2947 48.0706C26.2525 48.3244 26.6212 47.7258 27.0618 47.381C33.2696 42.6028 39.2224 37.502 44.8955 32.0998C46.988 30.1297 48.9297 28.0055 50.7044 25.745C51.5688 24.655 52.356 23.5061 53.0605 22.3066C55.6848 17.6374 55.0144 14.448 50.805 11.1725C47.2947 8.44761 43.2194 7.41323 38.8807 7.15463C32.478 6.77152 26.219 7.88252 19.9648 8.98396C16.1844 9.58036 12.4389 10.3797 8.74445 11.3784C7.55977 11.6368 6.47433 12.2302 5.61734 13.088C4.32435 14.4768 2.54289 14.3571 1.21159 13.088C-0.225066 11.7184 -0.392677 9.92258 0.881158 8.42367C2.15499 6.92476 3.96041 6.20164 5.77538 5.55036C10.2961 3.95088 14.97 2.94521 19.6631 1.97786C24.2631 1.01293 28.9268 0.380768 33.6178 0.0862742C39.1489 -0.244157 44.5603 0.330506 49.7275 2.4807C52.3025 3.55699 54.6664 5.08106 56.7096 6.98222C61.848 11.7423 63.0021 17.7524 60.0043 24.0641C58.8983 26.3347 57.5271 28.4662 55.9195 30.4141C52.5715 34.4252 48.9022 38.1569 44.9482 41.5721C39.1633 46.7297 33.1868 51.6527 26.9181 56.2164C25.606 57.1742 25.0026 58.132 25.0026 59.8416C24.9499 67.0632 23.906 74.2417 23.997 81.4776C24.0257 83.6853 22.7519 84.9544 20.9369 84.9687C19.1219 84.9831 17.939 83.7667 17.8145 81.5064C17.5511 76.8133 17.6757 72.1154 17.8145 67.4128C17.7666 66.0384 17.7667 64.6736 17.7667 62.8011Z" fill="#10100F"/>
<path d="M218.64 68.4711C218.381 65.7654 219.382 62.8969 219.406 59.9278C219.406 58.3475 220.843 57.2173 221.389 55.7375C222.793 51.889 224.904 48.3369 227.614 45.2643C230.626 41.8738 234.189 39.3261 238.676 38.2726C241.048 37.6594 243.548 37.7644 245.86 38.5743C250.649 40.3318 252.535 44.7184 250.294 49.3013C248.331 53.3096 245.17 56.3026 241.478 58.7114C237.361 61.3252 232.787 63.1369 227.997 64.051C225.981 64.4628 225.938 64.4389 225.684 66.4837C225.274 69.3378 225.534 72.2483 226.446 74.984C227.744 78.6666 230.195 80.1607 233.926 79.2317C239.462 77.8429 244.409 75.4676 247.172 70.0131C247.483 69.39 247.892 68.8209 248.383 68.3274C248.788 67.8595 249.328 67.5296 249.929 67.3836C250.53 67.2377 251.162 67.283 251.736 67.5133C252.354 67.7368 252.886 68.1507 253.254 68.6954C253.622 69.2401 253.808 69.8876 253.785 70.5447C253.765 71.3288 253.603 72.1028 253.306 72.829C252.357 75.4646 250.712 77.7944 248.546 79.5717C244.439 83.1152 239.438 85.464 234.089 86.3623C228.5 87.3201 223.395 84.5808 220.742 79.3706C219.052 76.0279 218.535 72.4459 218.64 68.4711ZM228.802 56.815C234.29 55.3784 238.997 52.8068 242.584 48.4585C242.918 48.06 243.227 47.6409 243.508 47.2038C244.466 45.6809 244.184 45.0871 242.354 44.9147C240.965 44.8292 239.579 45.1204 238.341 45.7576C233.514 47.9987 230.78 52.0693 228.802 56.815V56.815Z" fill="#10100F"/>
<path d="M128.82 24.404C138.211 23.9825 147.607 24.3321 157.003 24.2316C157.61 24.2121 158.219 24.2554 158.818 24.3609C159.47 24.4574 160.068 24.7751 160.514 25.2607C160.96 25.7464 161.225 26.3704 161.265 27.0283C161.32 27.6846 161.157 28.341 160.802 28.8952C160.446 29.4495 159.916 29.8706 159.296 30.0931C158.132 30.4584 156.914 30.6204 155.695 30.572L136.396 31.1563C134.174 31.2233 134.241 31.2185 134.126 33.4741C133.489 45.8963 133.872 58.3474 133.068 70.7649C132.833 74.4092 132.632 78.0535 132.11 81.6691C132.039 82.2718 131.906 82.8656 131.713 83.441C131.018 85.2464 129.486 86.0317 127.776 85.5193C126.182 85.0404 124.903 83.2638 125.382 81.6882C126.512 78.0296 126.225 74.2847 126.34 70.5685C126.646 58.1175 126.665 45.6952 127.211 33.2633C127.283 31.5633 127.254 31.5346 125.224 31.5872C116.786 31.7884 108.351 31.9975 99.9195 32.2146C99.3118 32.2504 98.7025 32.2504 98.0949 32.2146C96.414 32.0613 95.2599 31.0413 94.9917 29.5376C94.7235 28.0339 95.4036 26.6643 96.8642 25.8694C97.5658 25.5148 98.3385 25.3232 99.1245 25.309C100.686 25.1989 102.247 25.0696 103.813 25.0505C112.142 24.9675 120.478 24.752 128.82 24.404Z" fill="#10100F"/>
<path d="M212.304 66.7852C211.993 70.8654 211.619 75.8841 211.217 80.9219C211.112 81.8666 211.096 82.8189 211.169 83.7665C211.236 84.2853 211.193 84.8123 211.043 85.3135C210.894 85.8148 210.641 86.2792 210.302 86.677C209.962 87.0748 209.543 87.3971 209.071 87.6233C208.6 87.8495 208.086 87.9745 207.563 87.9903C205.389 88.1148 203.785 86.3956 203.948 83.8719C204.216 79.7966 204.652 75.7308 204.953 71.6555C205.509 64.1753 205.7 56.7047 203.517 49.4017C203.142 48.0631 202.678 46.7512 202.128 45.4748C200.979 42.9559 200.011 42.6734 197.66 44.0669C193.633 46.4613 191.229 50.053 189.955 54.497C189.124 57.6968 188.642 60.9771 188.518 64.2807C188.207 69.3138 187.828 74.3373 188.006 79.3991C188.051 80.0925 188 80.7888 187.852 81.4679C187.641 82.2797 187.125 82.9788 186.412 83.4195C185.698 83.8602 184.842 84.0086 184.021 83.8336C182.35 83.5462 181.09 82.1814 181.311 80.5484C181.976 75.6111 181.407 70.6594 181.569 65.703C181.737 60.5502 182.206 55.4548 183.863 50.551C186.023 44.1627 190.309 39.7091 196.511 37.1422C202.123 34.8149 206.974 36.7974 209.268 42.4435C211.361 47.5819 211.921 53.0508 212.261 58.5293C212.429 60.9572 212.304 63.3995 212.304 66.7852Z" fill="#10100F"/>
<path d="M86.525 65.1523C86.4614 62.9761 86.6413 60.7996 87.0613 58.6634C87.4739 57.1654 87.5378 55.5927 87.2481 54.0661C86.8506 52.2224 87.727 50.4505 88.6848 48.9037C91.8837 43.8706 96.3852 40.6621 102.333 39.7762C105.949 39.235 108.994 40.5998 111.499 43.2002C114.554 46.38 116.067 50.3308 117.087 54.5258C119.06 62.6669 117.772 70.2381 113.443 77.3351C110.517 82.124 106.26 84.8345 100.609 85.0691C95.4897 85.2751 91.7066 83.0483 89.3169 78.5467C87.1141 74.3469 86.5106 69.7975 86.525 65.1523ZM93.1719 63.39C93.1719 67.4653 93.6508 71.1575 95.1881 74.6247C96.5481 77.6991 98.66 78.6233 101.955 77.8715C104.507 77.292 106.265 75.7405 107.577 73.5615C110.785 68.2938 111.805 62.6286 110.412 56.5755C109.789 53.8506 109.009 51.1928 107.261 48.9468C106.509 47.989 105.714 47.0313 104.387 46.8301C101.993 46.4805 99.9482 47.4527 98.1284 48.8558C96.5912 50.0387 94.7044 51.0683 95.1449 53.5681C95.1651 54.0059 95.0533 54.4396 94.8241 54.8132C93.4306 57.6146 93.2629 60.6412 93.1719 63.3708V63.39Z" fill="#10100F"/>
<path d="M175.205 60.5073C175.104 65.8469 173.797 70.4968 170.957 74.6057C166.939 80.4289 161.332 82.9096 154.302 81.9278C149.139 81.2047 145.873 78.0968 144.121 73.3079C143.029 70.2643 142.731 66.9928 143.254 63.802C143.733 60.3578 144.657 56.9903 146.003 53.7838C146.298 53.1568 146.526 52.5002 146.683 51.8251C147.798 45.8151 151.567 41.9744 156.897 39.5321C161.245 37.54 165.201 38.4163 168.558 41.826C169.832 43.1383 170.896 44.6388 171.714 46.2748C173.91 50.7044 175.103 55.5641 175.205 60.5073V60.5073ZM168.137 60.5791C168.135 57.8083 167.672 55.0571 166.767 52.4381C166.264 50.7737 165.489 49.2041 164.473 47.7929C162.529 45.2356 161.025 44.9627 158.248 46.6771C156.67 47.6054 155.359 48.925 154.441 50.5082C151.779 55.2058 150.216 60.4448 149.867 65.8325C149.768 67.7484 150.113 69.6614 150.878 71.4211C151.261 72.4931 151.963 73.4219 152.891 74.0821C153.818 74.7424 154.926 75.1023 156.064 75.1133C160.173 75.3623 163.329 73.7676 165.46 70.2526C167.303 67.2213 168.304 63.9409 168.137 60.5791Z" fill="#10100F"/>
<path d="M69.7401 37.2285C73.6794 37.2452 77.5308 38.3938 80.8358 40.5376C82.4896 41.5194 83.821 42.9623 84.6669 44.6895C85.7492 47.084 85.1458 49.6795 83.2302 51.006C81.0465 52.5145 78.3456 51.4849 78.178 48.875C78.0679 47.1606 77.2202 46.3944 75.9224 45.767C72.9342 44.3304 69.855 43.7031 66.5746 44.6991C62.4706 45.9394 60.0282 49.0618 59.9995 53.3574C59.9564 59.3626 59.9995 65.363 59.4392 71.3491C59.2477 73.5137 59.0513 75.6591 58.8119 77.838C58.7317 78.4442 58.5707 79.0369 58.333 79.6003C57.7008 81.1902 56.3456 81.9947 54.885 81.7553C53.3047 81.4775 52.2991 80.1175 52.3901 78.3025C52.505 76.1348 52.6486 73.967 52.821 71.7993C53.2231 65.807 53.2759 59.7964 52.9791 53.798C52.6822 45.2786 59.4536 37.3243 69.7401 37.2285Z" fill="#10100F"/>
<path d="M263.962 49.5837C265.082 50.6708 266.572 50.9102 267.965 51.3125C271.135 52.2319 274.353 52.9934 277.509 53.9655C282.37 55.3764 286.903 57.7365 290.846 60.9093C293.035 62.6411 294.831 64.8187 296.114 67.2977C298.508 72.0865 297.551 76.9951 293.518 80.5389C290.733 82.9601 287.231 84.4002 283.548 84.6381C277.549 85.1674 271.505 84.49 265.772 82.646C264.101 82.1507 262.524 81.3838 261.103 80.376C259.876 79.525 258.946 78.3132 258.44 76.9089C258.168 76.2143 258.123 75.4513 258.311 74.7294C258.499 74.0075 258.912 73.364 259.489 72.8911C260.059 72.4001 260.783 72.1253 261.535 72.1148C262.287 72.1043 263.019 72.3588 263.602 72.8336C269.004 77.3399 275.512 77.1436 281.929 77.2729C284.039 77.3162 286.108 76.6891 287.839 75.4818C290.07 73.9302 290.482 72.1823 289.003 69.9028C287.778 68.0959 286.199 66.5564 284.362 65.3773C280.641 62.8392 276.475 61.3595 272.184 60.1719C269.589 59.4535 266.979 58.7831 264.383 58.0648C262.954 57.6732 261.581 57.1003 260.298 56.3599C256.046 53.8745 254.93 49.622 257.521 45.4365C259.598 42.0823 262.554 39.3612 266.069 37.5684C271.399 34.7025 277.515 33.6391 283.5 34.5371C284.279 34.6245 285.036 34.8499 285.736 35.2028C287.475 36.1605 288.313 38.1623 287.686 39.8384C287.537 40.2773 287.299 40.6806 286.987 41.0228C286.674 41.3651 286.295 41.639 285.871 41.8271C285.448 42.0152 284.99 42.1134 284.527 42.1157C284.063 42.1179 283.604 42.0241 283.179 41.8401C279.53 40.4035 276.135 41.5145 272.773 42.5967C269.355 43.7337 266.378 45.9103 264.258 48.8223C264.13 49.0633 264.03 49.3189 263.962 49.5837Z" fill="#10100F"/>
</g>
<defs>
<clipPath id="clip0_1268_2542">
<rect width="297.412" height="88" fill="white"/>
</clipPath>
</defs>
</svg>
