<svg width="286" height="73" viewBox="0 0 286 73" fill="none" xmlns="http://www.w3.org/2000/svg">
<g clip-path="url(#clip0_1268_2525)">
<path d="M37.0119 61.2516C37.6961 59.0632 37.764 56.7706 37.9634 54.5234C39.3226 39.2999 39.5175 24.1127 36.2825 9.05695C35.9585 7.61354 35.5516 6.19 35.0637 4.79347C34.4067 2.85429 35.0637 1.16885 36.6404 0.362373C38.2171 -0.444107 39.9842 0.0905257 41.1712 1.72161C41.9006 2.82056 42.4071 4.05208 42.6618 5.34624C44.746 13.6104 45.5978 22.0286 45.8651 30.5193C46.2276 42.0682 45.6521 53.5583 43.645 64.9532C43.383 66.5821 42.8871 68.1646 42.1725 69.6517C41.2663 71.4141 40.1382 72.8866 37.9589 72.9954C35.7795 73.1041 34.452 71.8446 33.4281 70.1093C28.9426 62.4387 24.4979 54.7408 20.2888 46.9071C16.5554 39.9433 12.9942 32.8979 9.75473 25.6894C9.49647 25.1095 9.36962 24.4344 8.74437 24.013C8.101 24.38 8.34566 25.0144 8.29129 25.5173C7.97414 30.2021 8.05571 34.896 8.1418 39.5899C8.22571 47.1645 7.91263 54.7382 7.20389 62.2801C7.09062 63.5895 7.04079 64.9079 6.98642 66.2219C6.9818 67.2136 6.77524 68.1941 6.37931 69.1034C6.06247 69.8293 5.48553 70.4103 4.76196 70.7323C4.03838 71.0542 3.22054 71.0938 2.46924 70.8433C0.833632 70.3902 -0.308108 68.9177 -0.00454565 67.3274C1.18252 61.0613 0.969546 54.7091 0.987669 48.4068C1.02392 34.742 1.52685 21.0771 1.06018 7.41227C1.01483 6.75609 1.01483 6.09755 1.06018 5.44137C1.38639 2.51448 4.36309 1.23228 6.75535 2.96304C7.87898 3.77858 8.40004 4.99281 8.92108 6.20253C12.2421 13.9049 15.5133 21.6344 19.147 29.2053C24.2079 39.7439 29.8669 49.9654 35.7297 60.0736C36.0469 60.5267 36.1692 61.2017 37.0119 61.2516Z" fill="#10100F"/>
<path d="M127.061 9.8047C136.271 9.61139 145.483 9.41809 154.699 9.22478C155.439 9.18425 156.181 9.22832 156.91 9.35616C158.682 9.72315 159.737 11.0507 159.629 12.65C159.594 13.4461 159.246 14.1963 158.66 14.7363C158.075 15.2763 157.299 15.5623 156.502 15.5316C153.698 15.586 150.92 15.9122 148.129 16.0844C143.041 16.397 137.944 16.6824 132.843 16.6824C131.61 16.6824 131.275 17.0041 131.225 18.386C130.659 34.6697 130.65 50.9579 130.564 67.246C130.58 67.9863 130.542 68.7268 130.45 69.4616C130.124 71.5185 128.597 72.7781 126.708 72.6331C124.896 72.4881 123.636 71.147 123.536 69.1625C123.473 67.9347 123.559 66.6978 123.568 65.4609C123.613 56.1637 123.618 46.8847 123.718 37.5739C123.777 31.9784 124.171 26.3964 124.624 20.81C124.66 20.3977 124.696 19.9899 124.714 19.5776C124.837 17.1174 124.791 17.1083 122.372 17.1219C114.636 17.1672 106.902 17.1959 99.1698 17.208C98.5118 17.2296 97.8532 17.1871 97.2034 17.0811C96.4291 16.9443 95.725 16.5462 95.2086 15.9532C94.6921 15.3602 94.3945 14.608 94.3654 13.8222C94.3363 13.0364 94.5773 12.2643 95.0484 11.6346C95.5195 11.005 96.1922 10.5558 96.9543 10.362C97.7593 10.2007 98.5806 10.1369 99.4009 10.1717C106.56 10.1717 113.718 10.1717 120.877 10.1173C122.934 10.1173 124.986 9.93156 127.039 9.83189L127.061 9.8047Z" fill="#10100F"/>
<path d="M253.692 38.5027C255.26 39.5901 256.963 39.9254 258.617 40.3603C263.311 41.5972 268.041 42.7254 272.432 44.8911C276.468 46.8711 280.134 49.3313 282.852 53.0103C284.515 55.2757 285.571 57.745 285.385 60.5767C285.172 64.1243 283.319 66.7476 280.474 68.7321C277.538 70.78 274.194 71.65 270.701 71.7678C265.175 72.0127 259.653 71.1944 254.435 69.3574C253.03 68.8725 251.725 68.1355 250.584 67.1826C249.685 66.4531 249.001 65.4931 248.604 64.4052C248.051 62.8104 248.45 61.2881 249.646 60.4181C250.842 59.5482 252.324 59.4032 253.529 60.5223C256.66 63.4311 260.597 63.8615 264.494 64.4188C266.783 64.7126 269.098 64.7642 271.398 64.5729C273.303 64.4961 275.142 63.8542 276.681 62.7288C278.444 61.3968 278.775 59.8971 277.656 57.9806C276.516 56.1574 274.985 54.6099 273.175 53.4498C269.391 50.8355 265.105 49.4128 260.719 48.2212C258.341 47.5779 255.958 46.9345 253.588 46.264C252.317 45.9032 251.105 45.3598 249.991 44.651C246.366 42.3448 245.36 38.5526 247.512 34.8237C249.378 31.6888 252.05 29.1118 255.251 27.3615C260.348 24.4437 265.894 23.5602 271.688 24.0903C272.765 24.1444 273.809 24.4719 274.724 25.0418C275.415 25.5018 275.933 26.1798 276.195 26.9679C276.457 27.7559 276.448 28.6089 276.169 29.3913C275.599 30.8004 273.791 31.8651 272.287 31.2353C268.209 29.5272 264.525 30.9318 260.86 32.3545C257.849 33.5426 255.325 35.7079 253.692 38.5027V38.5027Z" fill="#10100F"/>
<path d="M50.5454 57.1786C50.8489 50.908 52.77 45.0859 55.5791 39.5357C57.5636 35.6166 60.0057 32.0192 63.363 29.1149C66.0815 26.7544 69.1669 25.0372 72.8776 24.9149C78.0699 24.7291 81.6583 28.4262 81.2596 33.6094C80.9016 38.2535 78.5955 42.0458 75.6052 45.3895C71.4731 50.0426 66.0588 52.2355 60.0102 53.0556C58.0212 53.3229 58.0167 53.2957 57.8128 55.1805C57.6116 56.6517 57.6422 58.1453 57.9034 59.6071C58.3564 61.8725 59.7791 63.1864 62.0717 62.9599C67.3183 62.4479 72.1663 60.776 76.2394 57.2692C76.8147 56.6844 77.4196 56.1294 78.0518 55.6064C78.5792 55.201 79.2232 54.9764 79.8883 54.9657C80.5534 54.9551 81.2043 55.1591 81.7444 55.5475C82.8952 56.2996 83.2758 57.4368 83.1036 58.7644C82.9008 59.9058 82.3758 60.9654 81.5903 61.8181C80.3682 63.2703 78.8775 64.4733 77.2 65.3612C73.4615 67.4501 69.4196 68.9421 65.2206 69.7832C63.2012 70.2372 61.105 70.2264 59.0904 69.7515C54.7771 68.6505 52.2037 65.7644 51.0755 61.5463C50.6736 60.1266 50.4947 58.6532 50.5454 57.1786V57.1786ZM60.4361 45.9694C60.6193 46.1133 60.8371 46.2066 61.0677 46.2399C61.2982 46.2733 61.5335 46.2457 61.75 46.1597C67.5856 44.4743 71.5274 40.7228 73.7656 35.1273C73.9539 34.6745 74.0833 34.1994 74.1508 33.7137C74.3275 32.2276 73.7883 31.7609 72.2886 32.1188C70.852 32.4813 69.5216 33.1784 68.4057 34.1531C64.6271 37.3338 62.271 41.4749 60.4361 45.9694Z" fill="#10100F"/>
<path d="M172.523 50.9532C172.733 45.6809 173.985 40.5023 176.207 35.7162C176.682 34.6605 177.135 33.6456 177 32.4178C176.864 31.1899 177.507 30.1524 178.359 29.3685C182.917 25.2183 188.132 23.0708 194.402 24.2397C199.631 25.2093 203.088 28.3582 205.109 33.1382C206.782 37.1933 207.316 41.6283 206.654 45.9648C205.788 52.3442 203.79 58.3157 199.826 63.4582C195.594 68.9449 188.159 70.8071 182.346 67.9119C180.223 66.8936 178.334 65.4444 176.802 63.6565C175.269 61.8687 174.125 59.7814 173.443 57.5274C172.784 55.3998 172.474 53.1798 172.523 50.9532V50.9532ZM179.709 49.5668C179.592 51.0026 179.644 52.4472 179.863 53.871C180.046 55.2169 180.502 56.5112 181.203 57.6744C181.904 58.8376 182.836 59.8453 183.941 60.6355C185.292 61.6663 186.962 62.1897 188.66 62.1144C190.357 62.039 191.975 61.3697 193.229 60.2232C193.961 59.5619 194.594 58.799 195.109 57.9578C197.568 54.0476 199.117 49.6345 199.64 45.0451C200.045 42.1835 199.776 39.2668 198.856 36.5272C197.587 32.9705 195.231 31.0902 191.512 31.0359C188.037 30.9815 185.06 32.0644 183.42 35.5078C181.249 40.0793 179.858 44.8276 179.709 49.5487V49.5668Z" fill="#10100F"/>
<path d="M210.192 54.8633C209.925 48.7789 210.395 42.6845 211.592 36.713C212.811 30.9725 216.241 26.9944 221.605 24.7336C226.97 22.4727 232.284 23.8274 236.004 28.3582C237.598 30.3539 238.863 32.5917 239.751 34.9867C241.45 39.3675 242.429 43.9943 242.651 48.6878C242.852 52.8793 242.748 57.0799 242.338 61.2562C242.193 62.8057 242.202 64.3734 242.193 65.9365C242.193 68.0569 241.228 69.4116 239.475 69.7469C237.902 70.0459 236.022 68.9404 235.329 67.2912C234.903 66.2718 234.98 65.2161 235.048 64.1197C235.315 59.7747 235.859 55.4387 235.732 51.071C235.65 47.0369 234.986 43.0358 233.761 39.1913C233.133 37.0553 232.148 35.0409 230.848 33.2333C228.836 30.5873 226.426 30.0618 223.467 31.6249C222.203 32.2401 221.1 33.1421 220.245 34.2591C219.391 35.3761 218.809 36.6771 218.547 38.0586C218.099 40.1518 217.777 42.2699 217.582 44.4017C217.034 51.6147 216.318 58.8277 217.034 66.077C217.242 68.1611 216.313 69.4977 214.673 69.8466C213.033 70.1955 211.502 69.176 210.89 67.1281C210.456 65.5391 210.232 63.9001 210.224 62.253C210.12 59.8018 210.192 57.3326 210.192 54.8633Z" fill="#10100F"/>
<path d="M116.192 35.6075C116.373 40.8776 115.867 46.1488 114.688 51.2885C113.92 54.7501 112.597 58.0644 110.769 61.1022C108.916 64.088 106.555 66.5799 103.388 68.2065C97.8469 71.0473 91.7575 69.3528 88.6675 63.9475C85.8127 58.8949 84.4741 53.1267 84.8118 47.3332C85.0655 41.6289 86.5517 36.1285 88.1782 30.6825C88.396 29.8847 88.7979 29.1492 89.3517 28.5349C89.8361 27.9682 90.5003 27.5848 91.2334 27.4488C91.9664 27.3127 92.724 27.4322 93.3795 27.7873C93.9919 28.1387 94.4605 28.695 94.7025 29.3582C94.9446 30.0214 94.9446 30.7488 94.7025 31.412C94.067 33.3668 93.5555 35.3597 93.1711 37.379C92.2649 41.579 91.685 45.8063 91.9296 50.1196C92.0902 53.2513 92.8371 56.325 94.1316 59.1811C95.808 62.8511 98.4359 63.4446 101.626 60.9527C103.891 59.1721 105.305 56.7753 106.374 54.1565C108.526 48.8827 109.002 43.3098 109.201 37.7052C109.305 34.9143 109.165 32.1097 109.138 29.3142C109.138 28.9835 109.097 28.6527 109.138 28.3265C109.251 26.2333 110.574 24.7698 112.422 24.6611C114.271 24.5524 115.762 25.9161 116.11 27.9595C116.185 28.4483 116.218 28.9423 116.21 29.4366C116.197 31.4935 116.192 33.5505 116.192 35.6075Z" fill="#10100F"/>
<path d="M149.176 47.3015C148.959 54.9041 148.723 60.8939 147.817 66.8518C147.73 67.669 147.509 68.4664 147.164 69.2124C146.344 70.7981 144.777 71.5638 143.304 71.1289C141.727 70.6758 140.5 68.9994 140.903 67.2958C142.742 59.4938 141.687 51.5831 141.909 43.7358C141.986 41.1034 141.909 38.4755 142.185 35.8477C142.452 33.3603 143.63 31.4166 145.86 30.3609C153.535 26.7363 161.346 25.4631 169.343 29.4185C170.327 29.8434 171.232 30.4317 172.02 31.1583C172.622 31.7291 173.002 32.4937 173.095 33.3176C173.188 34.1415 172.987 34.9717 172.528 35.6619C172.083 36.3134 171.427 36.7909 170.67 37.0131C169.914 37.2353 169.104 37.1885 168.378 36.8807C167.92 36.6988 167.481 36.4758 167.064 36.2147C161.568 32.948 156.008 33.9765 150.422 35.9383C149.371 36.3098 149.149 37.071 149.153 38.0587C149.185 41.6652 149.176 45.2808 149.176 47.3015Z" fill="#10100F"/>
</g>
<defs>
<clipPath id="clip0_1268_2525">
<rect width="285.394" height="73" fill="white"/>
</clipPath>
</defs>
</svg>
