<svg width="300" height="80" viewBox="0 0 300 80" fill="none" xmlns="http://www.w3.org/2000/svg">
<g clip-path="url(#clip0_1268_2483)">
<path d="M11.2619 44.2977C16.3714 43.3828 21.2614 42.4679 26.1605 41.6125C27.1321 41.3989 28.1212 41.2749 29.1154 41.242C29.7894 41.2202 30.4492 41.438 30.9777 41.8567C31.5062 42.2755 31.8691 42.8681 32.0019 43.5292C32.1739 44.1776 32.1267 44.8646 31.8678 45.4834C31.6088 46.1022 31.1526 46.6181 30.5701 46.9508C29.768 47.3927 28.8949 47.6914 27.9902 47.8336C22.5605 49.0183 17.1354 50.2443 11.6874 51.3604C10.4432 51.6166 9.82107 52.1289 9.65182 53.4051C8.97025 58.5054 8.20632 63.5967 7.5156 68.697C7.30061 70.3117 7.38292 70.4032 9.03424 70.4169C16.5132 70.4672 23.9831 70.2248 31.4483 69.5844C33.9307 69.3679 36.4145 69.1621 38.8999 68.9669C40.4506 68.8434 41.9144 68.7931 43.3187 67.7181C44.723 66.6431 46.356 67.3796 47.6551 68.4271C48.339 68.9149 48.8644 69.593 49.1662 70.377C49.4679 71.161 49.5325 72.0163 49.3522 72.8368C49.0137 74.5064 47.7923 75.3938 46.205 75.6225C44.4851 75.8741 42.7332 75.897 40.9904 76.0342C31.2197 76.8164 21.4444 77.5163 11.6371 77.6718C9.72833 77.7656 7.81507 77.6921 5.91917 77.4522C1.23051 76.7112 -0.521452 74.4011 0.141822 69.6759C0.818819 64.8271 1.51411 59.9738 2.25515 55.1342C2.45184 53.8442 2.48386 52.9065 1.28082 51.8956C-0.695281 50.2351 -0.297296 47.55 2.04475 46.3469C2.5638 46.1248 3.0121 45.7648 3.3411 45.306C3.6701 44.8472 3.86721 44.307 3.91104 43.7442C5.24674 34.6276 6.65561 25.5247 7.95013 16.399C8.37554 13.3845 9.81648 11.5273 12.7852 10.8458C19.7381 9.24172 26.6895 7.62851 33.6394 6.00616C34.3668 5.83691 35.0849 5.61734 35.8214 5.52128C37.8661 5.24682 39.5357 6.2303 39.9383 7.89077C40.3957 9.75708 39.3619 11.3398 37.1937 11.9162C30.689 13.6224 24.1935 15.3469 17.6568 16.9113C15.8271 17.3687 14.9122 18.032 14.6378 20.0539C13.604 27.7844 12.3507 35.4921 11.1979 43.209C11.1886 43.573 11.21 43.9372 11.2619 44.2977Z" fill="#10100F"/>
<path d="M284.732 27.949C286.653 27.8438 288.698 28.2692 290.752 28.5391C291.492 28.6466 292.209 28.8802 292.87 29.2298C293.669 29.6031 294.301 30.2583 294.647 31.0696C294.992 31.8809 295.026 32.7912 294.741 33.6257C294.142 35.1764 292.513 35.9861 290.587 35.3594C287.888 34.4857 285.18 34.5955 282.454 34.902C280.039 35.1024 277.71 35.8873 275.666 37.1891C274.198 38.1634 272.633 39.3116 272.944 41.306C273.223 43.1037 275.003 43.5154 276.503 44.014C278.717 44.7596 281.05 44.9288 283.328 45.3863C286.853 46.0392 290.182 47.4879 293.062 49.6221C297.636 53.0482 299.882 57.714 299.969 63.345C300.065 69.685 295.688 74.4743 289.22 75.2931C285.244 75.7944 281.206 75.2814 277.482 73.8018C273.296 72.1719 269.379 69.9205 265.863 67.1234C264.328 65.9713 263.064 64.4975 262.158 62.8052C261.519 61.6288 261.257 60.2841 261.408 58.9536C261.466 58.2851 261.726 57.6502 262.155 57.1337C262.583 56.6171 263.159 56.2435 263.805 56.0627C265.067 55.651 266.398 56.145 267.327 57.3115C267.433 57.4402 267.528 57.5779 267.611 57.7231C271.27 64.2598 277.628 66.547 284.33 68.1937C286.044 68.5966 287.838 68.4998 289.499 67.9147C291.713 67.1599 292.815 65.8059 292.81 63.4959C292.854 61.8681 292.49 60.2552 291.752 58.8037C291.014 57.3522 289.925 56.1081 288.584 55.1844C285.739 53.1168 282.431 52.3758 279.042 51.868C276.568 51.5517 274.153 50.8767 271.874 49.8645C265.255 46.7631 263.69 39.8331 268.338 34.1838C270.534 31.5124 273.429 29.9571 276.691 29.0514C279.301 28.2854 282.012 27.9138 284.732 27.949Z" fill="#10100F"/>
<path d="M141.168 53.382C141.168 42.8383 141.803 33.31 142.494 23.7817C142.494 23.5347 142.531 23.2831 142.567 23.0361C142.741 21.8788 142.339 21.339 141.081 21.4442C138.098 21.7004 135.134 21.8559 132.133 22.0984C127.911 22.4414 123.689 22.8211 119.472 23.2008C118.559 23.2867 117.638 23.1807 116.768 22.8897C116.047 22.6704 115.416 22.2235 114.97 21.6158C114.524 21.0081 114.287 20.2723 114.294 19.5185C114.302 18.7642 114.558 18.0337 115.023 17.4395C115.487 16.8452 116.134 16.4201 116.864 16.2295C117.346 16.1057 117.84 16.0321 118.337 16.01C132.824 14.8481 147.325 13.8463 161.843 13.1007C163.916 12.9955 165.997 12.9315 168.074 12.9452C170.15 12.9589 171.413 14.075 171.568 15.763C171.724 17.4509 170.654 18.8826 168.65 19.1937C166.523 19.5276 164.355 19.6054 162.205 19.8021L151.044 20.8496C149.118 21.0326 149.095 21.0371 149.045 23.0818C148.74 34.6274 148.435 46.1714 148.13 57.7139C148.002 62.613 147.814 67.5121 147.672 72.4111C147.668 73.5023 147.252 74.5515 146.506 75.3478C146.094 75.7913 145.574 76.1193 144.997 76.2992C144.419 76.479 143.805 76.5046 143.215 76.3732C142.624 76.2418 142.079 75.958 141.632 75.5502C141.185 75.1424 140.853 74.6247 140.669 74.0487C140.349 73.079 140.449 72.0818 140.491 71.08C140.756 64.8544 140.975 58.6287 141.168 53.382Z" fill="#10100F"/>
<path d="M222.906 51.1909C222.641 56.4468 221.204 62.3431 217.499 67.5121C214.077 72.2831 209.37 74.9819 203.625 75.915C201.941 76.2432 200.2 76.1198 198.578 75.5575C196.957 74.9951 195.514 74.0137 194.394 72.713C188.855 66.5606 186.16 59.5756 188.361 51.2138C189.23 47.9203 190.392 44.7229 191.297 41.4523C192.638 36.5806 195.981 33.589 200.204 31.3064C201.522 30.6068 202.92 30.0663 204.366 29.6963C210.176 28.1639 215.088 29.9708 218.496 34.9019C221.351 38.9821 222.961 44.5719 222.906 51.1909ZM215.688 50.9348C215.724 45.871 214.631 41.8273 212.691 39.0416C210.898 36.4708 209.032 35.7206 206.031 36.663C201.503 38.0947 198.195 40.8576 196.951 45.6469C196.347 47.9706 195.721 50.2898 195.19 52.6364C193.964 58.0387 195.373 62.7731 198.85 67.0363C200.222 68.7609 201.896 69.232 203.913 68.6419C207.372 67.6355 210.235 65.7967 212.197 62.6953C214.403 59.1619 215.615 55.0991 215.706 50.9348H215.688Z" fill="#10100F"/>
<path d="M227.416 59.8731C227.503 53.492 227.206 47.9205 227.956 42.381C228.343 39.1601 229.23 36.0193 230.586 33.0723C233.056 27.885 237.402 25.2045 242.9 24.4817C247.653 23.8551 251.257 26.0782 253.878 29.9343C256.28 33.4519 257.273 37.4728 257.876 41.6125C258.924 48.7667 258.334 55.8661 257.195 62.9471C256.765 65.6551 256.326 68.36 255.877 71.0619C255.799 71.6357 255.678 72.2029 255.516 72.7589C254.853 74.8311 253.229 75.8512 251.399 75.4395C249.569 75.0278 248.366 73.3948 248.655 71.3226C249.112 68.0337 249.684 64.7631 250.205 61.4833C251.321 54.4755 251.857 47.4585 250.452 40.4415C250.08 38.3091 249.342 36.257 248.27 34.376C246.656 31.6771 244.68 31.0093 241.715 32.0888C240.607 32.4517 239.593 33.0537 238.743 33.852C237.893 34.6503 237.229 35.6256 236.798 36.7088C235.79 39.1718 235.164 41.774 234.941 44.4257C234.575 48.4831 234.552 52.5543 234.447 56.6254C234.314 61.9407 234.044 67.2515 233.816 72.5623C233.8 73.1417 233.709 73.7168 233.546 74.2731C233.394 74.8402 233.068 75.3454 232.615 75.7179C232.161 76.0904 231.602 76.3114 231.016 76.3498C230.394 76.4307 229.762 76.3172 229.207 76.0249C228.651 75.7325 228.2 75.2756 227.915 74.7168C227.389 73.8019 227.43 72.8047 227.43 71.8075L227.416 59.8731Z" fill="#10100F"/>
<path d="M69.8862 57.4213C70.5449 50.5964 72.3884 42.9207 77.4705 36.3795C79.9322 33.1041 83.2589 30.5806 87.0765 29.0926C88.8639 28.3966 90.7877 28.1227 92.6983 28.2921C97.1582 28.6946 100.218 32.0613 99.8754 36.5259C99.4866 41.5896 96.9524 45.615 93.174 48.8765C90.9326 50.816 88.2063 51.8681 85.4297 52.7463C83.3152 53.4913 81.1316 54.0231 78.9113 54.3336C77.7952 54.448 77.3378 54.9374 77.2372 56.049C77.0039 58.6335 76.9215 61.1951 77.7769 63.6881C78.98 67.1828 81.0201 68.4499 84.6384 67.837C88.2978 67.2057 91.6874 65.9432 94.1209 62.883C94.5993 62.3091 95.166 61.815 95.7997 61.4192C96.3142 61.0516 96.935 60.8629 97.5671 60.8819C98.1991 60.9009 98.8075 61.1266 99.299 61.5244C99.8161 61.8836 100.212 62.391 100.435 62.9797C100.658 63.5685 100.697 64.211 100.548 64.8225C100.161 66.4497 99.3088 67.9293 98.096 69.0812C94.9489 72.2832 90.9509 73.8156 86.6602 74.7533C84.7024 75.1833 82.7263 75.444 80.7136 75.0461C76.2766 74.1312 73.3536 71.3866 71.565 67.3704C70.3254 64.6258 69.8313 61.68 69.8862 57.4213ZM79.3642 47.6185C83.1563 46.443 86.4315 45.6242 88.9702 43.1906C90.6019 41.6339 91.8149 39.6909 92.497 37.5413C93.0871 35.6887 92.497 35.0804 90.5392 35.4783C90.3829 35.5142 90.2299 35.5632 90.0818 35.6247C84.6201 37.6648 81.633 41.8961 79.3642 47.6185V47.6185Z" fill="#10100F"/>
<path d="M53.9448 46.7769C54.5211 38.3145 54.2741 29.8245 54.8596 21.3621C55.253 15.4704 55.7333 9.59699 56.8449 3.7922C56.9509 3.13751 57.1416 2.49938 57.4121 1.89385C57.6952 1.23855 58.194 0.699787 58.8255 0.366968C59.457 0.0341497 60.1834 -0.0727075 60.884 0.0641273C61.6262 0.220327 62.285 0.64425 62.7346 1.25505C63.1843 1.86586 63.3934 2.62081 63.3221 3.37592C63.2672 4.61555 63.0156 5.84606 62.8647 7.08112C62.2929 11.7057 62.1008 16.3624 61.9727 21.0099C61.5305 37.4774 60.9709 53.925 60.2939 70.3529C60.2253 72.0134 60.2573 73.6738 60.2299 75.3389C60.2483 75.9189 60.2116 76.4994 60.1201 77.0725C59.9914 77.8603 59.5965 78.5801 59.0014 79.112C58.4062 79.6439 57.6467 79.9557 56.8495 79.9955C55.2164 80.0733 53.8807 79.0806 53.3227 77.3927C53.0508 76.3485 52.9519 75.2669 53.0299 74.1907C53.0894 65.957 53.7115 57.7507 53.9448 49.5261C53.9677 48.6066 53.9448 47.6918 53.9448 46.7769Z" fill="#10100F"/>
<path d="M102.373 56.2182C103.119 47.1611 106.412 39.1012 113.049 32.6011C116.251 29.4677 120.29 28.0268 124.691 27.4733C125.349 27.3819 126.015 27.3681 126.676 27.4321C127.319 27.5027 127.923 27.774 128.402 28.2075C128.882 28.641 129.212 29.2147 129.347 29.8469C129.482 30.4791 129.414 31.1377 129.153 31.7291C128.892 32.3204 128.451 32.8144 127.893 33.1408C127.085 33.5661 126.2 33.8243 125.29 33.9002C122.431 34.3256 119.742 35.3411 117.825 37.5596C112.793 43.3507 109.486 49.9102 109.706 57.8421C109.747 59.0843 109.957 60.3152 110.328 61.5015C111.361 64.8362 114.627 66.396 117.857 64.9917C120.827 63.6752 123.508 61.7867 125.748 59.434C126.389 58.6711 127.123 57.9918 127.934 57.4121C129.306 56.575 130.793 56.607 131.891 57.4807C132.989 58.3544 133.373 59.7679 132.865 61.3003C132.437 62.4763 131.747 63.5399 130.848 64.4108C127.921 67.492 124.404 69.9517 120.505 71.6428C113.671 74.5566 106.234 71.2219 103.722 64.1958C103.35 63.1826 103.075 62.1365 102.899 61.0715C102.652 59.5117 102.551 57.9336 102.373 56.2182Z" fill="#10100F"/>
<path d="M163.998 56.4332C163.829 60.4403 163.669 64.7584 163.444 69.072C163.376 70.3894 163.344 71.7434 162.667 72.951C161.83 74.4422 160.412 75.1101 158.916 74.7258C157.42 74.3416 156.51 73.0562 156.684 71.2997C157.498 62.9104 156.716 54.5211 156.684 46.141C156.684 43.8996 156.487 41.6627 157.141 39.4579C157.804 37.1235 159.143 35.0372 160.988 33.461C165.869 29.3441 174.254 27.1668 181.572 31.0092C183.37 31.9561 184.935 33.1683 185.813 35.0712C186.609 36.782 186.348 38.4058 185.163 39.3984C183.978 40.3911 182.355 40.3911 180.777 39.3436C179.811 38.7032 179.125 37.7151 178.032 37.2394C173.746 35.4097 169.739 36.0592 165.997 38.6345C164.089 39.9474 163.669 41.9875 163.792 44.1603C164.012 48.1445 164.044 52.1288 163.998 56.4332Z" fill="#10100F"/>
</g>
<defs>
<clipPath id="clip0_1268_2483">
<rect width="299.974" height="80" fill="white"/>
</clipPath>
</defs>
</svg>
