<svg width="259" height="100" viewBox="0 0 259 100" fill="none" xmlns="http://www.w3.org/2000/svg">
<g clip-path="url(#clip0_1268_2551)">
<path d="M36.6907 0.206159C41.2905 0.0772153 45.8728 0.823446 50.1939 2.40515C52.6648 3.2098 54.9068 4.59506 56.732 6.44481C57.9738 7.75537 58.9751 9.2279 59.1076 11.1128C59.2402 12.9976 58.4646 14.2787 57.0314 14.7548C55.5981 15.231 53.4138 14.6616 52.9377 13.1007C51.956 9.8611 49.3251 9.09047 46.6598 8.43764C37.9304 6.2015 28.6894 7.15536 20.6008 11.1275C18.5742 12.07 16.7298 13.3627 15.1524 14.9463C14.577 15.5066 14.0515 16.1159 13.5817 16.7673C11.5251 19.7664 12.2123 21.7985 15.6924 22.7458C18.9025 23.6146 22.2255 23.649 25.5093 23.7275C30.5944 23.8944 35.6697 24.076 40.696 24.9399C47.8084 26.1621 54.4986 28.4691 60.4182 32.71C64.6255 35.612 68.0162 39.5469 70.2646 44.1369C76.9156 58.018 68.8755 73.3127 53.674 75.7571C45.1284 77.1266 36.9558 75.6639 29.1071 72.3212C20.4686 68.6362 12.6323 63.3008 6.0374 56.6142C4.05491 54.6774 2.40784 52.4249 1.16333 49.9485C0.201281 48.1196 -0.180533 46.041 0.0687568 43.9896C0.328905 42.0949 1.48238 40.9267 3.1218 40.8187C4.76123 40.7108 6.14049 41.5354 6.47917 43.273C7.46086 48.2796 10.7888 51.583 14.426 54.6606C21.0082 60.2317 28.1304 64.8996 36.5141 67.3931C41.2246 68.8024 46.1604 69.3022 51.0578 68.8657C63.4909 67.7711 69.4301 55.6128 62.627 45.094C59.5592 40.3623 55.1613 37.2405 50.0712 35.0415C44.8633 32.7787 39.3609 31.7872 33.7309 31.2963C28.2236 30.8055 22.6722 31.0509 17.1796 30.3146C14.9599 30.0834 12.7991 29.4584 10.7986 28.4691C5.89018 25.8725 4.03478 21.0033 6.01289 15.7856C7.28909 12.4184 9.66965 9.89546 12.4724 7.76028C16.5709 4.61886 21.2536 2.69475 26.2161 1.45782C29.6344 0.565935 33.1585 0.14483 36.6907 0.206159V0.206159Z" fill="#10100F"/>
<path d="M216.836 38.07C218.485 39.2677 220.179 39.5426 221.803 39.9254C226.565 41.0789 231.35 42.1195 235.984 43.7344C240.618 45.3493 244.883 47.401 248.746 50.3854C252.551 53.2338 255.503 57.0704 257.282 61.4785C260.286 69.1357 257.179 75.6099 249.345 78.1182C245.781 79.2569 242.115 79.3305 238.487 78.8741C229.534 77.8339 220.804 75.3751 212.625 71.5899C210.587 70.6792 208.7 69.4626 207.029 67.9822C205.531 66.6829 204.537 64.8987 204.221 62.9412C203.937 60.9778 204.84 59.3237 206.386 58.8034C207.932 58.2831 209.454 58.8034 210.396 60.595C211.559 62.8087 213.425 64.0751 215.54 65.0567C223.561 68.7668 232.157 71.0808 240.956 71.8991C243.271 72.1522 245.613 71.8649 247.799 71.0598C250.935 69.8572 251.873 67.9184 250.832 64.7328C249.659 61.1349 247.313 58.3518 244.387 56.0743C240.397 52.9329 235.768 51.0676 230.967 49.6491C227.384 48.5889 223.728 47.7888 220.095 46.8856C217.847 46.331 215.604 45.7321 213.557 44.613C209.032 42.1588 208.099 37.7068 211.221 33.5984C212.795 31.6508 214.695 29.9901 216.836 28.69C223.134 24.5865 230.177 22.8833 237.56 22.3483C239.955 22.1715 242.37 22.1912 244.775 22.1666C245.487 22.1331 246.199 22.2127 246.886 22.4022C247.484 22.5845 248.013 22.9447 248.402 23.4349C248.791 23.925 249.022 24.522 249.063 25.1464C249.105 25.7708 248.956 26.3931 248.635 26.9305C248.314 27.4679 247.838 27.895 247.269 28.155C246.189 28.7047 245.016 28.6164 243.862 28.6458C237.309 28.8421 230.904 29.7895 224.861 32.4793C221.911 33.7702 219.148 35.3508 216.836 38.07Z" fill="#10100F"/>
<path d="M86.2613 35.8122C87.4884 35.4588 87.9203 34.7323 88.5093 34.2317C89.7948 33.1239 91.2248 32.1959 92.7601 31.4731C98.7287 28.6998 104.619 30.5601 107.883 36.2981C110.617 41.0986 111.358 46.3997 111.26 51.7843C111.157 57.6745 110.696 63.5302 110.372 69.4008C110.293 70.8291 110.322 72.1348 111.088 73.4944C112.07 75.2565 111.147 77.2837 109.189 78.4323C107.382 79.4926 105.414 79.1735 104.153 77.5979C103.232 76.3699 102.811 74.8387 102.975 73.3128C103.235 68.689 103.519 64.0653 103.789 59.4366C104.069 54.7245 104.393 50.0124 103.539 45.315C103.241 43.5556 102.683 41.8502 101.885 40.2544C100.461 37.4713 98.6109 36.7841 95.7002 37.9376C93.9544 38.641 92.4122 39.7699 91.2139 41.2213C88.1117 44.8106 86.3189 49.3461 86.1287 54.0864C85.8489 59.6035 85.4612 65.1108 85.1029 70.623C85.0695 71.2453 84.9556 71.8607 84.7642 72.4538C84.5798 73.1033 84.1866 73.674 83.6454 74.0777C83.1042 74.4814 82.4451 74.6956 81.77 74.6872C81.1021 74.6676 80.4575 74.4372 79.9285 74.029C79.3995 73.6208 79.0132 73.0557 78.8249 72.4146C78.5267 71.4767 78.4362 70.4851 78.5599 69.5087C79.0507 63.1032 79.0066 56.6879 79.0164 50.2725C79.0426 36.7252 79.0426 23.1778 79.0164 9.63048C79.0164 7.76036 78.8249 5.89024 78.82 4.02012C78.82 1.65915 80.2042 0.063902 82.202 0.00500055C84.0672 -0.0539009 85.5397 1.31556 85.8587 3.544C86.2128 6.37493 86.3687 9.22715 86.3251 12.0798C86.3251 18.9516 86.2956 25.8235 86.2809 32.6659C86.2564 33.6427 86.2613 34.6145 86.2613 35.8122Z" fill="#10100F"/>
<path d="M174.329 57.6449C180.081 54.4053 185.923 51.3572 190.949 47.0132C191.976 46.1603 192.879 45.1692 193.634 44.0681C194.944 42.1047 194.954 40.5782 193.59 38.6344C192.096 36.6198 190.175 34.9604 187.964 33.7751C183.243 31.046 178.04 29.9023 172.694 29.2789C170.304 28.9991 167.904 28.847 165.503 28.6752C164.519 28.6412 163.551 28.4179 162.652 28.0174C161.991 27.7291 161.448 27.2258 161.11 26.5895C160.773 25.9531 160.66 25.2212 160.791 24.5128C160.902 23.7934 161.275 23.1404 161.839 22.68C162.403 22.2195 163.117 21.9841 163.844 22.0193C172.189 22.5102 180.626 22.4169 188.48 26.0148C192.343 27.7818 195.803 30.0741 198.552 33.3431C202.839 38.425 202.975 43.6198 198.959 48.9275C196.78 51.8186 193.967 54.0028 191.017 56.0251C186.14 59.3143 181.069 62.3058 175.831 64.983C174.132 65.8666 173.607 66.9464 173.607 68.7282C173.537 77.4666 172.823 86.188 171.472 94.8215C171.369 96.0686 170.999 97.2789 170.387 98.3703C169.406 99.8772 167.688 100.422 166.205 99.7202C164.723 99.0183 163.663 97.1481 164.212 95.7296C165.94 91.312 165.513 86.6048 165.979 82.0252C166.318 78.6629 166.24 75.2613 166.402 71.8745C166.456 70.7652 166.24 70.2498 164.929 70.3627C163.231 70.5149 161.984 69.6215 161.493 68.0017C161.002 66.3819 161.66 65.0223 162.921 63.9915C163.6 63.4131 164.359 62.9368 165.175 62.5779C166.362 62.087 166.681 61.3017 166.647 60.0844C166.539 55.8091 166.515 51.529 166.47 47.2488C166.424 46.3601 166.443 45.4692 166.529 44.5835C166.804 42.6201 168.095 41.4568 169.896 41.4175C170.754 41.3844 171.594 41.67 172.254 42.2192C172.914 42.7684 173.347 43.5424 173.47 44.3921C173.585 45.1867 173.631 45.9897 173.607 46.7923C173.661 49.9092 173.691 53.0309 173.745 56.1527C173.707 56.4306 173.741 56.7134 173.843 56.9745C173.945 57.2356 174.113 57.4663 174.329 57.6449V57.6449Z" fill="#10100F"/>
<path d="M115.707 53.895C116.556 44.3971 120.125 36.254 127.487 29.9122C129.873 27.8703 132.16 26.1524 135.488 27.3991C144.932 27.296 156.84 34.6538 158.18 48.8147C158.421 51.035 158.245 53.2808 157.66 55.4362C155.377 63.5106 150.572 69.5628 142.934 73.1067C131.944 78.2065 119.28 71.6341 116.38 59.4906C115.918 57.6616 115.692 55.7812 115.707 53.895V53.895ZM151.112 50.513C151.112 42.8362 145.055 35.822 137.437 34.644C135.964 34.4182 134.605 34.4624 133.476 35.6257C132.789 36.3423 131.949 37.0099 130.948 36.9951C129.549 36.9951 128.872 37.8001 128.209 38.7818C125.327 42.992 123.539 47.8537 123.006 52.928C122.684 56.0608 123.417 59.2114 125.087 61.881C127.59 65.9992 132.523 68.3356 136.917 67.5454C144.25 66.2544 151.131 57.9935 151.112 50.5278V50.513Z" fill="#10100F"/>
</g>
<defs>
<clipPath id="clip0_1268_2551">
<rect width="258.386" height="100" fill="white"/>
</clipPath>
</defs>
</svg>
