<svg width="188" height="80" viewBox="0 0 188 80" fill="none" xmlns="http://www.w3.org/2000/svg">
<path d="M9.02183 27.8547V29.3969C9.02183 38.3358 9.19548 47.2748 9.02183 56.2055C8.91433 61.2166 8.25695 66.2236 7.7484 71.2223C7.5975 72.3377 7.26655 73.4213 6.76848 74.4307C6.11935 75.8613 4.86659 76.498 3.29959 76.498C0.818839 76.4732 -0.768841 74.1372 0.430187 71.95C1.16797 70.55 1.53386 68.9839 1.49278 67.4019C1.5796 54.7915 1.69537 42.181 1.67056 29.5664C1.67056 25.0638 1.25709 20.5654 1.0669 16.0628C1.03383 15.3889 1.01317 14.715 1.0049 14.0369C0.984227 12.3045 1.63335 10.9153 3.29545 10.2579C4.06605 9.93478 4.9182 9.85989 5.73335 10.0437C6.54849 10.2274 7.28608 10.6607 7.84349 11.2833C8.59315 12.1217 9.24892 13.0395 9.79914 14.0204C16.8982 25.5228 23.6624 37.2195 29.7609 49.2883C32.7939 55.4145 36.3039 61.2927 40.2586 66.8686C40.6514 67.4185 41.0648 67.9518 41.499 68.4728C41.5775 68.572 41.7594 68.5886 42.1481 68.7415C42.2853 67.8622 42.375 66.9761 42.4168 66.0871C42.3838 56.8546 42.5243 47.6138 42.2101 38.3854C41.929 30.0625 41.1475 21.7562 40.5935 13.4415C40.517 12.6965 40.517 11.9456 40.5935 11.2006C40.7028 10.4339 41.0617 9.72455 41.6147 9.18236C42.1677 8.64017 42.884 8.29533 43.6527 8.20118C44.4214 8.10703 45.1997 8.26884 45.8672 8.66155C46.5347 9.05427 47.0542 9.65598 47.3453 10.3737C47.6004 11.0767 47.7589 11.8111 47.8166 12.5567C49.2274 26.3792 49.9325 40.2646 49.9294 54.1589C49.9583 60.0052 49.5159 65.8556 49.1893 71.6977C49.0901 73.1966 48.7537 74.6703 48.1928 76.0639C46.6755 79.8098 42.7228 80.6615 39.7707 77.8955C38.6016 76.7286 37.5274 75.4705 36.5582 74.133C31.5512 67.6211 27.4373 60.5633 23.5962 53.3196C19.412 45.4266 15.0707 37.6081 10.779 29.7855C10.3945 29.0785 9.95213 28.4128 9.50146 27.7182L9.02183 27.8547Z" fill="#E9EDD8"/>
<path d="M62.7672 46.9481C62.7672 40.7711 62.7217 34.6891 62.7672 28.6071C62.8126 24.1004 62.9987 19.5772 64.0902 15.1863C64.6926 12.7121 65.5489 10.3068 66.6454 8.00864C67.5172 6.26421 68.6822 4.68248 70.0895 3.33243C74.1331 -0.583017 79.5991 -1.04195 84.3662 1.93908C87.6739 4.00637 89.8694 6.9874 91.5149 10.4398C93.5822 14.7852 94.3388 19.4449 94.6944 24.179C94.8557 26.3042 93.7641 27.7016 91.9863 27.9497C90.2084 28.1978 88.8357 27.1228 88.3478 25.0555C88.0088 23.596 87.8848 22.0869 87.5209 20.6356C87.0372 18.7503 86.5989 16.8153 85.7844 15.0664C84.9447 13.2266 83.8598 11.509 82.5594 9.96015C79.2518 6.10259 75.6836 6.52433 73.2732 11.0393C72.4037 12.6942 71.7533 14.4551 71.3382 16.2778C70.8081 18.4663 70.4924 20.7013 70.3955 22.951C70.1515 30.1535 70.0688 37.3642 69.9365 44.5707C69.9365 45.0834 70.0068 45.5961 70.0647 46.3403C71.0363 46.2328 71.9129 46.1873 72.7687 46.0385C76.7586 45.3315 80.7402 44.5707 84.7342 43.8927C85.5394 43.7538 86.3641 43.7749 87.1612 43.9547C87.7562 44.0872 88.2915 44.4107 88.6856 44.8757C89.0798 45.3407 89.3111 45.9219 89.3443 46.5305C89.4528 47.1301 89.3694 47.7486 89.1058 48.298C88.8423 48.8474 88.4121 49.2996 87.8765 49.5901C87.2136 49.9359 86.5029 50.1811 85.7678 50.3178C81.0172 51.4135 76.2583 52.4802 71.5035 53.5634C71.0033 53.6792 70.5154 53.8487 69.9159 54.0265C69.7753 57.3714 69.6265 60.6418 69.5024 63.9495C69.4156 66.2029 69.3784 68.4562 69.275 70.7054C69.1656 71.737 69.4523 72.7716 70.0771 73.5996C71.3837 75.3279 70.8586 77.4779 69.0187 78.9456C67.278 80.3307 65.2438 80.3018 63.6892 78.8712C62.3744 77.6557 61.994 76.0432 61.9361 74.3728C61.8658 72.4254 61.9568 70.4697 62.0188 68.5224C62.1428 64.3878 62.2958 60.2532 62.4323 56.1186C62.4612 55.2131 62.5356 54.3697 61.4855 53.8322C58.8807 52.5009 59.0461 48.7219 61.7707 47.5146C62.1131 47.3443 62.4458 47.1552 62.7672 46.9481V46.9481Z" fill="#E9EDD8"/>
<path d="M125.307 18.9488C124.839 18.8581 124.367 18.7946 123.893 18.7586C117.889 18.7586 111.887 18.7696 105.887 18.7917C104.762 18.7917 103.629 18.8661 102.513 18.7917C100.379 18.6221 98.928 17.0923 98.957 15.1615C98.9618 14.2435 99.3218 13.3631 99.9616 12.7048C100.601 12.0465 101.471 11.6615 102.389 11.6306C106.809 11.4197 111.233 11.3122 115.657 11.2833C119.481 11.2584 123.31 11.3825 127.134 11.4652C133.584 11.6016 140.034 11.767 146.484 11.8786C150.308 11.9531 154.137 11.982 157.966 12.0275C158.412 12.0275 158.867 11.9903 159.314 12.0275C161.116 12.1515 162.377 13.2678 162.567 14.8762C162.758 16.4846 161.741 17.8572 159.996 18.3368C159.125 18.5674 158.229 18.6855 157.329 18.6883C150.205 18.7172 143.077 18.6883 135.949 18.7131H132.265C132.195 19.54 132.108 20.1933 132.083 20.8465C131.633 34.4162 131.256 47.9942 130.702 61.5639C130.504 66.4303 129.913 71.2802 129.433 76.13C129.206 78.4082 127.593 79.8511 125.613 79.7891C123.512 79.7023 122.144 78.0774 122.185 75.6091C122.185 74.41 122.342 73.2152 122.454 72.0203C122.681 69.5395 123.004 67.096 123.157 64.6276C123.463 59.6661 123.702 54.7418 123.938 49.7927C124.407 39.9772 124.863 30.1618 125.307 20.3463C125.327 19.9204 125.307 19.4863 125.307 18.9488Z" fill="#E9EDD8"/>
<path d="M158.392 45.3027C161.67 45.6169 164.961 45.8567 168.228 46.2619C171.963 46.6917 175.599 47.7543 178.978 49.4042C181.645 50.6505 183.944 52.5664 185.651 54.9652C188.868 59.6414 188.545 65.0494 184.7 69.2295C181.599 72.6199 177.671 74.5259 173.226 75.5017C170.057 76.1658 166.788 76.1897 163.609 75.5719C158.764 74.7037 154.1 73.2401 149.891 70.7097C147.926 69.4803 146.097 68.0443 144.437 66.4263C143.776 65.8042 143.253 65.0496 142.904 64.2117C142.554 63.3739 142.385 62.4717 142.407 61.564C142.37 60.9185 142.539 60.2779 142.889 59.7341C143.239 59.1904 143.752 58.7715 144.355 58.5375C144.942 58.2683 145.599 58.1862 146.235 58.3023C146.871 58.4184 147.456 58.7271 147.91 59.1866C148.189 59.4305 148.437 59.7083 148.646 60.0135C150.234 62.5356 152.603 64.0571 155.225 65.2975C158.808 67.0488 162.667 68.1678 166.632 68.6052C170.99 69.0434 175 67.985 178.411 65.1528C181.148 62.8788 181.243 60.2657 178.552 57.9049C177.231 56.8009 175.747 55.9083 174.153 55.2588C170.522 53.7083 166.628 53.2659 162.725 52.9848C160.628 52.8359 158.52 52.778 156.436 52.5258C155.022 52.3868 153.632 52.0643 152.301 51.5666C148.531 50.0533 147.406 46.1916 149.821 42.8839C150.785 41.6391 151.918 40.5343 153.186 39.6011C157.995 35.9213 163.494 33.7589 169.423 32.779C172.598 32.2539 175.831 32.0472 179.048 31.8239C181.115 31.6751 182.401 32.6922 182.67 34.3998C182.939 36.1074 182.017 37.5669 180.189 38.1747C179.396 38.3917 178.58 38.5111 177.758 38.5302C171.598 38.9654 165.604 40.724 160.186 43.6861C159.541 44.0416 158.946 44.4882 158.33 44.8892L158.392 45.3027Z" fill="#E9EDD8"/>
</svg>
