<svg width="80" height="80" viewBox="0 0 80 80" fill="none" xmlns="http://www.w3.org/2000/svg">
<path d="M51.2967 41.5428C50.3433 39.8537 50.0416 37.8739 50.4486 35.9774C51.2776 31.555 51.643 27.0582 51.539 22.5599C51.7347 17.4937 51.2095 12.4254 49.9792 7.50693C49.5019 5.28356 48.4998 3.20659 47.0564 1.44937C46.3976 0.69218 45.6859 -0.375456 44.5425 0.131864C43.2553 0.69976 43.8913 1.91126 44.1488 2.84261C45.2365 6.80362 45.6335 10.9225 45.3224 15.0183C44.9969 20.4678 44.3522 25.8936 43.3916 31.2677C42.6722 34.9552 42.3088 35.4323 38.6818 35.72C32.9423 36.1894 29.0503 39.506 26.8544 44.7382C25.6429 47.6382 25.5294 50.5686 27.7707 53.0673C28.7824 54.2317 30.0929 55.0975 31.5609 55.5712C33.0288 56.045 34.5983 56.1086 36.0998 55.7553C38.3495 55.341 40.4587 54.3671 42.2331 52.9234C42.7404 52.507 43.278 51.8709 44.02 52.2041C44.9438 52.6206 44.7091 53.5595 44.6712 54.3167C44.4553 56.5814 44.0449 58.8234 43.4446 61.0178C42.3542 65.8487 40.0902 70.1799 37.9701 74.5868C36.9403 76.7296 37.4022 78.5317 38.8484 79.4858C40.1508 80.349 41.9377 80.1294 43.5581 78.7967C45.127 77.4726 46.432 75.8645 47.4047 74.0567C51.3951 66.9315 53.0155 59.1779 53.3638 51.144C53.6166 47.8111 52.8987 44.4764 51.2967 41.5428V41.5428ZM35.2517 48.0168C35.1332 48.0248 35.0143 48.0248 34.8958 48.0168C34.1386 47.8578 34.0932 47.3353 34.3204 46.7447C34.9186 45.1773 37.5536 43.2465 38.7424 43.4888C38.9111 43.5133 39.064 43.6015 39.1697 43.7353C39.2753 43.8691 39.3256 44.0383 39.3103 44.2081C39.2724 45.2985 36.592 47.7821 35.2517 48.0168V48.0168Z" fill="#F7F8F1"/>
</svg>
