<svg width="338" height="823" viewBox="0 0 338 823" fill="none" xmlns="http://www.w3.org/2000/svg">
<g clip-path="url(#clip0_1263_2184)">
<path d="M337.46 670.33C337.258 669.785 336.885 669.319 336.396 669.004C335.908 668.688 335.33 668.54 334.75 668.58C328.89 668.34 324.3 665.11 319.64 662.12C314.234 658.466 309.134 654.379 304.39 649.9C293.75 640.32 287.39 628.37 284.69 614.4C283.32 607.25 282.55 599.998 282.39 592.72C281.9 573.96 281.17 555.15 282.93 536.47C285.09 513.55 284.12 490.92 278.78 468.58C273.3 445.66 260.87 427.76 239.48 416.84C236.86 415.51 236.4 413.66 236.96 411.22C237.52 408.78 238.43 406.46 238.88 404.02C242.31 385.26 242.76 366.4 241.39 347.4C238.73 311.4 229.33 277.32 214.39 244.64C201.25 215.9 180.23 195.7 150.13 185.12C130.06 178.07 112.13 181.27 95.96 194.93C85.76 203.54 78.86 214.42 73.69 226.57C64.39 248.46 59.53 271.39 57.35 294.99C54.3323 329.147 53.9779 363.488 56.29 397.7C56.9 407.45 57.98 417.18 61.19 426.49C62.19 429.3 61.7 430.57 58.83 431.56C45.19 436.31 37.42 446.56 33.41 459.88C30.0092 471.496 28.9387 483.669 30.26 495.7C31.774 510.001 35.3232 524.013 40.8 537.31C42.1335 540.497 42.6954 543.954 42.44 547.4C41.54 560 40.98 572.63 39.93 585.22C38.59 601.32 33.93 616.31 24.58 629.76C17.58 639.82 11.03 650.17 4.31004 660.42C2.95004 662.5 1.70003 664.66 0.460031 666.81C-0.149969 667.88 -0.279973 669.04 0.830027 669.9C1.22681 670.178 1.70904 670.308 2.1919 670.266C2.67477 670.224 3.12734 670.013 3.47001 669.67C5.58001 668.02 7.73001 666.41 9.69001 664.59C18.5772 656.15 26.8735 647.109 34.52 637.53C43.1649 626.933 48.9704 614.31 51.39 600.85C52.6413 594.268 53.4896 587.616 53.93 580.93C54.16 577.54 54 574.09 54.98 570.86C55.4137 570.836 55.8434 570.954 56.2042 571.195C56.5651 571.437 56.8374 571.79 56.98 572.2C61.69 581.2 66.33 590.2 71.1 599.2C72.2189 601.437 72.5231 603.993 71.96 606.43C70.3967 616.07 68.0557 625.568 64.96 634.83C58.87 652.66 50.52 669.45 41.41 685.83C29.34 707.59 17.05 729.23 4.87004 750.94C4.03004 752.44 3.29002 754 2.60002 755.57C2.3715 755.996 2.29649 756.488 2.38752 756.964C2.47855 757.439 2.73008 757.868 3.10002 758.18C3.46433 758.498 3.93149 758.673 4.41502 758.673C4.89855 758.673 5.3657 758.498 5.73002 758.18C7.79922 756.778 9.6637 755.095 11.27 753.18C17.52 746.41 22.93 738.98 28.35 731.56C29.6286 729.653 31.0888 727.875 32.71 726.25C54.26 706.07 74.52 684.7 92.56 661.25C93.3 660.25 93.69 658.67 95.72 659.25C97.46 663.84 98.24 668.75 99.19 673.61C101.573 685.454 102.553 697.537 102.11 709.61C101.97 712.91 100.83 714.93 97.62 716.04C94.41 717.15 91.25 718.66 88.11 720.04C76.2 725.33 64.5 731.04 53.66 738.33C51.9328 739.532 50.3043 740.869 48.79 742.33C47.69 743.33 46.47 744.62 47.28 746.33C48.09 748.04 49.88 747.64 51.33 747.33C53.57 746.83 55.77 746.16 57.97 745.51C69.55 742.09 80.88 737.98 92.08 733.51C93.9 732.78 95.7 731.51 98.33 732.14C96.3671 740.631 93.2125 748.802 88.96 756.41C81.8012 769.518 73.9708 782.249 65.5 794.55C63.5 797.55 61.5 800.55 58.17 802.48C56.17 803.62 56.38 805.74 58.3 807.08C60.63 808.71 63.07 808.23 65.42 807.2C69.5734 805.215 73.3075 802.452 76.42 799.06C96.03 779.23 109.26 755.93 114.67 728.41C114.83 727.272 115.067 726.146 115.38 725.04C115.709 724.127 116.306 723.334 117.093 722.765C117.88 722.196 118.82 721.877 119.79 721.85C121.85 721.69 121.71 723.93 122.14 725.25C124.397 732.369 127.209 739.3 130.55 745.98C131.673 748.202 131.881 750.776 131.13 753.15C128.78 762.42 126.6 771.74 124.48 781.07C123.58 784.99 122.94 788.96 122.25 792.92C122.04 794.1 122.25 795.32 123.59 795.72C124.064 795.827 124.56 795.772 124.999 795.563C125.437 795.355 125.794 795.005 126.01 794.57C126.979 793.145 127.854 791.658 128.63 790.12C131.69 783.53 134.63 776.88 137.69 770.28C138.47 768.58 138.69 766.53 140.53 765.42C142.53 766.54 143.24 768.61 144.43 770.31C147.86 775.17 151.37 779.95 156.03 783.74C157.5 784.95 159.03 786.26 160.95 786.58C162.61 786.86 163.56 785.94 163.25 784.25C163.015 783.325 162.601 782.455 162.03 781.69C156.53 773.33 152.73 764.11 148.55 755.08C147.643 753.305 147.137 751.352 147.066 749.36C146.995 747.368 147.362 745.385 148.14 743.55C152.478 732.696 155.598 721.393 157.44 709.85C157.365 709.323 157.335 708.792 157.35 708.26C157.41 707.56 157.56 706.63 158.43 706.72C159.62 706.84 159.43 707.88 159.35 708.72C162.87 728.98 169.51 748.37 176.04 767.79C177.247 770.81 177.333 774.163 176.28 777.24C174.723 781.767 173.733 786.47 173.33 791.24C173.18 792.73 172.73 794.58 174.65 795.18C176.39 795.72 177.35 794.18 178.36 793.02C179.82 791.37 180.5 789.02 182.7 787.55C183.83 789.25 184.7 790.66 185.7 792.03C185.944 792.446 186.313 792.775 186.755 792.969C187.197 793.163 187.689 793.212 188.16 793.11C188.63 792.979 189.039 792.689 189.318 792.29C189.597 791.89 189.729 791.406 189.69 790.92C189.811 787.48 189.71 784.037 189.39 780.61C188.81 776.38 189.91 772.8 191.85 769.12C197.47 758.45 202.96 747.71 206.79 736.21C207.1 735.3 207.09 733.87 208.86 733.92C209.261 734.55 209.596 735.221 209.86 735.92C212.941 748.369 217.381 760.441 223.1 771.92C224.25 774.2 223.72 775.83 222.32 777.67C219.962 780.692 217.152 783.333 213.99 785.5C212.67 786.44 210.39 787.35 211.57 789.37C212.57 791.13 214.71 790.08 216.31 789.63C219.603 788.603 222.702 787.035 225.48 784.99C228.54 782.86 228.6 782.94 230.67 786.14C231.19 786.94 231.67 787.8 232.13 788.61C237.88 797.9 243.72 807.12 250.84 815.44C253.21 818.21 255.72 820.86 259.2 822.29C260.45 822.8 261.75 823.29 262.96 822.13C264.17 820.97 263.75 819.72 263.17 818.46C261.17 814.1 259.26 809.72 257.17 805.39C252.52 795.52 247.76 785.7 243.17 775.82C241.66 772.59 240.04 769.63 242.83 765.82C258.61 744.14 265.83 719.82 264.39 692.98C264.32 691.77 263.73 690.33 265.09 689.29C267.15 689.9 267.96 691.77 269.16 693.17C276.093 701.371 284.063 708.635 292.87 714.78C296.257 717.295 300.029 719.243 304.04 720.55C306.232 721.285 308.581 721.412 310.84 720.92C313.84 720.17 314.43 718.04 312.21 715.92C310.54 714.35 308.48 713.18 306.89 711.55C290.89 695.26 275.79 678.25 262.89 659.35C261.211 657.007 260.067 654.324 259.54 651.49C258.017 642.621 255.923 633.859 253.27 625.26C252.888 624.089 252.757 622.85 252.887 621.625C253.016 620.4 253.402 619.216 254.02 618.15C258.23 609.99 262.26 601.73 266.38 593.52C266.79 592.71 267.02 591.67 268.86 591.52C269.09 594.88 269.42 598.23 269.55 601.59C269.78 608.484 270.657 615.34 272.17 622.07C277.79 646.59 292.05 663.88 315.44 673.44C318.809 674.833 322.363 675.725 325.99 676.09C329.449 676.518 332.944 675.649 335.8 673.65C336.96 672.86 337.94 671.87 337.46 670.33ZM231.53 425.91C232.21 424.3 234.16 425.81 235.42 426.44C236.766 426.957 237.904 427.903 238.66 429.13C236.92 429.96 235.79 429.05 234.66 428.55C233.39 427.97 230.55 428.25 231.53 425.91ZM75.14 354.63C73.42 354.63 71.7 354.75 69.98 354.77C69.24 354.77 68.4 354.71 68.1 353.84C67.9144 353.388 67.9154 352.88 68.1028 352.429C68.2902 351.977 68.6487 351.618 69.1 351.43C71.32 350.32 73.62 349.36 75.82 348.21C76.82 347.71 78.08 347.09 77.54 345.67C77 344.25 75.69 344.58 74.54 344.67C73.02 344.86 71.54 345.15 70 345.3C69.25 345.37 68.4 345.3 68.11 344.4C68.0294 344.174 67.9956 343.934 68.0108 343.694C68.026 343.454 68.0898 343.22 68.1983 343.006C68.3068 342.792 68.4578 342.602 68.642 342.448C68.8263 342.294 69.04 342.179 69.27 342.11C71.02 341.34 72.8 340.64 74.57 339.92C75.66 339.47 76.86 338.92 76.77 337.61C76.68 336.3 75.27 336.1 74.15 335.96C72.82 335.8 71.48 335.76 70.15 335.58C69.2 335.45 68.23 335.17 68.02 334.02C67.9429 333.547 68.026 333.062 68.2561 332.642C68.4862 332.221 68.8501 331.89 69.29 331.7C71.11 330.64 72.95 329.61 74.7 328.46C75.7 327.8 76.47 326.76 75.88 325.55C75.4 324.55 74.26 324.78 73.31 324.91C72.56 325.02 71.8 325.15 71.04 325.24C69.84 325.37 68.57 325.24 68.25 323.91C67.93 322.58 69.13 322 70.25 321.56C70.9732 321.33 71.6502 320.975 72.25 320.51C73.59 319.26 76.15 318.51 75.54 316.3C74.93 314.09 72.6 315.39 71 315.3C70.27 315.24 69.44 315.42 69 313.98C70.84 312.74 72.85 311.44 74.8 310.06C75.2255 309.831 75.5621 309.467 75.756 309.025C75.95 308.582 75.9901 308.088 75.87 307.62C75.5 306.47 74.46 306.57 73.5 306.52C72.07 306.46 70.5 307.14 69.24 305.6C69.74 303.52 71.89 303.69 73.14 302.7C74.14 301.89 75.69 301.41 75.31 299.7C75 298.33 73.62 298.38 72.56 298.02C72.101 297.822 71.665 297.573 71.26 297.28C70.94 296.14 71.78 295.82 72.26 295.28C75.18 292.28 75.19 292.28 71.07 290.41C75.18 285.28 75.18 285.28 71.6 282.86C72.92 280.61 75.53 279.05 74 275.42C73 273.16 75.25 270.42 75.33 267.5C75.77 251.37 80.84 236.33 88.07 222.01C91.6941 214.801 96.6125 208.32 102.58 202.89C114.27 192.25 127.74 188.94 143.03 193.24C170.39 201 189.39 218.61 201.69 243.72C213.363 267.256 221.562 292.361 226.03 318.25C231.048 346.764 232.262 375.817 229.64 404.65C229.4 406.879 228.561 409.001 227.21 410.79C217.88 424.46 203.63 430.79 188.94 435.7C158.803 446.051 126.154 446.541 95.72 437.1C91.54 435.84 87.32 434.64 83.72 432.23C83.89 430.07 85.38 430.6 86.33 430.45C89.9367 429.948 93.4843 429.087 96.9201 427.88C98.3801 427.35 100.92 427.2 100.41 424.97C100.03 423.14 97.85 423.79 96.41 423.84C94.31 423.91 92.21 424.18 90.12 424.36C85.9143 424.73 81.6774 424.49 77.54 423.65C76.6 423.45 75.65 423.26 75.36 421.8C76.97 420.34 79.19 420.8 81.11 420.48C85.6413 419.687 90.0877 418.468 94.39 416.84C95.32 416.47 96.18 415.84 96.01 414.76C95.84 413.68 94.78 413.37 93.8 413.38C89.2 413.38 84.61 413.5 80.02 413.56C79.2591 413.645 78.491 413.645 77.73 413.56C75.84 413.12 72.44 414.56 72.38 411.99C72.31 409.25 75.68 410.68 77.5 410.4C81.28 409.82 85.16 409.77 88.64 407.94C89.64 407.4 90.64 406.68 90.2 405.29C89.82 404.15 88.69 404.29 87.77 404.23C83 403.92 78.22 403.66 73.44 403.36C72.1 403.28 70.5 403.22 70.58 401.36C70.64 399.93 72.03 399.79 73.2 399.73C77.2078 399.367 81.1511 398.483 84.93 397.1C86.32 396.66 88.46 396.29 88.01 394.4C87.56 392.51 85.47 393.18 84.01 393.17C80.38 393.17 76.74 393.27 73.11 393.17C71.88 393.17 70.11 393.26 70.11 391.38C70.11 389.84 71.75 390.13 72.79 389.95C76.56 389.3 80.35 388.69 83.85 387.04C84.85 386.56 86.06 386.04 85.61 384.55C85.25 383.4 84.09 383.55 83.17 383.55C79.34 383.6 75.52 383.73 71.69 383.76C70.54 383.76 69.26 383.59 69.11 382.11C68.96 380.63 70.03 380.22 71.2 379.86C73.95 379.03 76.72 378.24 79.39 377.21C80.69 376.71 82.86 376.31 82.23 374.32C81.6 372.33 79.61 373.32 78.18 373.32C75.7 373.32 73.18 373.58 70.73 373.67C70.3462 373.723 69.956 373.639 69.6283 373.432C69.3007 373.226 69.0568 372.909 68.94 372.54C68.63 371.34 69.45 370.86 70.41 370.54C73.66 369.41 76.93 368.33 80.15 367.12C81.15 366.74 82.44 366.12 82.15 364.72C81.86 363.32 80.43 363.45 79.34 363.42C75.82 363.34 72.27 364.24 67.34 363.42C70.48 360.3 73.34 359.58 75.76 358.16C76.63 357.66 77.54 357.05 77.34 356.02C77.1893 355.571 76.8881 355.187 76.4873 354.934C76.0865 354.68 75.6107 354.573 75.14 354.63V354.63ZM229.3 483.1C225.45 473.2 220.44 464.02 212.56 456.7C210.78 455.04 210 453.64 211.56 451.35C213.56 448.52 214.09 448.16 217 450.09C227 456.67 234.84 465.01 239.15 476.39C241.977 484.127 243.412 492.303 243.39 500.54C243.55 517.03 241.24 533.32 239.39 549.65C238.39 558.37 237.39 567.08 236.22 576.65C232.47 573.04 232.63 569.47 233.14 565.85C234.69 555.04 235.31 544.17 235.86 533.29C236.77 516.17 235.61 499.29 229.3 483.1ZM205.06 466.4C207.49 466.53 208.46 468.58 209.64 470.15C215.39 477.7 219.01 486.28 221.55 495.37C225.2 508.44 225.4 521.76 224.55 535.16C224.29 539.27 223.87 543.37 223.55 547.47L222.01 547.61C214.2 530.5 205.01 513.92 202.52 494.81C201.21 484.96 202.07 474.4 205.06 466.4ZM200.27 447.97C200.01 447.78 199.27 447.5 199.27 447.17C199.17 445.66 200.44 445.43 201.53 445.17C202.17 445.03 202.73 445.42 202.53 446.17C202.437 446.697 202.157 447.172 201.742 447.51C201.327 447.848 200.805 448.025 200.27 448.01V447.97ZM168.97 477.4C170.74 470.88 171.77 470.56 176.47 475.15C187.07 485.53 192.67 498.15 192.71 513.05C192.71 527.34 188.96 540.93 184.3 555.23C183.3 554.08 182.8 553.73 182.64 553.23C178.14 540.05 172.83 527.14 169.38 513.61C166.31 501.6 165.69 489.49 168.97 477.4ZM166.56 455.88C166.646 455.723 166.789 455.605 166.96 455.55C167.4 455.41 167.66 455.61 167.71 456.07C167.47 456.27 167.24 456.64 166.99 456.64C166.57 456.64 166.39 456.27 166.56 455.87V455.88ZM191.1 474.28C186.74 470.09 183.39 466.17 179.1 463.28C177.64 462.28 177.93 461.06 178.95 459.88C179.45 459.31 179.95 458.74 180.48 458.18C185.09 453.11 188.81 452.93 194.01 457.38C194.533 457.795 194.902 458.372 195.059 459.021C195.217 459.669 195.154 460.351 194.88 460.96L191.1 474.28ZM132.63 461.18C132 462.75 130.83 464.43 128.75 463.18C127.19 462.25 125.41 461.34 124.63 459.01C126.79 457.65 128.69 458.27 130.51 458.54C131.87 458.74 133.3 459.47 132.63 461.17V461.18ZM48.09 501.31C47.59 503.53 47.09 505.74 46.58 507.96L45.29 507.77C42.8994 497.961 42.0693 487.837 42.83 477.77C43.37 471.09 44.37 464.46 46.83 458.16C49.7 450.91 54.41 445.35 61.68 442.16C67.76 439.54 73.04 440.93 77.01 446.01C77.3355 446.358 77.5098 446.82 77.4948 447.297C77.4798 447.773 77.2767 448.223 76.93 448.55C73.33 453 71.11 458.33 67.04 462.55C56.72 473.4 51.39 486.91 48.09 501.31ZM71.96 569.99C66.05 560.4 61.38 550.18 56.68 539.99C56.264 538.922 56.1097 537.77 56.23 536.63C57.23 522.14 58.36 507.63 62.53 493.63C62.8587 492.539 63.2494 491.467 63.7 490.42C63.82 490.14 64.27 490.01 65.11 489.42C65.49 516.7 71.33 543.12 72.96 570.04C72.32 570.03 72.02 570.08 71.96 569.99V569.99ZM86.88 644.12C80.8482 653.879 74.004 663.112 66.42 671.72C66.2038 672.203 65.9426 672.665 65.64 673.1C65.2 673.64 64.64 674.28 63.9 673.69C63.67 673.49 63.75 672.69 63.9 672.25C64.2483 671.637 64.657 671.061 65.12 670.53C71.93 655.8 78.12 640.84 82.17 623.95C85.98 629.07 87.51 634.05 89 638.95C89.59 640.78 87.85 642.51 86.88 644.12V644.12ZM97.15 610.65C97.03 612.31 97.24 614.11 95.4 616.19C92.13 607.66 86.09 600.96 86.78 591.04C88.1 572.21 84.78 553.63 82.05 535.04C79.86 520.28 76.73 505.64 76.52 490.62C76.334 483.727 76.8669 476.833 78.11 470.05C78.3995 468.259 79.0778 466.552 80.097 465.051C81.1163 463.55 82.4519 462.29 84.01 461.36C88.063 458.808 92.3945 456.728 96.9201 455.16C98.3782 454.595 99.9451 454.368 101.504 454.494C103.062 454.62 104.572 455.098 105.92 455.89C105.49 456.5 105.29 457.12 104.92 457.35C89.8601 465.77 83.92 479.51 82.63 495.85C81.63 508.18 83.27 520.32 85.47 532.4C88.87 551.05 92.47 569.65 95.78 588.31C97.1578 595.671 97.618 603.175 97.15 610.65V610.65ZM98.48 518.4C98.2 519.86 98.2 521.47 96.56 523.06C93.64 508.35 92.04 494.06 97.06 479.86C99.31 473.48 103.6 468.73 109.22 465.07C111.06 463.86 112.56 463.94 114.44 465.17C122.63 470.54 122.86 471.3 116.96 478.76C107.67 490.51 101.24 503.58 98.48 518.4ZM124.62 631.6C121.563 643.637 119.246 655.85 117.68 668.17C117.135 672.341 116.855 676.543 116.84 680.75C117.45 688.61 116.55 696.52 117.7 704.39C115.03 700.87 116.21 696.87 116.02 693.11C115.83 689.35 114.48 685.64 114.94 681.8C113.54 669.2 110.37 657 106.48 645C105.372 641.961 105.429 638.619 106.64 635.62C110.55 625.49 111.82 614.91 111.51 604.1C111.42 601.25 111.51 598.4 111.51 595.49C113.2 594.96 113.23 596.49 113.6 597.38C117.04 605.26 120.33 613.2 123.83 621.05C125.334 624.359 125.614 628.094 124.62 631.59V631.6ZM112.97 552.3C107.97 530.54 111.56 510.16 123.21 491.17C124.033 489.884 124.928 488.645 125.89 487.46C126.06 487.24 126.53 487.26 127.28 487.04C126.58 490.18 125.77 493.04 125.28 496.04C124.2 502.48 123.68 508.98 124.85 515.45C126.42 524.13 127.04 532.89 127.85 541.65C129.048 555.174 131.052 568.614 133.85 581.9C135.147 587.306 134.862 592.971 133.03 598.22C133.16 599.22 133.13 600.22 132.1 600.64C131.07 601.06 130.79 600.28 130.72 599.42C123.86 584.09 116.77 568.8 112.97 552.29V552.3ZM131.28 690.49C129.968 678.999 130.846 667.363 133.87 656.2C136.84 667.91 137.05 679.4 131.28 690.48V690.49ZM138.82 728.49C136.51 724.091 134.869 719.373 133.95 714.49C133.777 713.943 133.755 713.359 133.887 712.801C134.019 712.243 134.3 711.731 134.7 711.32C138.07 708.06 140.89 704.32 144.16 700.7C144.11 709.98 141.96 718.71 138.82 728.46V728.49ZM140.47 623.15C140.53 622.92 140.99 622.78 141.26 622.6C141.434 622.666 141.593 622.767 141.727 622.895C141.862 623.023 141.969 623.177 142.044 623.347C142.118 623.518 142.158 623.701 142.161 623.887C142.164 624.073 142.129 624.258 142.06 624.43C142.06 624.67 141.49 625.03 141.33 624.97C140.972 624.837 140.681 624.568 140.52 624.222C140.359 623.875 140.341 623.479 140.47 623.12V623.15ZM144.25 533.8C136.94 522.14 135.91 509.44 138.25 496.16C144.51 508.01 146.11 520.63 144.25 533.77V533.8ZM144.25 480.8C143.784 480.19 143.531 479.443 143.531 478.675C143.531 477.907 143.784 477.16 144.25 476.55C147.141 472.264 150.82 468.565 155.09 465.65C155.751 465.076 156.602 464.768 157.477 464.784C158.353 464.801 159.191 465.141 159.83 465.74C161.17 466.96 159.94 468.25 159.45 469.38C156.253 477.176 154.557 485.505 154.45 493.93C154.45 495.41 154.81 496.93 153.45 499.39C151.126 492.833 148.041 486.57 144.26 480.73L144.25 480.8ZM164.39 622.25C162.67 630.78 160.89 639.25 159.08 648.01C157.5 646.8 157.68 645.35 157.55 644.08C155.719 627.711 152.964 611.458 149.3 595.4C148.51 591.82 148.13 588.4 150.3 584.9C152.3 585.9 152.57 587.73 153.14 589.24C156.61 598.36 160 607.51 163.42 616.66C164.05 618.47 164.75 620.3 164.39 622.25ZM168.56 590.81C164.56 581.3 160.56 571.81 156.5 562.3C155.59 560.16 154.73 558.1 155.13 555.69C156.872 545.535 157.675 535.242 157.53 524.94C158.84 524.76 159.1 525.56 159.33 526.26C164.48 541.87 169.5 557.52 174.83 573.06C176.5 577.339 176.45 582.098 174.69 586.34C173.49 589.24 173.13 592.48 171.44 595.34C169.39 594.11 169.16 592.33 168.52 590.81H168.56ZM172.31 652.34C172.13 651.28 171.89 649.69 173 649.56C174.82 649.35 174.49 651.08 174.48 652.29C175.53 657.7 176.78 663.09 177.58 668.54C178.7 676.27 177.66 683.61 171.82 691.24C169.98 677.4 170.85 664.86 172.27 652.34H172.31ZM198.79 703.84C197.86 719.92 193.52 735.09 186.85 749.66C186.579 750.105 186.242 750.506 185.85 750.85C184.95 751 184.75 750.44 184.61 749.92C181.47 737.92 178.44 725.83 175.15 713.84C174.22 710.44 174.95 708.13 177.54 705.77C190.29 694.2 194.25 679.82 191.11 663.06C188.634 650.482 185.33 638.082 181.22 625.94C178.35 617.18 178.67 613.16 183.31 603.05C186.68 613.43 188.94 623.05 191.19 632.75C196.61 656.12 200.14 679.72 198.75 703.84H198.79ZM207.39 631.4C207.334 631.833 207.152 632.24 206.865 632.569C206.579 632.898 206.201 633.135 205.78 633.25C204.92 629.743 204.057 626.24 203.19 622.74C199.71 608.82 195.853 595.007 191.62 581.3C190.6 578.215 190.6 574.885 191.62 571.8C195.17 560.49 198.73 549.18 201.44 537.63C201.64 537.118 201.917 536.639 202.26 536.21C203.8 536.37 203.97 537.65 204.41 538.61C209.09 548.88 213.67 559.19 218.41 569.43C219.733 572.177 220.123 575.281 219.52 578.27C216.29 596.16 211.44 613.68 207.39 631.4ZM213.64 670.1C216.4 644.71 222.95 620.49 228.4 595.1C230.797 597.796 232.358 601.132 232.89 604.7C234.27 614.38 236.56 624.07 231.12 633.59C225.254 644.116 220.238 655.095 216.12 666.42C215.64 667.64 215.59 669.1 213.63 670.09L213.64 670.1ZM249.14 718.87C246.55 731.94 241.14 743.87 234.31 756.69C227.99 744.54 224.94 732.52 223 720.18C219.42 697.48 228.74 667.58 239.76 647.18C244.86 658 250.35 667.57 250.63 679.46C250.94 692.64 251.72 705.78 249.13 718.86L249.14 718.87ZM263.78 561.6C260.606 572.842 256.412 583.771 251.25 594.25C250.61 595.56 250.25 597.17 247.94 598.33C247.71 588.41 248.85 579.1 249.75 569.8C251.75 549.23 254.54 528.74 255.42 508.07C255.903 499.657 255.376 491.217 253.85 482.93C250.54 466.18 241.85 452.93 227.95 443.03C226.39 441.92 224.86 440.79 223.33 439.64C223.22 439.56 223.24 439.29 223.11 438.72C227.11 438.39 230.54 439.96 233.88 441.6C239.12 444.17 243.29 448.1 247.06 452.49C256.98 464.01 262.15 477.66 264.87 492.37C266.58 501.6 267.53 510.93 268.6 520.24C270.24 534.4 267.47 548.07 263.78 561.6Z" fill="#10100F"/>
<path d="M148.83 409.82C147.314 409.768 145.848 409.267 144.617 408.382C143.385 407.496 142.444 406.266 141.912 404.846C141.38 403.426 141.281 401.879 141.627 400.403C141.973 398.926 142.749 397.586 143.858 396.55C144.966 395.515 146.356 394.831 147.853 394.586C149.349 394.34 150.885 394.544 152.266 395.171C153.647 395.798 154.811 396.82 155.611 398.109C156.411 399.397 156.811 400.894 156.76 402.41C156.642 404.427 155.753 406.321 154.277 407.7C152.8 409.08 150.85 409.839 148.83 409.82Z" fill="#10100F"/>
<path d="M175.7 399.07C175.878 397.065 176.816 395.205 178.322 393.869C179.828 392.534 181.788 391.826 183.8 391.89C185.813 392.007 187.697 392.918 189.038 394.424C190.379 395.93 191.067 397.907 190.95 399.92C190.833 401.933 189.922 403.817 188.416 405.158C186.91 406.499 184.933 407.187 182.92 407.07C180.911 406.941 179.032 406.033 177.683 404.538C176.335 403.044 175.623 401.082 175.7 399.07V399.07Z" fill="#10100F"/>
<path d="M140.69 110.49C142.123 101.462 142.656 92.3135 142.28 83.18C142.357 71.559 141.725 59.9442 140.39 48.4C138.87 33.32 136.54 18.4 132.29 3.79001C131.85 2.28001 131.79 -0.439999 129.65 0.060001C127.51 0.560001 128.65 2.99 128.84 4.59C130.6 17.88 132.19 31.21 132.56 44.59C132.9 56.97 132.74 69.38 132.56 81.77C132.49 86.95 131.84 92.12 131.4 97.28C131.22 99.42 130.33 100.67 127.82 100.54C123.82 100.32 120.94 102.43 118.82 105.54C115.618 110.38 113.85 116.028 113.72 121.83C113.689 123.859 114.084 125.873 114.88 127.74C117.29 133.86 122.11 136.07 128.41 133.98C131.41 132.98 131.75 133.19 131.28 136.23C130.319 142.362 128.779 148.389 126.68 154.23C126.15 155.72 125.62 157.23 125.24 158.76C124.72 160.89 125.13 162.76 127.13 164.05C128.92 165.15 131.01 164.61 132.92 162.63C134.208 161.253 135.21 159.636 135.87 157.87C141.12 144.65 143.87 131.11 140.97 116.87C140.476 114.78 140.381 112.615 140.69 110.49V110.49ZM129.12 112.1C128.572 115.521 127.456 118.826 125.82 121.88C125.28 122.88 124.71 124.13 123.33 123.88C121.73 123.61 121.63 122.13 121.47 120.88C121.435 120.304 121.435 119.726 121.47 119.15C121.474 116.11 122.285 113.125 123.82 110.5C124.68 109.04 125.61 107.16 127.74 107.98C129.54 108.65 129.39 110.51 129.12 112.1V112.1Z" fill="#ACDCDD"/>
</g>
<defs>
<clipPath id="clip0_1263_2184">
<rect width="337.59" height="822.88" fill="white"/>
</clipPath>
</defs>
</svg>
