<svg width="445" height="389" viewBox="0 0 445 389" fill="none" xmlns="http://www.w3.org/2000/svg">
<g clip-path="url(#clip0_1263_2174)">
<path d="M443.99 176.15C440.66 170.31 435.53 168.63 429.99 172.02C427.79 173.38 426.29 173.02 424.37 171.89C416.56 167.35 408.67 162.89 400.85 158.38C384.305 148.873 369.311 136.891 356.39 122.85C339.62 104.52 328.39 83.3998 324.22 58.7098C324.082 57.7692 323.851 56.8446 323.53 55.9498C323.233 54.9472 322.611 54.0718 321.762 53.4616C320.913 52.8515 319.885 52.5412 318.84 52.5798C317.72 52.6533 316.659 53.1065 315.832 53.8647C315.004 54.6229 314.461 55.6407 314.29 56.7498C313.87 58.6498 314.29 60.5398 314.44 62.4398C316.33 85.7498 314.94 108.73 307.44 131.09C305.882 136.262 303.631 141.2 300.75 145.77C295.48 153.57 291.1 154.19 284.02 148.09C279.16 143.9 275.53 138.69 272.02 133.36C264.08 121.18 258.43 107.91 253.53 94.2898C253.1 93.0998 252.73 91.8798 252.19 90.7298C250.77 87.6498 248.42 86.3098 245.85 87.0198C243.07 87.7898 241.77 90.2698 242.44 93.9098C242.81 95.9098 243.44 97.9098 243.97 99.9098C254.43 139.15 261.27 178.96 261.83 219.65C262.04 235 261.17 250.39 257.73 265.48C257.268 267.487 256.934 269.521 256.73 271.57C255.157 288.95 253.617 306.33 252.11 323.71C251.11 335.9 250.25 348.09 252.87 360.21C252.92 360.48 252.71 360.8 252.62 361.15C252.32 361.15 251.92 361.28 251.72 361.15C250.427 360.245 249.182 359.274 247.99 358.24C229.99 342 215.69 322.96 203.89 301.89C193.65 283.54 185.97 264.37 182.69 243.54C179.83 224.868 179.005 205.94 180.23 187.09C181.29 169.19 182.67 151.29 181.67 133.35C180.35 109.72 174.53 87.3498 162.79 66.6198C150.05 44.1698 132.47 26.7398 108.79 16.1098C85.79 5.7798 64.26 8.77979 44.74 24.9098C38.7846 29.9094 33.5632 35.7233 29.23 42.1798C18.79 57.4398 12.12 74.3898 7.54 92.1798C0.21 120.58 -1.45999 149.47 1.27001 178.63C3.33001 200.52 7.55999 221.91 15.84 242.43C27.23 270.65 44.84 293.65 71.09 309.54C82.51 316.44 94.21 322.813 106.19 328.66C113.337 332.112 120.73 335.027 128.31 337.38C141.19 341.43 154.31 344.38 167.49 347.38C190.67 352.71 212.88 360.61 233.75 372.01C246.59 379.01 260.51 382.69 274.42 386.53C277.036 387.174 279.727 387.464 282.42 387.39C284.32 387.336 286.221 387.453 288.1 387.74C301.107 390.04 314.433 389.85 327.37 387.18C343.214 384.251 358.052 377.341 370.49 367.1C381.28 358.19 386.28 346.71 386.13 332.86C386.001 326.511 385.248 320.191 383.88 313.99C380.82 299.39 374.75 285.99 367.7 272.99C363.85 265.88 359.77 258.88 355.88 251.79C352.63 245.86 350.43 239.62 350.99 232.7C351.687 223.836 353.152 215.05 355.37 206.44C355.915 204.278 356.882 202.245 358.216 200.459C359.549 198.672 361.223 197.167 363.14 196.03C369.41 192.12 376.14 189.19 383.48 188.44C396.48 187.12 409.48 186.78 422.48 186.22C423.421 186.084 424.381 186.259 425.214 186.72C426.046 187.18 426.705 187.9 427.09 188.77C428.017 190.46 429.544 191.741 431.37 192.36C433.205 193.15 435.24 193.349 437.194 192.93C439.147 192.51 440.921 191.493 442.27 190.02C445.42 186.21 446.23 180.03 443.99 176.15ZM11.29 164.91C9.46 129.07 13.8 94.2898 29.18 61.4298C33.79 51.5898 39.51 42.4998 47.41 34.9098C63.66 19.2898 82.35 15.6898 103.07 24.2798C124.07 32.9798 139.49 48.1698 151.13 67.3898C164.01 88.6598 169.97 111.99 170.73 136.66C170.9 142.4 167.53 147.49 163.34 151C151.79 160.69 138.73 166 123.29 161.86C115.189 159.634 107.25 156.854 99.53 153.54C90.46 149.74 81.46 145.73 71.78 143.68C49.31 138.93 30.87 145.93 15.78 162.81C14.65 164.08 13.96 165.81 11.78 166.62C11.5536 166.07 11.3893 165.496 11.29 164.91ZM219.53 350.54C219.26 351.54 218.38 351.45 217.58 351.24C217.121 351.107 216.673 350.94 216.24 350.74C195.76 341.8 174.11 336.74 152.41 332.09C124.41 326.09 98.94 314.26 74.99 298.91C54.67 285.91 39.78 268.13 29.68 246.26C20.95 227.35 15.85 207.47 13.28 186.87C12.9468 184.988 13.2273 183.05 14.08 181.34C17.2823 174.941 21.5652 169.142 26.74 164.2C38.43 153.44 52.12 150.5 67.39 153.77C74.56 155.3 81.34 158 88.08 160.77C96.72 164.37 105.42 167.77 114.26 170.87C133.13 177.52 149.79 172.7 165.57 162.05C166.86 161.18 167.87 159.85 169.81 159.46C170.88 161.37 169.67 162.34 168.81 163.46C166.635 165.989 164.694 168.71 163.01 171.59C162.55 172.42 162.14 173.45 163.09 174.16C163.78 174.67 164.63 174.28 165.28 173.81C166.19 173.17 167.05 172.46 167.93 171.81C168.44 171.42 169.03 171.07 169.6 171.6C169.802 171.844 169.932 172.141 169.974 172.456C170.017 172.77 169.97 173.09 169.84 173.38C169.505 174.273 168.956 175.07 168.24 175.7C167.09 177 165.9 178.29 164.88 179.7C164.18 180.7 163.08 181.89 164.09 183.11C165.1 184.33 166.36 183.11 167.49 182.73C167.931 182.637 168.38 182.59 168.83 182.59C169.83 184.77 169.05 186.28 167.36 187.59C165.574 188.918 163.976 190.482 162.61 192.24C162.13 192.88 161.7 193.59 162.34 194.36C162.82 194.94 163.49 194.76 164.1 194.6C164.41 194.52 164.69 194.35 165 194.28C166.15 194.02 167.43 192.45 168.39 193.8C168.872 194.543 169.102 195.422 169.046 196.306C168.99 197.19 168.651 198.033 168.08 198.71C166.95 200.22 165.49 201.49 164.25 202.93C163.891 203.251 163.634 203.671 163.513 204.137C163.392 204.603 163.412 205.095 163.57 205.55C164.09 206.72 165.11 206.35 166.03 206.13C166.95 205.91 167.93 205.38 168.42 206.68C168.594 207.13 168.626 207.622 168.511 208.09C168.397 208.559 168.142 208.981 167.78 209.3C165.633 211.185 163.77 213.371 162.25 215.79C161.77 216.62 161.32 217.57 162.07 218.43C162.82 219.29 163.81 218.89 164.69 218.52C165.27 218.28 165.82 217.95 166.39 217.66C167.22 217.24 168.18 216.56 168.87 217.66C169.099 218.085 169.187 218.572 169.121 219.05C169.054 219.529 168.837 219.973 168.5 220.32C167.133 221.857 165.844 223.462 164.64 225.13C163.64 226.65 164.31 227.61 165.97 227.58C167.19 227.58 168.78 225.64 169.57 227.89C170.23 229.79 170.74 231.89 169.18 233.77C168.303 234.68 167.497 235.656 166.77 236.69C165.93 238.09 166.12 239.01 168.14 239.07C171.36 239.17 172.32 241.07 170.49 243.79C169.42 245.35 168.07 246.72 166.91 248.22C166.689 248.456 166.546 248.755 166.502 249.075C166.457 249.396 166.512 249.722 166.66 250.01C167.17 250.87 167.95 250.61 168.74 250.47C170.02 250.25 171.34 248.47 172.55 250.04C173.76 251.61 172.02 252.87 171.16 254.12C170.578 254.868 170.066 255.668 169.63 256.51C168.82 258.32 169.51 259.14 171.58 258.85C172.72 258.69 173.98 257.44 174.82 259.25C175.146 259.897 175.232 260.638 175.063 261.343C174.895 262.047 174.483 262.67 173.9 263.1C173.662 263.309 173.442 263.536 173.24 263.78C172.24 264.97 170.35 266.09 171.12 267.71C172.06 269.71 173.87 268.14 175.31 267.85C175.93 267.73 176.61 267.52 177.05 268.13C177.64 268.94 177.12 269.6 176.57 270.19C175.39 271.48 174.16 272.71 173.03 274.03C172.714 274.241 172.495 274.568 172.421 274.94C172.347 275.313 172.424 275.699 172.635 276.015C172.846 276.33 173.173 276.549 173.546 276.623C173.918 276.697 174.304 276.621 174.62 276.41C175.51 276.09 176.38 275.71 177.27 275.41C178.33 275.01 179.41 274.57 180.17 275.92C180.468 276.394 180.593 276.957 180.523 277.513C180.454 278.068 180.195 278.583 179.79 278.97C178.95 279.92 178.08 280.85 177.27 281.83C176.46 282.81 175.1 283.83 175.89 285.08C176.89 286.58 178.46 285.48 179.77 285.08C180.22 284.93 180.65 284.72 181.09 284.54C181.97 284.19 182.88 283.71 183.64 284.73C184.4 285.75 184.77 287.01 183.76 288.19C182.42 289.76 181.04 291.29 179.76 292.88C179.17 293.61 178.5 294.51 179.27 295.43C180.04 296.35 181.04 295.8 181.88 295.43C183.02 294.88 184.09 294.19 185.21 293.6C186.03 293.17 186.91 292.53 187.74 293.6C187.982 293.914 188.119 294.297 188.132 294.693C188.144 295.09 188.032 295.481 187.81 295.81C187.11 297.17 185.18 298.37 185.96 299.92C187.02 302.05 188.7 299.7 190.13 299.87C191.56 300.04 192 301.1 191.33 302.24C190.33 303.87 189.1 305.31 188.05 306.89C187.772 307.178 187.606 307.557 187.584 307.957C187.562 308.358 187.685 308.753 187.93 309.07C188.58 309.79 189.38 309.49 190.13 309.22C191.43 308.75 192.39 307.47 194.62 307.56C192.98 309.62 191.55 311.35 190.21 313.15C189.66 313.89 189.04 314.83 189.83 315.72C190.62 316.61 191.59 316.07 192.44 315.65C193.29 315.23 194.36 314.54 195.37 314.09C196.38 313.64 197.61 312.15 198.7 313.55C199.99 315.21 198.1 316.03 197.22 316.99C196.03 318.27 194.69 319.4 193.48 320.65C192.94 321.21 192.33 321.94 192.87 322.74C193.127 323.051 193.49 323.256 193.89 323.313C194.289 323.37 194.696 323.277 195.03 323.05C196.9 322.19 198.74 321.27 200.58 320.35C201.44 319.91 202.4 319.35 203.08 320.41C203.76 321.47 202.82 322.15 202.14 322.8C200.64 324.21 199.08 325.56 197.62 327.02C197.46 327.136 197.325 327.284 197.223 327.453C197.122 327.623 197.055 327.811 197.027 328.006C196.999 328.202 197.01 328.402 197.061 328.593C197.111 328.784 197.199 328.963 197.32 329.12C197.548 329.35 197.842 329.503 198.161 329.559C198.479 329.614 198.808 329.569 199.1 329.43C200.86 328.73 202.59 327.94 204.32 327.15C205.047 326.635 205.932 326.39 206.82 326.46C207.74 327.79 206.74 328.39 206.16 329.04C204.91 330.47 203.56 331.81 202.3 333.23C201.998 333.496 201.796 333.857 201.727 334.253C201.658 334.649 201.726 335.057 201.92 335.41C202.16 335.733 202.507 335.96 202.9 336.05C203.292 336.139 203.703 336.086 204.06 335.9C205.39 335.39 206.68 334.77 207.97 334.17C209.05 333.67 209.97 332.7 211.71 332.87C211.03 335.52 209.11 337.09 208.07 339.13C207.71 339.84 207.33 340.59 207.99 341.31C208.27 341.599 208.646 341.776 209.048 341.808C209.449 341.839 209.848 341.722 210.17 341.48C211.55 340.72 212.89 339.86 214.17 338.99C215.03 338.41 215.84 338.05 216.68 338.99C217.52 339.93 217.95 340.82 217.03 341.93C216.83 342.17 216.61 342.4 216.42 342.66C215.8 343.5 214.59 344.29 215.56 345.48C216.23 346.3 217.32 345.95 218.24 345.72C218.986 345.46 219.748 345.247 220.52 345.08C220.88 345.08 221.58 345.38 221.65 345.67C222.23 347.63 220.02 348.74 219.53 350.54ZM226.68 351.97C226.26 352.97 225.75 354.06 224.47 354.14C223.925 354.195 223.376 354.088 222.891 353.834C222.405 353.58 222.005 353.189 221.74 352.71C222.14 351.71 223.14 351.49 224 351.18C224.86 350.87 225.69 350.11 226.54 351.11C226.627 351.233 226.684 351.375 226.709 351.524C226.733 351.673 226.723 351.825 226.68 351.97V351.97ZM232.38 358.02C231 357.76 229.55 357.54 229.14 355.85C229.14 355.69 229.47 355.26 229.69 355.22C231.69 354.88 232.32 356.22 233.05 357.65C232.64 357.88 232.5 358.04 232.38 358.02V358.02ZM406.43 178.61C398.84 179.15 391.22 178.97 383.62 179.73C374.436 180.706 365.601 183.786 357.8 188.73C351.984 192.145 347.759 197.726 346.05 204.25C343.46 213.739 341.746 223.447 340.93 233.25C340.26 241.19 342.35 248.71 346.01 255.71C350.57 264.42 355.46 272.96 360.08 281.64C366.5 293.73 371.9 306.23 374.39 319.8C375.361 324.785 375.85 329.851 375.85 334.93C375.912 339.387 375.02 343.807 373.233 347.891C371.446 351.975 368.806 355.63 365.49 358.61C357.449 365.859 347.994 371.365 337.72 374.78C322.64 379.95 306.518 381.324 290.78 378.78C289.669 378.722 288.581 378.443 287.58 377.96C284 375.67 279.9 375.05 275.93 374.01C275.561 374.094 275.173 374.039 274.843 373.854C274.512 373.669 274.262 373.368 274.14 373.01C273.99 372.47 274.49 372.29 274.99 372.3C276.384 371.982 277.711 371.42 278.91 370.64C279.57 370.14 280.17 369.5 280 368.64C279.83 367.78 279 367.64 278.12 367.58C275.59 367.51 273.04 367.5 270.52 367.29C269.03 367.17 267.27 367.43 266.2 365.29C268.11 363.9 270.43 364.76 272.41 364.22C273.99 363.78 276.67 364.38 276.74 362.27C276.81 360.16 274.15 360.44 272.57 360.08C270.26 359.55 267.87 359.32 265.52 358.96C264.61 358.82 263.52 358.9 263.21 357.68C264 356.04 265.61 356.53 266.93 356.27C268.25 356.01 269.76 355.88 271.13 355.52C272.13 355.24 273.43 354.86 273.26 353.42C273.13 352.27 271.97 352.12 271.06 351.96C268.72 351.55 266.36 351.23 264.06 350.86C262.67 350.64 261.68 350.06 261.7 348.43C261.7 346.61 263.01 346.56 264.31 346.43C266.51 346.15 268.72 345.89 270.89 345.43C271.96 345.22 273.21 344.73 273.22 343.43C273.22 341.92 271.81 342 270.76 341.81C268.42 341.39 266.06 341.03 263.76 340.57C262.82 340.39 261.88 339.98 261.9 338.78C261.92 337.58 262.9 337.3 263.9 337.21C265.806 337.171 267.69 336.788 269.46 336.08C270.19 335.74 270.92 335.29 270.9 334.4C270.88 333.51 269.99 333.2 269.23 333.06C267.67 332.77 266.09 332.57 264.53 332.3C263.39 332.11 262.31 331.81 262.25 330.36C262.19 328.91 263.08 328.44 264.25 328.15C265.79 327.77 267.33 327.38 268.85 326.93C270.098 326.662 271.255 326.076 272.21 325.23C272.65 324.79 273.06 324.23 272.63 323.56C272.501 323.377 272.336 323.223 272.145 323.106C271.954 322.989 271.741 322.912 271.52 322.88C269.46 322.79 267.4 322.88 265.34 322.78C264.23 322.78 263 322.73 262.94 321.15C262.94 319.79 263.26 318.61 264.78 318.21C266.3 317.81 267.86 317.48 269.39 317.05C270.152 316.83 270.892 316.538 271.6 316.18C272.45 315.77 273.42 315.31 273.09 314.11C272.82 313.11 271.85 313.29 271.09 313.25C269.82 313.25 268.55 313.25 267.28 313.25C266.01 313.25 264.22 313.47 263.94 311.45C263.66 309.43 264.71 308.6 266.58 308.25C268.332 308.029 270.028 307.483 271.58 306.64C272.39 306.14 273.24 305.55 272.96 304.42C272.68 303.29 271.74 303.72 270.96 303.61C268.96 303.29 265.62 304.78 265.41 301.93C265.26 299.8 268.79 300.58 270.58 299.81C271.45 299.44 272.34 299.1 273.18 298.67C273.469 298.531 273.711 298.312 273.877 298.039C274.044 297.765 274.129 297.45 274.12 297.13C274.12 296.07 273.21 295.99 272.42 295.91C270.282 295.892 268.167 295.464 266.19 294.65C267.83 292.65 270.19 293.65 271.96 292.8C272.8 292.41 274.02 292.31 273.96 291.13C273.9 289.95 272.73 289.89 271.83 289.7C269.91 289.28 267.73 289.57 265.97 287.59C268.97 285.59 272.87 287.75 275.32 285.05C275.32 283.39 273.96 283.42 272.98 283.14C271.31 282.65 269.59 282.32 267.91 281.87C267.514 281.803 267.153 281.601 266.889 281.299C266.624 280.996 266.473 280.611 266.46 280.21C266.44 279.972 266.468 279.732 266.542 279.505C266.617 279.278 266.737 279.068 266.895 278.889C267.053 278.709 267.245 278.564 267.461 278.461C267.677 278.358 267.911 278.3 268.15 278.29C270.03 277.97 271.95 277.85 273.64 276.87C274.34 276.47 274.98 275.87 274.79 274.99C274.64 274.24 273.95 274.16 273.33 274.05C271.588 273.912 269.879 273.493 268.27 272.81C269.34 271.12 270.97 271.7 272.27 271.26C273.27 270.9 274.62 270.73 274.75 269.4C274.91 267.89 273.51 267.82 272.49 267.51C271.18 267.11 269.73 267.02 268.78 265.87C269.45 264.19 270.9 264.39 272.01 263.96C273.12 263.53 274.12 263.28 275.12 262.8C275.499 262.672 275.819 262.414 276.024 262.071C276.23 261.728 276.306 261.324 276.24 260.93C276.1 260.22 275.5 259.99 274.91 259.72C273.48 259.09 271.73 259.51 270.23 258.23C271.5 256.66 273.49 257.23 274.96 256.54C276.06 256.01 277.65 255.87 277.52 254.22C277.42 252.89 276.07 252.73 275.03 252.4C273.39 251.89 271.58 251.9 269.94 250.64C271.08 248.85 273.19 249.82 274.56 248.93C275.93 248.04 276.16 246.93 274.75 246.01C273.55 245.25 272.13 244.84 270.96 244.01C269.62 243.11 269.77 241.8 271.24 241.08C272.24 240.59 273.34 240.36 274.36 239.93C275.38 239.5 276.21 239.11 276.19 237.99C276.17 236.87 275.06 236.63 274.19 236.44C273.32 236.25 272.62 236.25 271.84 236.11C271.442 236.074 271.073 235.887 270.809 235.588C270.545 235.288 270.406 234.899 270.42 234.5C270.372 234.104 270.458 233.704 270.665 233.363C270.872 233.022 271.187 232.76 271.56 232.62L272 232.45C273.46 231.95 275.65 231.94 275.77 230.13C275.92 227.93 273.49 228.55 272.17 228C271.23 227.6 270.5 227.14 270.44 226C270.38 224.86 270.65 223.79 271.98 223.41C272.439 223.275 272.889 223.115 273.33 222.93C274.68 222.41 276.33 221.82 276.26 220.21C276.2 218.21 274.16 218.57 272.89 218.39C270.48 218.03 270.36 216.39 270.37 214.59C270.43 200.59 269.08 186.7 267.43 172.84C266.24 162.93 265.32 152.97 262.95 143.23C262.739 141.824 262.658 140.401 262.71 138.98C262.42 138.49 261.91 137.82 262.87 137.7C263.52 137.62 263.73 138.36 263.6 139.02C266.23 142.59 268.76 146.24 271.5 149.72C274.678 153.902 278.625 157.439 283.13 160.14C290.13 164.22 297.13 163.73 303.49 158.64C307.145 155.564 310.119 151.76 312.22 147.47C317.49 137.39 320.44 126.53 322.6 115.47C323.54 110.65 324.02 105.74 324.74 100.88C324.92 99.6798 324.59 98.2998 325.74 97.3698C326.89 97.5898 327.11 98.5998 327.5 99.4198C338.94 123.24 357.04 141.22 377.97 156.63C386.699 162.906 395.862 168.557 405.39 173.54C407.47 174.66 409.69 175.54 411.81 177.48C410.06 178.73 408.16 178.48 406.43 178.61Z" fill="#10100F"/>
<path d="M290.28 47.7202C288.848 44.8832 288.394 41.652 288.99 38.5302C290.4 30.7202 291.55 22.8702 291.18 14.8902C291.18 13.6202 291.18 12.3502 291.18 11.0802C291.11 8.23025 291.06 5.38023 290.89 2.53023C290.82 1.42023 290.47 0.240227 289.12 0.0302275C287.77 -0.179772 287.12 0.880231 286.78 1.94023C286.2 3.75023 285.78 5.60024 285.33 7.45024C283.57 15.6702 281.837 23.8969 280.13 32.1302C279.903 33.6101 279.268 34.9974 278.296 36.1366C277.325 37.2759 276.055 38.1221 274.63 38.5802C269.02 40.7602 265.84 45.2002 265.45 51.3302C265.24 53.3235 265.62 55.3346 266.545 57.1128C267.47 58.8911 268.897 60.3578 270.65 61.3302C274.19 63.4302 277.28 62.1102 280.29 59.8702C282.72 58.0702 283.4 58.4602 283.58 61.6002C283.793 67.3253 282.816 73.0323 280.71 78.3602C280.01 80.3002 279.19 82.2002 278.56 84.1602C277.93 86.1202 277.98 87.9902 279.8 89.3102C281.62 90.6302 283.71 90.4202 285.59 89.2202C287.571 87.8566 289.077 85.9097 289.9 83.6502C294.82 71.7402 296.02 59.7202 290.28 47.7202ZM273.91 53.5402C272.81 48.9102 272.81 48.9102 277.15 45.3202C278.35 49.0602 276.75 51.4702 273.91 53.5402Z" fill="#CBEFD6"/>
<path d="M52.83 183.29C51.5517 183.325 50.3107 182.856 49.3752 181.984C48.4397 181.112 47.8847 179.908 47.83 178.63C47.8005 177.357 48.251 176.119 49.0922 175.163C49.9334 174.207 51.1035 173.603 52.37 173.47C53.0388 173.426 53.7095 173.52 54.341 173.744C54.9725 173.968 55.5517 174.319 56.043 174.775C56.5344 175.231 56.9277 175.782 57.1988 176.395C57.47 177.008 57.6133 177.67 57.62 178.34C57.5737 179.611 57.0587 180.82 56.1743 181.734C55.29 182.647 54.0987 183.202 52.83 183.29V183.29Z" fill="#10100F"/>
<path d="M315.6 170.64C316.65 170.675 317.647 171.108 318.39 171.85C319.132 172.593 319.565 173.59 319.6 174.64C319.6 175.431 319.365 176.205 318.926 176.862C318.486 177.52 317.862 178.033 317.131 178.336C316.4 178.638 315.596 178.718 314.82 178.563C314.044 178.409 313.331 178.028 312.772 177.469C312.212 176.909 311.831 176.196 311.677 175.421C311.523 174.645 311.602 173.84 311.905 173.109C312.207 172.379 312.72 171.754 313.378 171.314C314.036 170.875 314.809 170.64 315.6 170.64Z" fill="#10100F"/>
<path d="M335.11 165.76C335.115 166.278 335.013 166.792 334.812 167.27C334.61 167.747 334.313 168.179 333.938 168.537C333.563 168.895 333.118 169.172 332.632 169.351C332.146 169.531 331.628 169.609 331.11 169.58C330.34 169.56 329.593 169.312 328.963 168.868C328.334 168.425 327.85 167.804 327.572 167.085C327.295 166.367 327.237 165.582 327.405 164.83C327.573 164.078 327.96 163.393 328.517 162.861C329.074 162.329 329.777 161.974 330.535 161.84C331.294 161.707 332.076 161.801 332.781 162.111C333.486 162.421 334.084 162.933 334.498 163.583C334.913 164.232 335.126 164.99 335.11 165.76V165.76Z" fill="#10100F"/>
</g>
<defs>
<clipPath id="clip0_1263_2174">
<rect width="445" height="389" fill="white"/>
</clipPath>
</defs>
</svg>
