<svg width="101" height="95" viewBox="0 0 101 95" fill="none" xmlns="http://www.w3.org/2000/svg">
<path d="M57.2763 77.8644C57.2763 77.8644 84.7389 80.7139 84.7389 50.4017C84.7389 31.4165 69.3513 16.0645 50.4017 16.0645C31.4521 16.0645 16.0645 31.4521 16.0645 50.4017C16.0645 57.9887 22.2266 64.1509 29.8136 64.1509H57.2763C64.8632 64.1509 71.0254 57.9887 71.0254 50.4017C71.0254 39.0034 61.8 29.778 50.4017 29.778C39.0034 29.778 29.778 39.0034 29.778 50.4017" stroke="#10100F" stroke-width="4.63054" stroke-miterlimit="10" stroke-linecap="round"/>
<path d="M29.7781 77.8645C14.6042 77.8645 2.31543 65.5758 2.31543 50.4018C2.31543 23.8296 23.8296 2.31543 50.4018 2.31543C76.974 2.31543 98.4882 23.8296 98.4882 50.4018C98.4882 93.7152 57.2764 91.6849 57.2764 91.6849C49.6894 91.6849 43.5273 85.5227 43.5273 77.9357V77.8645V50.4018C43.5273 46.5905 46.6262 43.5273 50.4018 43.5273C54.2131 43.5273 57.2764 46.5905 57.2764 50.4018" stroke="#10100F" stroke-width="4.63054" stroke-miterlimit="10" stroke-linecap="round"/>
</svg>
