<svg width="1072" height="270" viewBox="0 0 1072 270" fill="none" xmlns="http://www.w3.org/2000/svg">
<g clip-path="url(#clip0_83_348)">
<path d="M171.368 163.849C170.651 164.247 170.38 164.311 170.252 164.486C163.667 172.922 155.217 176.949 144.47 174.753C132.257 172.254 123.567 165.425 119.805 153.265C115.34 138.828 117.748 124.837 123.137 111.116C123.982 108.984 124.731 106.835 125.832 104.75C129.61 97.2527 135.302 93.178 144.008 91.65C162.328 88.4666 177.491 99.895 181.19 111.61C181.572 112.835 183.948 120.38 183.884 122.513C183.135 144.128 186.707 165.393 188.668 186.802C189.8 198.819 191.139 210.9 190.852 222.933C190.661 231.226 188.428 239.614 186.069 247.668C181.923 262.089 160.558 273.963 145.347 268.679C139.581 266.578 133.966 264.084 128.542 261.214C126.518 259.938 124.785 258.251 123.456 256.264C122.393 254.999 121.81 253.402 121.81 251.751C121.81 250.101 122.393 248.503 123.456 247.239C124.546 245.996 126.044 245.183 127.682 244.947C129.319 244.71 130.987 245.066 132.385 245.949C134.505 247.095 136.371 248.703 138.475 249.881C145.873 253.94 153.319 256.916 161.85 252.666C164.663 251.386 167.16 249.506 169.166 247.157C171.171 244.808 172.636 242.049 173.457 239.073C176.013 229.718 176.781 219.966 175.721 210.327C174.398 194.967 172.867 179.607 171.368 163.849ZM132.225 136.249C132.228 141.808 133.476 147.295 135.876 152.31C139.926 160.682 152.124 163.07 157.114 156.575C166.139 144.797 169.136 131.427 165.006 116.974C163.412 111.339 159.011 107.997 153.415 106.516C147.42 104.925 139.671 108.108 137.471 113.138C134.185 120.412 132.401 128.272 132.225 136.249Z" fill="#10100F"/>
<path d="M63.7768 142.521C61.1619 130.328 58.0209 118.645 51.1649 108.522C47.3064 102.76 44.1495 102.155 39.1111 106.931C35.5779 110.499 32.6486 114.617 30.4375 119.123C28.1256 123.627 25.6542 125.856 21.7319 124.773C18.0967 123.739 15.9442 119.807 17.3473 115.319C21.142 103.254 28.5082 94.1651 40.7852 89.9948C47.9442 87.5754 54.1465 90.2495 59.2965 95.3429C67.0134 102.967 71.2227 112.645 74.1246 122.8C76.7075 131.841 78.4614 141.12 80.5022 150.272C80.6831 151.353 80.9497 152.417 81.2994 153.456C81.879 154.86 82.0664 156.395 81.8418 157.897C81.6172 159.4 80.9889 160.813 80.0239 161.987C79.5072 162.803 78.8973 163.556 78.2063 164.232C64.9566 175.915 50.4315 185.29 32.7015 188.489C26.5809 189.669 20.2446 188.935 14.557 186.388C5.62829 182.377 0.207267 175.533 -0.0159519 165.696C-0.33274 160.87 0.77275 156.057 3.1641 151.851C5.55545 147.645 9.12802 144.23 13.4409 142.027C22.1146 137.141 31.6014 137.141 41.0404 138.223C47.7369 139.003 54.3059 140.77 60.9547 142.091C61.7359 142.25 62.5491 142.346 63.7768 142.521ZM61.4011 158.438C50.7982 154.65 40.1953 152.071 29.0503 153.026C26.1675 153.281 23.3511 154.035 20.7274 155.254C18.7023 156.237 17.065 157.867 16.0767 159.887C15.0884 161.906 14.806 164.198 15.2745 166.396C15.8964 169.994 19.2127 172.763 23.9482 173.384C25.8587 173.67 27.7975 173.718 29.72 173.527C41.9332 172.174 51.5954 165.298 61.3533 158.422L61.4011 158.438Z" fill="#10100F"/>
<path d="M110.477 237.163C110.477 239.312 110.573 240.76 110.477 242.209C110.438 244.108 109.673 245.921 108.34 247.276C107.006 248.631 105.204 249.426 103.302 249.499C101.455 249.53 99.6642 248.861 98.2913 247.626C96.9184 246.392 96.0655 244.683 95.9044 242.846C95.2028 235.635 94.9158 228.377 94.4215 221.135C93.0503 201.239 91.6791 181.342 90.3079 161.446C89.2397 145.768 88.2511 130.074 87.1191 114.395C84.7434 79.7601 84.5043 45.061 84.9347 10.3301C84.8836 8.88219 84.969 7.43266 85.1899 6.0007C85.3811 4.60492 86.0544 3.31957 87.0936 2.36644C88.1328 1.41331 89.4726 0.852199 90.8819 0.779929C92.2829 0.548345 93.7208 0.8235 94.9367 1.55589C96.1526 2.28827 97.0668 3.42981 97.5147 4.77509C98.2256 6.82515 98.6129 8.97306 98.6627 11.1419C99.5077 38.5828 99.9223 66.0396 101.166 93.4487C102.282 117.961 104.355 142.425 105.949 166.922C107.257 186.945 108.559 206.969 109.856 226.992C110.015 230.637 110.27 234.25 110.477 237.163Z" fill="#10100F"/>
<path d="M200.403 111.546C203.591 104.559 208.088 98.5262 216.347 96.7276C238.669 91.9525 259.045 106.58 261.836 129.198C263.453 141.495 261.406 153.995 255.952 165.139C247.199 183.252 228.576 184.733 215.821 180.037C206.429 176.679 201.758 168.72 199.302 159.743C193.403 136.791 197.293 118.534 200.403 111.546ZM215.151 159.297C216.873 161.494 221.098 166.062 224.574 166.555C235.209 168.147 240.741 165.982 244.951 156.098C248.173 148.36 249.343 139.923 248.347 131.602C246.88 117.738 236.165 109.413 222.278 111.132C217.606 111.721 215.47 116.433 213.142 121.24C210.814 126.047 207.833 148.458 215.151 159.361V159.297Z" fill="#10100F"/>
<path d="M434.495 165.982C435.202 165.802 435.89 165.557 436.552 165.25C447.553 158.008 458.603 150.798 469.509 143.412C471.638 141.81 473.532 139.919 475.137 137.793C482.168 129.326 482.105 119.234 474.021 111.705C460.851 99.4335 445.321 92.0639 426.89 92.2867C425.917 92.2867 424.945 92.43 423.988 92.3981C422.4 92.4661 420.843 91.9516 419.609 90.9516C418.375 89.9517 417.551 88.5356 417.291 86.9704C416.962 85.3996 417.261 83.7623 418.125 82.4089C418.989 81.0555 420.35 80.0933 421.915 79.7282C425.562 78.8187 429.322 78.4487 433.076 78.6299C450.893 79.712 467.883 86.512 481.515 98.0168C498.702 112.135 499.85 133.973 484.448 149.954C480.369 154.264 475.799 158.084 470.832 161.335C459.416 168.609 447.617 175.294 436.058 182.345C435.537 182.721 435.096 183.195 434.759 183.742C434.423 184.288 434.197 184.895 434.097 185.528C432.279 205.632 430.637 225.735 428.803 245.838C428.401 249.925 427.66 253.971 426.587 257.935C426.43 258.838 426.091 259.7 425.59 260.468C425.089 261.236 424.438 261.895 423.674 262.404C422.911 262.913 422.052 263.262 421.149 263.429C420.246 263.597 419.319 263.58 418.423 263.378C414.852 262.614 412.923 259.32 413.544 254.895C418.373 218.187 420.212 181.149 419.045 144.144C418.822 134.483 418.503 124.821 418.2 115.144C418.073 113.502 418.55 111.87 419.543 110.554C420.535 109.238 421.974 108.329 423.589 107.997C425.51 107.578 427.519 107.882 429.229 108.852C430.939 109.821 432.23 111.387 432.853 113.249C433.478 115.586 433.794 117.994 433.794 120.412C434.017 134.196 434.144 147.996 434.304 161.796C434.272 163.133 434.399 164.423 434.495 165.982Z" fill="#10100F"/>
<path d="M642.694 49.9634C632.076 50.6637 621.457 51.5551 610.806 52.2395C609.61 52.2395 608.399 52.3828 607.187 52.3828C602.244 52.3828 599.103 49.852 598.784 45.6976C598.465 41.5433 601.096 38.3599 605.911 37.7391C610.105 37.1502 614.888 36.9433 619.113 36.6886C629.859 36.036 640.319 36.4976 650.746 34.317C659.85 32.4229 672.638 34.6035 681.455 33.6485C690.272 32.6934 695.167 32.6775 704.08 31.8339C708.034 31.4678 711.94 30.5128 715.894 29.9557C720.279 29.3509 723.866 31.5474 724.504 35.3357C725.142 39.1239 723.005 41.9571 718.653 43.0872C717.96 43.3061 717.251 43.471 716.532 43.5807C702.007 45.3156 687.498 47.1779 672.941 48.6582C666.69 49.279 666.451 48.9288 666.738 55.1364C668.014 82.068 669.545 108.984 670.724 135.915C671.506 153.917 671.952 171.919 672.414 189.937C672.542 195.206 669.576 198.58 665.255 198.74C660.935 198.899 657.81 195.699 657.586 190.367C657.076 178.525 656.98 166.667 656.486 154.84C655.418 128.752 654.174 102.665 653.122 76.5766C652.803 68.7295 652.931 60.8665 652.835 53.0035C652.42 48.0852 648.817 49.5495 642.694 49.9634Z" fill="#10100F"/>
<path d="M557.297 142.282C554.81 130.726 551.749 119.568 545.467 109.604C541.018 102.553 537.574 101.869 531.707 107.71C528.509 111.117 525.887 115.02 523.942 119.266C521.726 123.754 519.047 125.935 515.157 124.741C514.261 124.434 513.435 123.95 512.731 123.317C512.026 122.685 511.457 121.917 511.057 121.06C510.656 120.202 510.433 119.273 510.401 118.328C510.368 117.382 510.527 116.44 510.868 115.557C514.663 103.206 522.156 93.942 534.784 89.899C541.688 87.6866 547.667 90.3447 552.642 95.1994C560.422 102.776 564.648 112.453 567.581 122.608C570.18 131.633 571.934 140.913 574.055 150.081C574.266 151.262 574.559 152.427 574.932 153.567C575.472 154.923 575.647 156.397 575.437 157.841C575.227 159.286 574.64 160.649 573.736 161.796C573.154 162.709 572.469 163.553 571.695 164.311C558.509 175.867 544.111 185.21 526.509 188.425C520.275 189.656 513.812 188.922 508.014 186.324C499.101 182.265 493.792 175.373 493.568 165.473C493.3 160.718 494.411 155.987 496.77 151.848C499.129 147.709 502.634 144.337 506.866 142.139C515.747 137.077 525.457 137.125 535.135 138.287C542.421 139.162 549.612 140.865 557.297 142.282ZM555.528 158.597C554.822 158.117 554.062 157.721 553.263 157.419C544.271 155.827 535.31 153.774 526.238 152.835C522.38 152.437 518.075 153.806 514.376 155.334C509.943 157.148 508.11 161.844 508.939 166.476C509.576 170.057 512.925 172.843 517.66 173.447C519.572 173.72 521.51 173.763 523.432 173.575C535.581 172.174 545.291 165.266 555.528 158.597Z" fill="#10100F"/>
<path d="M988.54 141.55C986.037 129.93 982.991 118.677 976.566 108.665C972.181 101.821 968.849 101.168 963.045 106.93C959.823 110.316 957.183 114.21 955.232 118.454C953 122.975 950.449 125.171 946.495 124.041C942.876 123.006 940.739 119.059 942.174 114.491C945.985 102.458 953.335 93.3531 965.644 89.2147C972.803 86.8112 978.989 89.5012 984.139 94.5946C991.777 102.139 995.954 111.705 998.856 121.654C1001.49 130.79 1003.24 140.181 1005.39 149.476C1005.58 150.557 1005.85 151.621 1006.21 152.66C1006.76 154.007 1006.96 155.477 1006.76 156.922C1006.57 158.367 1006 159.735 1005.11 160.889C1004.52 161.816 1003.83 162.671 1003.05 163.436C989.911 175.007 975.482 184.335 957.911 187.598C951.675 188.841 945.206 188.118 939.4 185.528C930.471 181.501 925.13 174.641 924.875 164.757C924.58 160.007 925.664 155.273 927.998 151.123C930.331 146.972 933.814 143.582 938.029 141.359C946.894 136.265 956.62 136.297 966.298 137.459C973.536 138.478 980.727 140.069 988.54 141.55ZM987.28 157.467C975.625 153.822 964.958 151.211 953.877 152.198C950.965 152.475 948.125 153.268 945.491 154.538C943.464 155.518 941.825 157.148 940.836 159.169C939.847 161.189 939.566 163.481 940.038 165.68C940.644 169.277 943.976 172.047 948.711 172.683C950.622 172.97 952.561 173.018 954.483 172.827C966.728 171.442 976.39 164.566 987.217 157.578L987.28 157.467Z" fill="#10100F"/>
<path d="M892.652 49.2314C892.652 35.5746 892.652 21.9072 892.652 8.22922C892.652 3.26311 894.772 0.413972 898.551 0.031964C902.33 -0.350044 905.311 2.21259 906.108 7.11503C906.311 8.5495 906.417 9.99584 906.427 11.4445C907.241 38.8853 907.607 66.3422 908.931 93.7672C910.254 121.192 912.55 148.76 914.352 176.265C915.691 196.893 916.966 217.527 918.178 238.166C918.561 244.979 915.898 248.624 911.083 248.783C906.523 248.942 903.669 245.599 903.207 238.962C902.25 224.971 901.612 210.964 900.64 196.973C899.364 177.873 897.849 158.884 896.606 139.815C895.415 121.606 894.352 103.381 893.417 85.1401C892.827 73.1865 893.018 61.2646 892.652 49.2314C892.524 49.2473 892.779 49.2314 892.652 49.2314Z" fill="#10100F"/>
<path d="M821.349 103.461C821.461 102.617 822.433 98.8764 822.72 98.0806C823.884 94.8972 825.909 92.8757 829.513 93.1941C831.057 93.3018 832.504 93.9851 833.568 95.1084C834.631 96.2318 835.232 97.7131 835.252 99.2584C835.406 101.536 835.239 103.824 834.758 106.055C831.597 123.228 831.749 140.844 835.205 157.96C835.455 159.268 835.785 160.56 836.193 161.828C837.708 166.412 838.696 172.126 844.165 173.066C847.077 173.538 850.064 173.173 852.775 172.011C855.486 170.85 857.809 168.941 859.472 166.508C862.566 162.196 864.807 157.334 866.073 152.182C869.628 136.838 868.448 121.447 864.701 106.214C864.199 104.476 863.821 102.705 863.569 100.914C863.232 98.9222 863.654 96.8768 864.752 95.18C865.85 93.4833 867.544 92.2581 869.501 91.7456C873.12 90.9338 876.739 92.9235 877.935 97.4439C879.812 104.442 881.255 111.549 882.256 118.725C884.217 133.369 883.707 147.964 879.163 162.146C875.113 174.785 867.555 184.287 854.417 188.648C842.427 192.612 832.941 189.269 826.531 178.366C821.748 170.137 819.914 161 819.053 151.673C818.543 146.15 818.431 140.531 818.144 135.024C818.097 122.561 819.739 114.969 821.349 103.461Z" fill="#10100F"/>
<path d="M743.573 139.258C744.992 151.164 748.994 163.579 763.073 170.041C771.667 173.973 779.783 172.747 786.447 166.094C789.939 162.592 793.016 158.661 796.253 154.952C799.49 151.243 802.949 150.4 806.122 152.389C809.295 154.379 811.352 159.297 809.024 162.926C801.323 174.848 792.857 186.293 777.455 188.664C762.499 190.972 750.35 184.701 741.277 173.591C727.135 156.369 721.475 126.811 740.655 105.546C750.509 94.6107 762.866 91.6024 776.897 93.21C778.571 93.4011 780.261 93.6239 781.935 93.8626C786.718 94.5471 789.19 97.4599 788.871 101.964C788.818 102.966 788.566 103.947 788.128 104.849C787.69 105.752 787.075 106.557 786.32 107.219C785.566 107.881 784.686 108.385 783.733 108.701C782.78 109.018 781.773 109.141 780.771 109.063C778.714 109.063 776.673 108.65 774.617 108.49C756.52 107.026 743.573 119.027 743.573 139.258Z" fill="#10100F"/>
<path d="M608.159 86.2065C613.851 86.2065 622.684 88.5623 629.859 90.1699C632.535 90.9089 635.031 92.1873 637.194 93.9263C638.664 94.9342 639.709 96.4495 640.127 98.1804C640.545 99.9113 640.306 101.735 639.458 103.301C637.784 106.326 634.228 107.265 630.21 106.246C624.203 104.48 618.075 103.156 611.874 102.283C607.187 101.789 602.308 102.856 597.525 103.349C595.468 103.556 594.91 104.782 595.053 106.899C596.297 123.532 597.493 140.165 598.497 156.814C598.928 164.041 598.944 171.315 598.928 178.557C598.928 183.093 596.377 185.847 592.55 185.99C588.723 186.133 585.981 183.714 585.598 179.194C585.008 172.095 584.929 164.868 584.339 157.849C583.111 143.046 581.66 128.259 580.353 113.456C580.05 110.082 580.018 106.692 579.779 103.317C579.316 97.3166 582.202 93.4169 587.48 91.0612C594.032 88.2379 601.033 86.5943 608.159 86.2065Z" fill="#10100F"/>
<path d="M1039.91 84.7581C1047.88 84.7581 1054.26 87.1615 1061.23 88.7851C1063.9 89.5342 1066.39 90.8356 1068.53 92.6051C1069.98 93.6428 1070.99 95.1846 1071.37 96.9278C1071.74 98.6711 1071.44 100.49 1070.54 102.028C1068.83 104.877 1065.41 105.784 1061.56 104.829C1055.44 103.059 1049.19 101.713 1042.88 100.802C1038.19 100.309 1033.31 101.439 1028.53 101.964C1026.61 102.171 1026.1 103.333 1026.25 105.291C1027.49 122.163 1028.74 139.035 1029.74 155.923C1030.17 163.022 1030.15 170.248 1030.11 177.299C1030.11 181.629 1027.57 184.303 1023.97 184.526C1020.11 184.765 1017.26 182.361 1016.87 177.904C1016.27 170.678 1016.19 163.42 1015.58 156.194C1014.34 141.391 1012.89 126.604 1011.58 111.801C1011.29 108.443 1011.24 105.052 1011.02 101.662C1010.64 95.8204 1013.46 92.0003 1018.59 89.6764C1025.34 86.7378 1032.56 85.0702 1039.91 84.7581Z" fill="#10100F"/>
<path d="M696.41 120.762C696.41 117.022 696.267 113.265 696.41 109.525C696.618 104.909 699.344 101.964 703.107 101.932C706.87 101.901 709.485 104.511 709.867 109.047C711.254 125.665 712.53 142.298 713.837 158.915C714.204 163.499 714.651 168.068 714.954 172.652C715.169 174.568 715.137 176.505 714.858 178.414C714.615 180.051 713.793 181.547 712.542 182.633C711.29 183.719 709.692 184.322 708.034 184.335C706.314 184.474 704.605 183.964 703.244 182.906C701.883 181.848 700.969 180.319 700.683 178.621C699.936 173.972 699.451 169.285 699.233 164.582C698.308 149.986 697.527 135.374 696.681 120.762H696.41Z" fill="#10100F"/>
<path d="M704.048 76.5607C704.987 76.5912 705.911 76.8083 706.766 77.1992C707.621 77.5901 708.389 78.1471 709.026 78.8375C709.662 79.528 710.155 80.3382 710.475 81.2208C710.794 82.1033 710.935 83.0407 710.888 83.978C710.926 85.753 710.261 87.4715 709.037 88.7593C707.813 90.0471 706.128 90.8 704.351 90.8541C702.335 90.877 700.39 90.1183 698.923 88.7377C697.457 87.3572 696.585 85.4625 696.49 83.4527C696.65 81.5656 697.517 79.8081 698.918 78.5307C700.319 77.2533 702.15 76.5499 704.048 76.5607Z" fill="#10100F"/>
<path d="M340.823 194.999C335.163 194.124 332.947 190.001 332.628 185.051C332.118 177.092 332.261 169.038 332.086 161.032C331.799 147.789 331.464 147.391 318.437 148.744C309.525 149.667 300.676 151.387 291.667 150.575C286.884 150.161 283.52 147.773 283.44 142.616C283.36 137.459 287.187 135.406 291.699 134.658C294.489 134.212 297.343 134.164 300.165 133.973C307.213 133.464 314.308 133.193 321.339 132.382C331.113 131.331 331.512 130.79 331.001 121.017C330.667 114.427 329.694 107.885 329.407 101.312C329.168 96.1545 330.89 91.6182 336.837 91.1884C342.784 90.7587 345.112 95.0881 345.622 100.182C346.356 107.678 346.754 115.207 347.025 122.736C347.264 129.23 350.374 131.936 356.815 131.761C365.776 131.49 374.736 131.761 383.713 131.522C388.703 131.411 393.933 131.522 394.571 137.73C395.272 144.447 389.947 146.404 384.462 146.993C379.791 147.487 375.039 147.328 370.32 147.439C345.192 148.012 348.524 144.033 347.998 170.439C347.886 176.09 348.221 181.756 347.998 187.391C347.727 191.736 345.24 194.362 340.823 194.999Z" fill="#F4844C"/>
<path d="M383.059 91.9844C388.257 92.6051 391.573 94.6425 391.653 99.8155C391.728 100.628 391.634 101.448 391.378 102.223C391.122 102.998 390.709 103.712 390.164 104.321C389.62 104.93 388.956 105.421 388.214 105.763C387.472 106.105 386.667 106.291 385.849 106.31C381.066 106.755 377.638 104.718 377.112 99.545C376.554 94.929 379.631 93.0508 383.059 91.9844Z" fill="#F4844C"/>
<path d="M303.577 183.698C303.306 188.473 300.771 191.084 296.546 191.386C292.321 191.688 289.26 189.571 289.132 185.019C289.004 180.467 291.986 178.095 296.068 177.713C296.963 177.551 297.883 177.582 298.766 177.805C299.649 178.027 300.473 178.435 301.185 179.002C301.896 179.569 302.478 180.281 302.891 181.091C303.303 181.901 303.537 182.79 303.577 183.698Z" fill="#F4844C"/>
<path d="M394.411 181.183C393.981 185.704 391.223 187.884 386.854 187.677C382.485 187.47 379.663 184.971 379.807 180.499C379.95 176.026 382.995 173.575 387.284 173.814C391.573 174.052 394.14 176.679 394.411 181.183Z" fill="#F4844C"/>
<path d="M299.751 105.259C298.156 109.636 295.271 111.722 290.997 110.464C290.184 110.276 289.417 109.922 288.746 109.426C288.075 108.929 287.513 108.3 287.096 107.577C286.679 106.855 286.415 106.054 286.321 105.226C286.227 104.397 286.304 103.558 286.549 102.76C287.362 99.0834 289.929 96.9346 293.66 97.4758C294.594 97.5322 295.505 97.7862 296.333 98.2208C297.161 98.6554 297.887 99.2608 298.463 99.9968C299.039 100.733 299.452 101.583 299.674 102.49C299.896 103.397 299.922 104.341 299.751 105.259Z" fill="#F4844C"/>
</g>
<defs>
<clipPath id="clip0_83_348">
<rect width="1071.53" height="270" fill="white"/>
</clipPath>
</defs>
</svg>
