<svg class="symbol seed" xmlns="http://www.w3.org/2000/svg" viewBox="0 0 59 56" fill="#E9EDD8">
    <path class="a" d="M27.93,43.12v-8c-.13-3.81-.4-4.08-4.15-3.95C17.31,31.41,5.34,33.19,3,33.18A2.85,2.85,0,0,1,.28,31.41a2.83,2.83,0,0,1,.55-3.2,8.84,8.84,0,0,1,7.08-2.93,126,126,0,0,0,13.42-.89c5.79-.61,5.79-.61,5.79-6.54,0-3.06-.75-6-1.16-9.06a19.41,19.41,0,0,1-.27-5A4.09,4.09,0,0,1,29.43.35C31.14.48,32.16,1.64,32.5,4c.41,4.83.75,9.6.88,14.3,0,4.36.14,4.36,4.36,4.36,4.91,0,12.74.13,17.51.13,2,0,3.74,1.3,3.74,2.8s-1.18,5-4.15,4.63c-5.85-1.21-13.35,0-18.66-.14-1.91,0-2.46.75-2.32,2.45.27,6,.41,11.11.89,17A4.28,4.28,0,0,1,32.57,54c-2.32,1.29-4.64.14-4.77-2.66C27.8,49,27.8,46.05,27.93,43.12Z"/>
    <path class="a" d="M49.05,49.52c.27-2.45,2.18-4.36,4.36-4.22a3.76,3.76,0,0,1,3.47,4.09,4.9,4.9,0,0,1-4.63,4.08A3.68,3.68,0,0,1,49.05,49.52Z"/>
    <path class="a" d="M11.32,6.55C11.32,8,8.59,10.63,7,10.77A3.69,3.69,0,0,1,3.35,7.09C3.48,4.91,5.53,2.6,7.09,2.6,9,2.8,11.32,5,11.32,6.55Z"/>
    <path class="a" d="M48.09,4.5C48.23,1.57,49.8-.13,52.45,0a3.5,3.5,0,0,1,3.07,3.47c-.14,2.18-2.32,4.63-4.16,4.63S48.09,6.68,48.09,4.5Z"/>
    <path class="a" d="M8.73,56a2.84,2.84,0,0,1-2.86-3.2A4.64,4.64,0,0,1,10.5,48.3a3.5,3.5,0,0,1,3.06,3.33A5,5,0,0,1,8.73,56Z"/>
</svg>