<svg width="299" height="80" viewBox="0 0 299 80" fill="none" xmlns="http://www.w3.org/2000/svg">
<path d="M92.5017 56.0645C91.9888 58.5825 91.9459 61.1737 92.3753 63.7074C92.9664 67.0376 94.8741 68.7334 98.3063 68.9372C104.718 69.3163 110.4 67.2129 115.532 63.5443C116.527 62.8351 117.257 61.7263 118.019 60.7358C119.955 58.2248 121.325 57.9436 124.227 59.6964C124.353 59.1584 124.451 58.6141 124.52 58.0659C124.871 53.4883 125.315 48.9229 126.526 44.4717C127.366 41.39 128.454 38.4062 130.195 35.6996C132.196 32.5691 134.788 30.0948 138.306 28.7252C142.79 26.9887 146.895 28.2442 149.61 32.1941C151.852 35.4551 152.826 39.2093 153.172 43.0531C153.686 48.8006 153.955 54.5685 154.228 60.3323C154.403 64.0253 154.403 67.7306 154.481 71.4318C154.503 71.8011 154.503 72.1713 154.481 72.5406C154.293 74.3545 153.107 75.6589 151.46 75.9034C150.643 76.0171 149.813 75.8324 149.121 75.3832C148.429 74.9339 147.922 74.2503 147.694 73.4577C147.367 72.1705 147.199 70.8481 147.192 69.5201C146.956 62.4927 146.883 55.4571 146.524 48.4378C146.373 45.503 145.737 42.5803 145.158 39.6862C144.879 38.5362 144.409 37.4409 143.768 36.4456C142.953 35.0923 142.232 34.9211 140.772 35.5162C138.689 36.3641 137.255 37.9416 136.121 39.8125C134.504 42.4816 133.443 45.4502 133.003 48.5397C132.233 53.957 131.695 59.407 131.14 64.8446C131.018 66.0675 131.299 67.3597 131.263 68.6111C131.274 69.5632 131.122 70.5103 130.814 71.4114C130.548 72.1141 130.035 72.6955 129.371 73.0468C128.707 73.398 127.937 73.4948 127.207 73.3191C125.788 73.0297 124.908 71.9291 124.761 70.2782C124.622 68.4684 124.492 66.6545 124.353 64.7713C122.723 66.4262 121.394 68.1301 119.731 69.3937C114.914 73.0192 109.219 75.297 103.23 75.9931C101.176 76.2458 99.0996 76.2581 97.0426 76.0298C90.5206 75.3287 86.3221 71.1587 85.2216 64.6612C84.5367 60.642 84.9322 56.684 85.7474 52.7546C86.8439 47.4555 88.8331 42.564 92.3753 38.3899C95.5711 34.6235 99.5047 32.1248 104.543 31.868C106.311 31.7856 108.08 32.0231 109.765 32.5691C113.939 33.9591 115.879 37.9253 114.713 42.1605C113.898 45.0383 112.239 47.3658 110.054 49.3224C106.585 52.4783 102.363 54.6891 97.7926 55.7424C96.1703 56.1215 94.4338 55.9666 92.5017 56.0645ZM94.3238 49.0248C98.6568 50.0439 106.895 44.1333 107.739 39.7514C105.908 38.7242 103.777 38.7649 101.465 40.049C97.9109 42.0096 95.9543 45.238 94.3238 49.0248Z" fill="#10100F"/>
<path d="M194.489 70.0133C191.684 71.6764 189.165 73.3884 186.467 74.7254C180.634 77.6114 175.094 76.7636 170.044 72.8055C161.484 66.1083 158.369 53.3212 163.045 43.7502C165.87 37.9701 170.215 33.9673 176.863 33.1846C182.378 32.5447 187.241 34.2078 191.354 37.9497C191.842 38.4884 192.275 39.0742 192.646 39.6984L193.278 39.3723C193.323 38.606 193.396 37.8438 193.405 37.0774C193.486 29.459 193.474 21.8364 193.669 14.218C193.755 10.8265 194.244 7.44327 194.583 4.06001C194.649 3.39624 194.797 2.74319 195.023 2.11565C195.234 1.43908 195.677 0.858252 196.273 0.474569C196.869 0.090887 197.58 -0.0712762 198.284 0.016392C198.953 0.0768649 199.585 0.355186 200.081 0.808711C200.577 1.26224 200.911 1.86595 201.031 2.52735C201.127 3.11052 201.152 3.70322 201.104 4.29235C200.946 8.36858 200.652 12.4122 200.615 16.4762C200.497 29.9277 200.46 43.4119 200.416 56.8797C200.416 58.3594 200.628 59.835 200.628 61.3106C200.644 62.7886 200.562 64.2661 200.383 65.7333C199.857 69.7565 198.1 70.9183 194.489 70.0133ZM178.534 40.2773C174.809 40.1427 172.012 42.4621 170.011 45.9432C166.029 52.8361 168.56 63.3039 175.237 67.7021C177.707 69.3326 180.328 69.6505 183.039 68.4236C186.027 67.0744 188.851 65.4806 190.747 62.6476C191.06 62.1432 191.477 61.711 191.97 61.3799C193.017 60.7562 193.303 59.8717 193.14 58.7548C192.369 53.4842 190.755 48.5235 187.433 44.272C185.346 41.602 182.472 40.3873 178.534 40.2773Z" fill="#10100F"/>
<path d="M35.7648 15.1065H33.1316C23.9519 15.0848 14.7723 15.0603 5.5926 15.0331C4.63373 15.0466 3.67645 14.9509 2.73924 14.7478C1.97419 14.5781 1.28832 14.1564 0.79161 13.5503C0.294896 12.9441 0.0161083 12.1888 0 11.4053C0.0032865 10.586 0.288867 9.7929 0.808602 9.15957C1.32834 8.52623 2.05047 8.09139 2.85336 7.92829C3.57856 7.79077 4.31688 7.73471 5.05453 7.76116C14.3809 7.81415 23.7114 8.03834 33.0338 7.89975C40.371 7.79377 47.6715 7.21494 54.9924 6.9133C60.6991 6.68096 66.3813 6.50568 72.0799 6.3997C73.1919 6.38011 74.3018 6.50479 75.3817 6.77064C77.3423 7.25163 78.4633 8.93919 78.1535 10.7205C77.8437 12.5018 76.3192 13.2926 74.1099 13.2396C70.9426 13.1662 67.7591 13.3048 64.5919 13.4801C58.1637 13.8388 51.7396 14.2953 45.3113 14.703C44.5858 14.7519 43.8643 14.8253 42.9838 14.8946C42.9838 15.5834 42.9838 16.15 42.9838 16.7166C43.1183 30.4087 43.3548 44.1007 43.3466 57.7927C43.3466 62.7372 42.7718 67.6857 42.4417 72.6302C42.399 73.0715 42.2961 73.5049 42.1359 73.9183C41.6223 75.3572 40.5381 76.1969 39.197 76.2417C38.4874 76.245 37.7953 76.0219 37.2213 75.6048C36.6473 75.1876 36.2213 74.5983 36.0053 73.9224C35.8318 73.3578 35.7546 72.768 35.777 72.1777C35.9075 66.7034 36.2091 61.2331 36.1847 55.7628C36.1439 42.5884 35.9564 29.4181 35.826 16.2438C35.8586 15.9421 35.8137 15.6568 35.7648 15.1065Z" fill="#10100F"/>
<path d="M241.834 50.4189C241.084 45.9759 239.853 42.0178 236.69 38.9362C235.06 37.3057 232.969 36.5761 230.682 36.3926C226.524 36.0625 222.411 36.5068 218.302 37.106C217.133 37.2772 215.963 37.4729 214.785 37.5625C212.718 37.7174 211.145 36.8492 210.378 35.2269C209.392 33.1357 210.737 30.5147 212.954 30.743C216.444 31.118 219.656 29.8666 223.014 29.5487C226.373 29.2307 229.785 28.7334 233.177 29.4264C235.513 29.8626 237.734 30.7786 239.698 32.1166C241.663 33.4545 243.328 35.1854 244.59 37.1997C247.191 41.1863 248.462 45.6416 249.159 50.2885C249.433 52.1065 249.869 53.9163 249.302 55.7833C249.232 56.2831 249.335 56.7919 249.592 57.2262C249.931 57.8909 250.083 58.6353 250.032 59.3799C249.981 60.1244 249.729 60.8411 249.302 61.4533C248.669 62.5375 247.876 63.52 246.95 64.3678C240.86 69.4916 234.183 73.4659 226.084 74.432C222.146 74.8967 218.241 74.7214 214.487 73.3151C210.953 71.9903 208.397 69.6873 207.708 65.7863C207.199 62.9044 208.165 60.369 209.869 58.1149C212.4 54.7683 215.832 52.612 219.676 51.1119C226.157 48.5806 232.797 48.4338 239.519 49.995C240.021 50.1132 240.522 50.2477 241.027 50.366C241.162 50.4067 241.313 50.3945 241.834 50.4189ZM242.495 58.8649C237.746 56.0686 230.564 55.8892 226.19 56.6963C223.038 57.2323 220.072 58.5497 217.561 60.528C216.806 61.116 216.133 61.8014 215.559 62.5661C214.336 64.2822 214.711 65.5866 216.672 66.4304C217.492 66.7668 218.35 67.001 219.228 67.1274C228.383 68.5989 235.496 64.3393 242.495 58.8649V58.8649Z" fill="#10100F"/>
<path d="M277.416 28.1179C279.234 28.3951 281.084 28.5255 282.858 28.9902C283.544 29.187 284.135 29.626 284.522 30.2257C284.909 30.8254 285.065 31.5451 284.961 32.2512C284.867 32.9935 284.515 33.6793 283.968 34.1894C283.421 34.6995 282.712 35.0017 281.965 35.0434C281.529 35.0842 281.076 34.9782 280.636 35.0108C278.215 35.1902 275.773 35.2554 273.38 35.6223C271.324 35.9802 269.405 36.8952 267.833 38.2677C267.313 38.6831 266.842 39.1547 266.426 39.674C265.085 41.4553 265.436 42.935 267.547 43.6402C269.431 44.2475 271.432 44.5125 273.384 44.9079C276.352 45.5112 279.364 45.9473 282.287 46.7259C286.918 47.8914 291.079 50.4529 294.206 54.0631C297.899 58.3676 299.387 63.2917 298.046 68.9169C296.501 75.4144 291.401 79.621 284.729 79.9634C281.093 80.121 277.466 79.4998 274.09 78.1413C268.887 76.1879 263.982 73.518 259.517 70.209C257.858 68.9717 256.346 67.5494 255.009 65.9697C254.116 64.8037 253.46 63.4744 253.077 62.0566C252.873 61.373 252.916 60.6396 253.199 59.9846C253.481 59.3296 253.985 58.7948 254.622 58.4736C255.221 58.1734 255.896 58.0618 256.56 58.1534C257.224 58.2451 257.844 58.5358 258.339 58.9872C258.733 59.3219 259.087 59.7008 259.395 60.1163C261.361 62.7283 263.87 64.8837 266.748 66.4344C269.846 68.1505 273.018 69.7525 276.234 71.2403C278.534 72.2979 281.04 72.8311 283.571 72.8015C289.168 72.7607 292.539 68.228 291.002 62.831C290.15 59.8106 288.112 57.7276 285.601 56.0278C282.389 53.8593 278.696 53.093 274.962 52.453C272.414 52.0168 269.846 51.6377 267.323 51.0956C265.95 50.798 264.623 50.3182 263.377 49.6689C258.963 47.3495 257.263 42.2665 259.264 37.697C260.675 34.4931 263.19 32.3613 266.223 30.8082C269.72 29.0188 273.486 28.338 277.416 28.1179Z" fill="#10100F"/>
<path d="M78.8342 53.0724C78.8342 57.8823 78.8342 62.6882 78.8342 67.4981C78.8263 68.2395 78.7361 68.9778 78.5651 69.6993C78.4029 70.5236 77.9523 71.2632 77.2941 71.7854C76.636 72.3076 75.8134 72.5782 74.9737 72.5487C74.1341 72.5193 73.3324 72.1917 72.7125 71.6247C72.0925 71.0577 71.6948 70.2884 71.5907 69.4547C71.5377 68.7179 71.5377 67.9782 71.5907 67.2413C71.6152 63.0999 71.66 58.9584 71.66 54.817C71.66 50.7408 71.66 46.6645 71.5663 42.5883C71.516 41.052 71.3799 39.5196 71.1586 37.9985C71.0392 37.2637 71.1767 36.5102 71.5479 35.865C71.9192 35.2198 72.5015 34.7222 73.1968 34.4562C74.7906 33.857 76.8654 34.5215 77.5828 36.0867C77.9887 37.1096 78.2028 38.1984 78.2146 39.2988C78.4225 43.8846 78.5488 48.4744 78.7037 53.0601L78.8342 53.0724Z" fill="#10100F"/>
<path d="M74.8437 27.6857C74.407 27.6361 73.9741 27.5585 73.5474 27.4533C71.2566 26.7889 70.1479 25.3826 70.4373 23.5442C70.7063 21.8485 72.8015 20.2507 74.8722 20.1528C76.6617 20.0713 78.4185 21.5754 78.7364 23.4546C79.1237 25.7617 77.5054 27.6286 74.8437 27.6857Z" fill="#10100F"/>
</svg>
