<svg width="197" height="375" viewBox="0 0 197 375" fill="none" xmlns="http://www.w3.org/2000/svg">
<path d="M27.1857 92.9388C37.3557 98.0888 47.0557 97.1088 56.5057 91.0788C72.5057 80.8588 76.9157 57.8088 73.6257 45.6288C72.8334 42.5463 71.4213 39.6575 69.4757 37.1388C67.9239 35.1138 65.9024 33.4973 63.5858 32.4288C53.9158 28.0688 39.5857 32.3288 33.9357 41.2688C32.0329 44.2271 31.0759 47.6947 31.192 51.2102C31.3081 54.7257 32.4919 58.1225 34.5858 60.9488C36.0458 62.9488 37.7957 64.4788 40.4257 64.5688C41.2137 64.651 42.0087 64.5064 42.7173 64.1521C43.4259 63.7978 44.0186 63.2485 44.4257 62.5688C44.8571 61.8922 45.0607 61.0952 45.0068 60.2945C44.9528 59.4939 44.6441 58.7315 44.1257 58.1189C43.4857 57.2289 42.5957 56.5089 41.9557 55.6089C39.8657 52.6089 39.3257 49.5489 41.1458 46.2389C44.1458 40.7089 53.4958 37.7088 59.1458 40.4388C60.7085 41.2398 62.0121 42.4672 62.9057 43.9789C64.0506 45.7116 64.7765 47.6871 65.0258 49.7489C66.4058 62.6289 62.7157 73.6888 52.3457 81.8088C45.8757 86.8688 38.5557 87.8089 30.8357 84.3589C15.8357 77.5489 9.61574 65.0389 8.44574 49.4689C7.92285 42.4315 9.79799 35.4245 13.7657 29.5889C20.0729 19.9095 29.6594 12.8296 40.7657 9.64879C49.981 6.96368 59.8495 7.62873 68.6212 11.5259C77.393 15.423 84.5013 22.3004 88.6857 30.9388C94.9857 44.1988 95.7557 58.1489 93.6057 72.3589C91.2357 87.9989 85.9057 102.789 79.5357 117.179C67.1357 145.179 56.5957 173.939 46.7457 202.929C42.2457 216.159 38.0457 229.469 35.6157 243.259C33.6857 254.259 33.4057 265.339 32.6957 276.409C31.8557 289.619 32.7957 302.729 34.3857 315.819C35.494 325.013 39.0512 333.74 44.6857 341.089C52.4672 351.608 62.8266 359.946 74.7657 365.299C89.7468 372.018 106.14 374.984 122.526 373.939C125.856 373.741 129.193 373.715 132.526 373.859C149.996 374.609 166.166 370.679 180.756 360.689C192.066 352.939 197.586 342.389 196.756 328.689C195.246 303.739 189.406 280.119 174.826 259.269C172.486 255.929 172.596 255.929 175.606 253.139C179.336 249.699 183.076 246.259 186.666 242.669C193.796 235.529 196.506 226.949 194.666 216.979C194.196 214.489 193.666 211.979 193.236 209.499C189.766 190.169 178.306 173.889 172.456 155.499C171.606 152.809 168.136 152.689 166.126 154.839C165.242 155.965 164.592 157.257 164.216 158.639C162.696 162.639 161.296 166.639 159.646 170.639C157.486 175.759 155.196 180.839 151.876 185.329C147.096 191.799 140.306 194.189 132.556 192.099C129.471 191.301 126.58 189.887 124.057 187.941C121.534 185.996 119.431 183.559 117.876 180.779C113.666 173.629 112.006 165.779 111.456 157.609C111.472 156.342 111.344 155.077 111.076 153.839C110.92 153.177 110.584 152.572 110.106 152.089C109.628 151.606 109.026 151.265 108.366 151.102C107.706 150.94 107.014 150.963 106.367 151.169C105.719 151.375 105.141 151.755 104.696 152.269C103.552 153.593 102.685 155.134 102.146 156.799C98.5235 165.608 95.4248 174.624 92.8657 183.799C89.4697 195.24 88.2852 207.224 89.3757 219.109C90.3057 229.429 92.0757 239.629 97.2257 248.789C97.9725 249.967 98.4377 251.302 98.5851 252.69C98.7325 254.077 98.5582 255.48 98.0757 256.789C92.6757 273.439 89.3457 290.549 86.8957 307.849C85.1784 318.686 85.2729 329.733 87.1757 340.539C88.8657 349.399 92.7757 357.009 99.8057 362.849C100.396 363.339 100.926 363.909 101.896 364.849C100.976 365.099 100.656 365.289 100.386 365.239C80.9257 361.769 64.3857 353.239 52.1857 337.239C46.7238 330.349 43.4157 322 42.6757 313.239C41.7427 302.168 41.4489 291.053 41.7957 279.949C42.4057 261.509 44.2857 243.269 49.8857 225.539C59.993 192.964 71.7447 160.923 85.0957 129.539C88.7357 121.089 92.4158 112.649 95.4658 103.959C100.046 90.8789 103.466 77.5489 103.976 63.6089C104.486 49.6689 102.316 36.0989 95.3358 23.6089C91.9458 17.6089 87.8558 12.1289 81.7758 8.60888C59.8858 -4.07113 36.6357 -2.91116 17.0557 13.1988C8.64573 20.1188 2.63573 28.7488 0.685729 39.7888C-3.00427 60.4688 8.53573 83.4888 27.1857 92.9388ZM101.186 351.939C100.786 350.649 101.906 350.389 102.726 349.939C104.586 349.039 106.516 348.259 107.926 346.669C108.222 346.399 108.419 346.036 108.482 345.64C108.546 345.244 108.473 344.838 108.276 344.489C107.886 343.869 107.216 343.969 106.576 344.059C104.376 344.359 102.176 344.629 99.9757 344.929C98.6357 345.109 97.3657 345.129 97.0257 343.419C96.7157 341.879 97.8957 341.609 98.9357 341.199C100.706 340.519 102.606 340.119 104.096 338.839C104.365 338.668 104.58 338.423 104.716 338.135C104.852 337.847 104.904 337.526 104.866 337.209C104.762 336.905 104.563 336.644 104.298 336.463C104.032 336.283 103.716 336.194 103.396 336.209C101.816 336.149 100.226 336.209 98.6457 336.069C97.3257 335.969 95.5457 336.479 95.2557 334.439C95.0057 332.719 96.5457 332.539 97.6757 332.019C98.978 331.444 100.247 330.797 101.476 330.079C102.416 329.509 103.476 328.729 102.966 327.439C102.586 326.359 101.456 326.439 100.516 326.439C99.0857 326.439 97.6557 326.519 96.2257 326.439C95.6157 326.439 94.9457 326.229 94.8457 325.439C94.8115 325.125 94.8862 324.808 95.0573 324.542C95.2284 324.277 95.4855 324.078 95.7857 323.979C97.6557 323.109 99.7057 322.629 101.356 321.329C101.976 320.839 102.576 320.259 102.186 319.329C101.886 318.619 101.186 318.629 100.576 318.599C99.4657 318.599 98.3557 318.599 97.2457 318.599C96.2457 318.599 95.2457 318.599 95.0457 317.339C94.985 317.064 94.983 316.78 95.0397 316.504C95.0964 316.229 95.2106 315.968 95.3748 315.74C95.539 315.512 95.7495 315.32 95.9927 315.179C96.2358 315.037 96.506 314.949 96.7857 314.919C98.4897 314.528 100.105 313.819 101.546 312.829C102.326 312.249 103.136 311.549 102.976 310.519C102.816 309.489 101.666 309.429 100.726 309.249C99.2057 308.939 96.6257 310.249 96.4357 307.879C96.2857 306.029 98.9257 306.539 100.306 305.959C100.446 305.899 100.616 305.869 100.756 305.809C102.316 305.139 104.756 305.009 104.686 302.949C104.626 300.689 102.116 301.129 100.546 300.659C100.096 300.519 99.6057 300.509 99.1457 300.409C98.5057 300.259 97.8857 299.969 97.7957 299.259C97.6657 298.349 98.2357 297.829 99.0257 297.479C100.358 296.971 101.649 296.359 102.886 295.649C104.596 294.539 104.466 293.369 102.666 292.559C101.921 292.287 101.155 292.076 100.376 291.929C100.135 291.886 99.9154 291.764 99.7509 291.583C99.5864 291.403 99.4861 291.172 99.4657 290.929C99.4269 290.615 99.5085 290.298 99.6941 290.042C99.8796 289.786 100.155 289.61 100.466 289.549C102.586 288.949 104.866 288.849 106.856 287.759C107.806 287.239 108.996 286.699 108.766 285.359C108.536 284.019 107.316 284.359 106.436 284.199L102.756 283.389L102.596 282.759C103.486 282.459 104.396 282.219 105.246 281.849C106.556 281.279 108.136 280.709 108.246 279.079C108.316 276.999 106.296 277.429 105.076 276.999C104.076 276.629 102.756 276.559 102.746 275.079C102.746 273.379 104.076 273.199 105.366 272.929C106.923 272.644 108.457 272.247 109.956 271.739C111.436 271.209 112.876 270.469 112.876 268.409C110.546 267.289 107.666 268.649 105.396 266.409C108.616 263.629 114.246 265.409 116.646 260.549C113.716 259.549 110.766 261.449 107.886 259.549C109.066 258.049 110.706 258.109 112.076 257.639C113.139 257.325 114.181 256.944 115.196 256.499C115.655 256.353 116.056 256.065 116.342 255.677C116.628 255.289 116.783 254.821 116.786 254.339C116.696 253.129 115.616 252.989 114.686 252.829C111.581 252.263 108.641 251.017 106.076 249.179C104.266 247.936 102.958 246.089 102.386 243.969C95.8446 225.249 95.1471 204.984 100.386 185.859C101.726 180.859 103.386 176.009 105.116 170.469C106.856 172.349 106.966 173.969 107.426 175.399C108.812 180.13 110.975 184.597 113.826 188.619C119.186 195.859 126.266 200.419 135.286 201.319C144.846 202.319 152.726 198.879 158.546 191.099C162.296 186.099 164.756 180.419 167.256 174.749C167.876 173.339 168.256 171.749 169.406 170.679C169.856 170.959 170.226 171.059 170.336 171.289C178.266 186.539 185.456 202.009 187.806 219.339C188.756 226.339 187.096 232.169 182.356 237.269C178.062 241.729 173.35 245.768 168.286 249.329C162.976 253.239 162.526 255.129 165.806 260.869C167.696 264.169 169.806 267.319 171.806 270.569C181.126 285.779 185.626 302.499 187.286 320.099C187.646 323.889 188.016 327.689 188.126 331.489C188.376 340.969 184.426 348.289 176.586 353.659C166.978 360.297 155.816 364.334 144.186 365.379C139.927 365.902 135.622 365.936 131.356 365.479C130.526 365.369 129.036 365.479 129.596 364.069C130.596 361.569 129.296 361.689 127.596 362.069C126.216 362.399 124.856 362.869 123.466 363.199C121.616 363.629 119.746 364.069 117.936 362.659C117.656 360.769 120.456 360.799 120.246 358.719C117.826 357.219 115.496 358.719 113.246 359.439C110.996 360.159 109.246 359.999 107.686 357.869C108.686 355.869 111.686 356.059 112.596 353.499C110.746 352.359 108.886 353.139 107.106 353.189C105.836 353.189 104.576 353.439 103.316 353.439C102.845 353.458 102.381 353.321 101.996 353.05C101.611 352.779 101.326 352.388 101.186 351.939Z" fill="#10100F"/>
<path d="M138.576 146.449C140.266 145.599 141.376 143.889 143.576 143.269C144.136 145.269 143.446 146.779 143.036 148.269C141.69 153.163 139.833 157.903 137.496 162.409C136.678 163.949 136.008 165.563 135.496 167.229C135.195 167.982 135.176 168.818 135.443 169.584C135.711 170.349 136.246 170.992 136.95 171.394C137.654 171.796 138.48 171.93 139.275 171.771C140.07 171.612 140.78 171.171 141.276 170.529C142.138 169.601 142.886 168.574 143.506 167.469C147.673 160.7 150.368 153.129 151.416 145.249C151.991 141.637 151.706 137.941 150.586 134.459C149.659 131.593 149.572 128.522 150.336 125.609C153.222 111.804 154.464 97.7061 154.036 83.6091C154.036 82.9791 154.036 82.3391 153.946 81.7091C153.826 80.7991 153.856 79.6391 152.596 79.5691C151.656 79.5691 151.336 80.4391 151.126 81.1991C150.706 82.7191 150.326 84.2591 150.036 85.8191C147.856 97.3391 145.216 108.769 142.506 120.179C141.776 123.179 140.306 125.029 137.056 125.919C130.776 127.639 127.186 133.189 127.346 139.979C127.546 146.539 132.636 149.459 138.576 146.449ZM138.576 130.949C138.916 134.779 137.106 137.069 134.346 139.139C132.916 134.299 133.186 133.779 138.556 130.939L138.576 130.949Z" fill="#F7E4AA"/>
<path d="M145.116 224.679C145.097 224.171 145.179 223.665 145.356 223.188C145.534 222.712 145.804 222.276 146.15 221.904C146.497 221.533 146.913 221.233 147.376 221.023C147.838 220.813 148.338 220.696 148.846 220.679C149.869 220.658 150.861 221.03 151.618 221.718C152.375 222.407 152.839 223.359 152.916 224.379C152.937 225.407 152.554 226.402 151.849 227.15C151.144 227.899 150.173 228.34 149.146 228.379C148.637 228.407 148.127 228.333 147.647 228.161C147.167 227.99 146.726 227.723 146.351 227.379C145.975 227.034 145.672 226.617 145.46 226.154C145.248 225.69 145.131 225.189 145.116 224.679V224.679Z" fill="#10100F"/>
<path d="M158.426 222.889C158.404 222.376 158.486 221.863 158.666 221.382C158.847 220.901 159.121 220.461 159.475 220.088C159.828 219.715 160.253 219.416 160.724 219.211C161.195 219.005 161.702 218.895 162.216 218.889C163.173 218.922 164.085 219.305 164.78 219.964C165.474 220.624 165.903 221.515 165.986 222.469C166.006 223.448 165.647 224.397 164.984 225.117C164.32 225.837 163.404 226.272 162.427 226.331C161.45 226.391 160.487 226.07 159.741 225.436C158.996 224.801 158.524 223.903 158.426 222.929L158.426 222.889Z" fill="#10100F"/>
</svg>
