<svg width="238" height="190" viewBox="0 0 238 190" fill="none" xmlns="http://www.w3.org/2000/svg">
<g clip-path="url(#clip0_1263_2423)">
<path d="M149.21 141.59C151.21 134.43 152.38 127.06 154.9 119.59C147.895 118.26 140.707 118.199 133.68 119.41C136.85 123.35 140.49 124.29 143.81 122.47C145.62 121.47 146.5 121.87 146.41 124.09C146.336 127.18 145.975 130.257 145.33 133.28C142.38 145.81 138.98 158.14 132.13 169.28C129.58 173.43 127.22 178.11 128.13 183.49C128.237 184.465 128.128 185.452 127.81 186.38C127.577 187.299 127.062 188.123 126.337 188.735C125.613 189.347 124.715 189.718 123.77 189.795C122.825 189.872 121.879 189.652 121.065 189.165C120.251 188.678 119.609 187.949 119.23 187.08C118.537 185.598 118.195 183.976 118.23 182.34C118.57 153.44 110.75 126.01 103.05 98.56C102.39 96.21 101.73 93.86 101.05 91.56C100.37 89.26 100.42 87.06 102.72 84.37C96.06 86.11 89.91 84.37 84.05 87.12C89.1716 99.8158 93.2452 112.909 96.23 126.27C99.23 139.46 101.94 152.69 101.67 166.33C101.534 170.237 101.099 174.129 100.37 177.97C100.141 180.096 99.2889 182.107 97.92 183.75C95.5 186.32 91.99 185.97 91.02 182.62C90.23 179.88 88.6 180.2 86.68 179.97C74.68 178.53 63 181.09 51.27 182.9C36.27 185.2 21.44 185.36 6.68 181.54C5.11 181.13 3.52 180.73 2 180.17C0.920004 179.77 -0.150013 179.06 0.169987 177.67C0.419987 176.55 1.51001 176.36 2.51001 176.32C4.63001 176.22 6.73999 176.11 8.85999 176.15C25.1562 176.316 41.425 174.774 57.4 171.55C58.66 171.31 60.01 171.32 61.07 170.32C61.24 168.75 60.07 167.69 59.51 166.38C58.7 164.38 58.02 162.31 55.02 163.73C53.96 164.24 52.75 163.41 52.12 162.4C50.1472 159.552 49.3748 156.043 49.97 152.63C50.0953 151.986 50.3483 151.374 50.7142 150.829C51.08 150.285 51.5512 149.819 52.1 149.46C56.52 146.53 64.69 150.55 65.22 155.92C65.38 157.5 65.38 157.5 68.62 158.76C66.3602 155.149 65.0719 151.015 64.88 146.76C64.77 145.18 63.76 144.6 62.31 144.34C60.3834 144.046 58.4814 143.608 56.62 143.03C50.68 141.03 49.08 136.75 52.03 131.13C58.39 118.99 74.89 117.77 83.44 128.83C84.49 130.19 85.44 131.66 86.86 133.83C85.51 126.39 83.75 119.97 81.98 113.56C80.98 110.03 80.98 110.1 77.27 110.49C65.59 111.72 53.9 112.49 42.18 111.05C35.66 110.23 29.24 109.14 24.42 104.05C24.057 103.729 23.6495 103.463 23.21 103.26C17.85 100.26 17.27 99.51 18.21 93.68C24.43 54.79 43.77 25.1 79.83 7.72999C96.19 -0.150008 113.62 -2.20999 131.24 2.87001C155.24 9.81001 169.61 26.33 175.89 50.23C177.68 57.06 178.06 64.05 178.1 71.06C178.1 75.67 175.49 79.06 172.1 81.75C168.337 84.5988 164.223 86.9515 159.86 88.75C145.8 95.01 131.09 99.09 116.03 102.07C115.089 102.093 114.186 102.447 113.48 103.07C118.8 122.75 124.96 142.45 127.2 163.57C129.47 162.11 130.11 160.24 130.85 158.57C134.35 150.5 137.18 142.18 140.1 133.89C140.9 131.63 140.32 130.62 138.16 129.89C133.77 128.5 129.7 126.56 126.63 122.89C126.061 122.312 125.612 121.628 125.308 120.876C125.005 120.125 124.852 119.321 124.86 118.51C125.16 111.81 127.46 106.15 133.16 102.18C144.97 93.97 163.98 96.31 173.33 107.18C178.19 112.87 179.58 119.12 176.39 126.18C175.848 127.445 175.026 128.571 173.987 129.473C172.948 130.375 171.718 131.031 170.39 131.39C166.93 132.364 163.321 132.703 159.74 132.39C157.53 132.27 156.61 133.03 156.34 135.39C155.586 142.355 154.032 149.21 151.71 155.82C155.71 155.12 159.61 153.82 162.96 156.76C164.59 158.14 165.7 160.034 166.11 162.13C167.11 167.33 164.25 172.21 159.35 174.52C164.01 174.06 168.72 173.89 173.35 173.08C187.28 170.64 200.93 172.37 214.5 175.51C220.84 176.98 227.14 178.62 233.41 180.36C235.12 180.83 237.93 180.97 237.41 183.58C237.01 185.8 234.47 185.18 232.8 185.09C223.54 184.56 214.17 184.62 205.1 182.64C193.76 180.17 182.48 180.33 171.1 181.64C165.77 182.26 160.43 182.86 155.1 183.31C152.84 183.5 150.94 183.91 150.1 186.31C149.88 186.915 149.54 187.47 149.1 187.94C148.825 188.355 148.414 188.66 147.937 188.805C147.461 188.949 146.949 188.922 146.49 188.73C145.942 188.535 145.492 188.132 145.24 187.607C144.987 187.083 144.951 186.48 145.14 185.93C146.04 183.133 147.504 180.55 149.44 178.34C150.92 176.6 152.38 174.85 153.84 173.1C154.4 172.42 154.73 171.62 153.84 171.02C152.95 170.42 152.28 171.11 151.9 171.83C148.9 177.54 143.09 180.95 139.71 186.39C139.01 187.52 137.88 188.39 136.42 187.5C136.088 187.329 135.798 187.086 135.571 186.789C135.344 186.492 135.186 186.148 135.108 185.782C135.031 185.417 135.036 185.038 135.122 184.675C135.209 184.311 135.376 183.971 135.61 183.68C138.48 179.12 137.43 173.55 139.67 168.79C141.91 164.03 143.58 159.14 145.48 154.3C145.5 153.77 148.17 145.31 149.21 141.59ZM32.21 84.82C53.4 73.24 75.83 67.82 98.57 63.6C121.31 59.38 144.08 56.17 167.41 59.88C167.191 56.5032 166.407 53.1871 165.09 50.07C158.79 32.87 148.09 19.73 130.23 13.72C115.81 8.87998 101.49 10.39 87.86 16.48C58.89 29.4 41.31 52.16 32.38 82.1C32.2376 82.9997 32.1641 83.909 32.16 84.82H32.21ZM118.79 79.74C120.72 79.46 121.84 79.34 122.94 79.13C129.009 77.9854 135.145 77.224 141.31 76.85C142.73 76.76 145.1 75.85 145.31 78.08C145.53 80.08 143.15 80.21 141.65 80.54C136.73 81.61 131.78 82.54 126.84 83.54C124.96 83.9 122.84 83.8 123.84 86.88C124.17 87.88 122.84 88.37 121.93 88.73C119.913 89.3859 117.801 89.7035 115.68 89.67C113.75 89.76 112.93 90.77 113.34 92.47C113.75 94.17 115.14 93.09 116.14 93.04C116.3 93.0144 116.455 92.9637 116.6 92.89C127.252 89.9283 137.717 86.3319 147.94 82.12C153.073 80.0522 157.968 77.437 162.54 74.32C163.91 73.32 165.61 72.54 166.11 70.32C162.427 68.9176 158.538 68.1337 154.6 68C138.6 67.08 122.77 68.83 107.06 71.71C101.28 72.77 101.27 72.71 101.53 78.47C101.53 78.74 101.76 79 102.02 79.56C103.11 77.8 104.02 76.16 105.14 74.56C105.343 74.2004 105.672 73.9282 106.063 73.7954C106.454 73.6626 106.88 73.6784 107.26 73.84C108.17 74.22 108.2 75.03 108.15 75.84C108.09 76.93 107.15 77.96 108.03 79.32C109.62 79.2 110.9 78.16 112.31 77.51C115.86 75.89 119.37 74.19 122.93 72.61C124.07 72.1 125.69 71.15 126.45 72.61C127.45 74.42 125.33 74.95 124.25 75.76C122.73 76.92 120.78 77.45 118.74 79.74H118.79ZM34.7 97.83C36.14 99.24 38.02 99.24 39.7 99.49C48.93 100.8 58.19 100.31 67.44 99.63C69.71 99.47 71.97 99.22 74.23 98.93C75.23 98.79 76.85 99.03 76.64 97.31C76.43 95.59 75.19 96.04 74.1 96.58C73.26 96.99 72.28 96.89 72.02 96.05C71.27 93.68 69.79 94.37 68.17 94.79C65.02 95.6 61.86 96.34 58.68 96.98C57.41 97.24 55.84 97.28 55.49 95.63C55.2 94.26 56.49 93.78 57.59 93.36C59.8567 92.4667 62.1333 91.5967 64.42 90.75C65.87 90.2 67.23 89.81 65.86 87.75C65.2 86.75 66.3 85.98 67.29 85.7C70.75 87.08 71.69 85.47 72.29 83.3C72.4608 82.7048 72.8447 82.1934 73.3685 81.8632C73.8924 81.5331 74.5194 81.4073 75.13 81.51C77.2277 81.9939 79.3945 82.1022 81.53 81.83C82.45 81.67 83.39 82.49 83.93 81C83.9742 80.7915 84.0682 80.5967 84.2041 80.4324C84.34 80.2681 84.5137 80.1391 84.7102 80.0566C84.9068 79.974 85.1204 79.9403 85.3328 79.9583C85.5453 79.9763 85.7501 80.0455 85.93 80.16C87.29 80.84 87.62 80.27 87.68 79C87.68 78 87.81 76.91 89.07 76.78C90.33 76.65 90.64 77.66 91.16 78.5C91.5 79.04 91.42 80.03 92.57 80.04C92.79 78.29 92.99 76.63 93.23 74.72C92.113 74.8176 91.0017 74.9712 89.9 75.18C79.9437 77.5714 70.1257 80.5058 60.49 83.97C53 86.71 45.62 89.73 38.86 94.03C37.31 95.03 35.31 95.74 34.65 97.83H34.7ZM171.7 118.47C170.29 110.35 161.8 104.47 151.7 104.09C142.24 103.72 135.64 106.91 134.11 112.82C146.922 111.147 159.946 113.104 171.7 118.47ZM64.92 139.31C69.1946 139.489 73.4602 138.785 77.45 137.24C80.63 135.97 80.78 134.88 78.29 132.38C76.3445 130.39 73.8282 129.055 71.09 128.56C65.87 127.61 61.39 129.29 59.09 133.03C56.79 136.77 57.54 138.31 61.65 139.03C62.7311 139.208 63.8244 139.302 64.92 139.31V139.31ZM86.92 136.86C85.38 139.76 82.52 141.01 79.99 143.02L89.82 155.75C89.8698 149.341 88.901 142.965 86.95 136.86H86.92ZM76.36 157.38C78.72 160.38 81 163.12 82.48 166.38C82.82 167.12 83.13 167.86 83.48 168.6C84.4 170.7 86.38 170.88 87.99 170.31C89.6 169.74 88.58 168.07 88.25 166.94C87.0514 162.45 84.7163 158.345 81.47 155.02C80.42 157.16 78.72 157.71 76.39 157.38H76.36ZM157.26 120.38C157.26 121.52 157.34 122.65 157.26 123.76C157.08 125.81 157.85 126.76 160.01 126.58C162.85 126.39 165.69 126.29 168.43 124.89C165.17 121.85 163.09 121.02 157.31 120.43L157.26 120.38ZM73.52 154.66C74.46 153.51 73.6 151.66 75.35 151.28C76.51 151.03 77.35 152.74 78.88 152.15C77.88 150.55 76.88 149.24 76.1 147.85C73.87 143.99 73.89 143.98 69.35 145.64C70.51 148.65 70.88 151.91 73.55 154.71L73.52 154.66ZM62.52 160.83L61.71 161.44C62.71 163.01 63.77 164.6 64.84 166.15C67.54 170.05 67.55 170.04 72.93 168.54C70.07 164.99 66.1 163.16 62.52 160.88V160.83ZM147.52 165.95C146.52 167.63 145.42 169.14 145.34 171.41C148.36 168.88 148.36 168.88 147.51 166L147.52 165.95ZM97.02 80.05C98.22 80.05 98.93 75.23 98.02 73.79C97.86 73.53 96.61 73.54 96.29 73.85C94.86 75.28 95.81 80.1 97.01 80.1L97.02 80.05Z" fill="#10100F"/>
<path d="M114.07 156.91C114 158.59 113.63 160.1 111.85 160.31C110.07 160.52 109.37 159.15 109.25 157.54C108.97 153.67 108.66 149.81 108.46 145.93C108.4 144.87 108.25 143.45 109.81 143.26C111.02 143.12 111.33 144.26 111.63 145.18C112.86 149.04 113.31 153.06 114.07 156.91Z" fill="#10100F"/>
<path d="M97.77 100.45C98.0778 100.509 98.3768 100.606 98.66 100.74C100.36 101.74 102.76 106.98 102.45 108.81C102.401 109.212 102.234 109.591 101.971 109.898C101.707 110.206 101.359 110.429 100.97 110.54C100.655 110.637 100.317 110.63 100.006 110.518C99.6961 110.406 99.4306 110.196 99.25 109.92C97.8346 107.405 96.9434 104.629 96.63 101.76C96.6164 101.599 96.6353 101.436 96.6856 101.282C96.7359 101.129 96.8166 100.986 96.9229 100.864C97.0292 100.742 97.159 100.642 97.3045 100.571C97.45 100.5 97.6083 100.459 97.77 100.45V100.45Z" fill="#10100F"/>
<path d="M143.66 155.66C143.475 155.923 143.205 156.114 142.895 156.202C142.586 156.289 142.255 156.267 141.96 156.14C141.663 156.02 141.41 155.814 141.231 155.548C141.053 155.283 140.959 154.97 140.96 154.65C140.968 154.017 141.062 153.388 141.24 152.78C141.57 151.55 141.81 150.11 143.44 150.02C145.07 149.93 144.4 154.64 143.66 155.66Z" fill="#10100F"/>
<path d="M150.31 132.53C150.08 133.91 149.73 135.41 148.01 135.63C146.87 135.77 146.49 134.7 146.43 133.63C146.32 132.07 146.62 130.63 148.51 130.54C149.61 130.52 150.15 131.37 150.31 132.53Z" fill="#10100F"/>
<path d="M148.66 43.4899C148.58 45.0478 147.896 46.5132 146.753 47.5755C145.611 48.6377 144.1 49.2132 142.54 49.1799C140.985 49.0842 139.523 48.4046 138.448 47.2772C137.372 46.1498 136.762 44.6578 136.74 43.0999C136.757 42.2854 136.939 41.4828 137.276 40.7411C137.613 39.9994 138.098 39.3341 138.701 38.7858C139.303 38.2375 140.011 37.8177 140.781 37.5519C141.551 37.2861 142.368 37.18 143.18 37.2399C143.952 37.2842 144.708 37.4818 145.403 37.8212C146.099 38.1606 146.719 38.635 147.229 39.2168C147.739 39.7985 148.129 40.4759 148.374 41.2095C148.62 41.9431 148.717 42.7183 148.66 43.4899V43.4899Z" fill="#10100F"/>
</g>
<defs>
<clipPath id="clip0_1263_2423">
<rect width="237.32" height="189.8" fill="white"/>
</clipPath>
</defs>
</svg>
